<svg xmlns="http://www.w3.org/2000/svg" viewBox="0 0 320 240" fill="none" aria-hidden="true" focusable="false">
  <rect x="13" y="51" width="78" height="113" rx="18" fill="#eab93f" stroke="#3a3a75" stroke-width="5"/>
  <rect x="21" y="43" width="78" height="113" rx="18" fill="#fff" stroke="#3a3a75" stroke-width="5"/>
  <rect x="36" y="59" width="48" height="16" rx="6" fill="#d1395d" stroke="#3a3a75" stroke-width="3"/>
  <path d="M38 90H76M38 101H65" stroke="#eab93f" stroke-width="5" stroke-linecap="round"/>
  <path d="M43 129L59 113L78 132" stroke="#3a3a75" stroke-width="6" stroke-linecap="round" stroke-linejoin="round"/>
  <path d="M43 129L59 113L78 132" stroke="#13b3e2" stroke-width="2.5" stroke-linecap="round" stroke-linejoin="round"/>
  <circle cx="43" cy="129" r="7" fill="#57c6a4" stroke="#3a3a75" stroke-width="3"/>
  <circle cx="59" cy="113" r="7" fill="#eab93f" stroke="#3a3a75" stroke-width="3"/>
  <circle cx="78" cy="132" r="7" fill="#d1395d" stroke="#3a3a75" stroke-width="3"/>

  <rect x="121" y="32" width="78" height="132" rx="20" fill="#fff" stroke="#3a3a75" stroke-width="5"/>
  <circle cx="160" cy="60" r="11" fill="#57c6a4" stroke="#3a3a75" stroke-width="4"/>
  <path d="M143 83C146 70 152 66 160 66C168 66 174 70 177 83" fill="#57c6a4" stroke="#3a3a75" stroke-width="4" stroke-linejoin="round"/>
  <path d="M139 112L155 96L176 113L184 137M139 112L157 137L184 137" stroke="#3a3a75" stroke-width="6" stroke-linecap="round" stroke-linejoin="round"/>
  <path d="M139 112L155 96L176 113L184 137M139 112L157 137L184 137" stroke="#13b3e2" stroke-width="2.5" stroke-linecap="round" stroke-linejoin="round"/>
  <circle cx="139" cy="112" r="7" fill="#d1395d" stroke="#3a3a75" stroke-width="3"/>
  <circle cx="155" cy="96" r="7" fill="#eab93f" stroke="#3a3a75" stroke-width="3"/>
  <rect x="168" y="105" width="16" height="16" rx="5" fill="#57c6a4" stroke="#3a3a75" stroke-width="3"/>
  <circle cx="157" cy="137" r="7" fill="#13b3e2" stroke="#3a3a75" stroke-width="3"/>
  <circle cx="184" cy="137" r="7" fill="#d1395d" stroke="#3a3a75" stroke-width="3"/>

  <rect x="221" y="43" width="78" height="113" rx="18" fill="#fff" stroke="#3a3a75" stroke-width="5"/>
  <path d="M237 61H283V139H237Z" stroke="#3a3a75" stroke-width="4" stroke-linejoin="round"/>
  <path d="M237 83H283M237 105H283M237 127H283M253 61V139M269 61V139" stroke="#3a3a75" stroke-width="3"/>
  <rect x="240" y="64" width="10" height="16" rx="3" fill="#d1395d"/>
  <rect x="256" y="86" width="10" height="16" rx="3" fill="#57c6a4"/>
  <rect x="272" y="108" width="8" height="16" rx="3" fill="#13b3e2"/>
  <rect x="240" y="130" width="10" height="6" rx="3" fill="#eab93f"/>

  <g stroke="#3a3a75" stroke-linecap="round" stroke-linejoin="round">
    <path d="M19 190H300" stroke-width="11"/>
    <path d="M19 190H300" stroke="#13b3e2" stroke-width="5"/>
    <path d="M60 156V190M160 164V190M260 156V190" stroke-width="9"/>
    <path d="M60 156V190" stroke="#d1395d" stroke-width="4"/>
    <path d="M160 164V190" stroke="#57c6a4" stroke-width="4"/>
    <path d="M260 156V190" stroke="#eab93f" stroke-width="4"/>
  </g>

  <circle cx="60" cy="190" r="8" fill="#d1395d" stroke="#3a3a75" stroke-width="4"/>
  <circle cx="160" cy="190" r="8" fill="#57c6a4" stroke="#3a3a75" stroke-width="4"/>
  <circle cx="260" cy="190" r="8" fill="#eab93f" stroke="#3a3a75" stroke-width="4"/>
  <path d="M105 181L116 190L105 199" fill="#eab93f" stroke="#3a3a75" stroke-width="4" stroke-linejoin="round"/>
  <path d="M207 181L218 190L207 199" fill="#57c6a4" stroke="#3a3a75" stroke-width="4" stroke-linejoin="round"/>
  <path d="M295 180L308 190L295 200Z" fill="#13b3e2" stroke="#3a3a75" stroke-width="4" stroke-linejoin="round"/>
</svg>
