<?xml version="1.0" encoding="UTF-8" standalone="no"?>
<svg
   viewBox="0 0 320 240"
   fill="none"
   aria-hidden="true"
   focusable="false"
   version="1.1"
   id="svg26"
   sodipodi:docname="end-to-end-workflow.svg"
   inkscape:version="1.4.3 (0d15f75, 2025-12-25)"
   xmlns:inkscape="http://www.inkscape.org/namespaces/inkscape"
   xmlns:sodipodi="http://sodipodi.sourceforge.net/DTD/sodipodi-0.dtd"
   xmlns="http://www.w3.org/2000/svg"
   xmlns:svg="http://www.w3.org/2000/svg">
  <defs
     id="defs26" />
  <sodipodi:namedview
     id="namedview26"
     pagecolor="#ffffff"
     bordercolor="#000000"
     borderopacity="0.25"
     inkscape:showpageshadow="2"
     inkscape:pageopacity="0.0"
     inkscape:pagecheckerboard="0"
     inkscape:deskcolor="#d1d1d1"
     showgrid="true"
     inkscape:zoom="1.6834197"
     inkscape:cx="160.09079"
     inkscape:cy="87.916281"
     inkscape:window-width="1708"
     inkscape:window-height="961"
     inkscape:window-x="10"
     inkscape:window-y="43"
     inkscape:window-maximized="0"
     inkscape:current-layer="svg26">
    <inkscape:grid
       id="grid26"
       units="px"
       originx="0"
       originy="0"
       spacingx="1"
       spacingy="1"
       empcolor="#0099e5"
       empopacity="0.30196078"
       color="#0099e5"
       opacity="0.14901961"
       empspacing="5"
       enabled="true"
       visible="true" />
  </sodipodi:namedview>
  <rect
     x="21"
     y="43"
     width="78"
     height="113"
     rx="18"
     fill="#fff"
     stroke="#3a3a75"
     stroke-width="5"
     id="rect2" />
  <rect
     x="36"
     y="59"
     width="48"
     height="16"
     rx="6"
     fill="#d1395d"
     stroke="#3a3a75"
     stroke-width="3"
     id="rect3" />
  <path
     d="M38 90H76M38 101H65"
     stroke="#eab93f"
     stroke-width="5"
     stroke-linecap="round"
     id="path3" />
  <path
     d="m 43,133.84648 16,-16 19,19"
     stroke="#3a3a75"
     stroke-width="6"
     stroke-linecap="round"
     stroke-linejoin="round"
     id="path4" />
  <path
     d="m 43,133.84648 16,-16 19,19"
     stroke="#13b3e2"
     stroke-width="2.5"
     stroke-linecap="round"
     stroke-linejoin="round"
     id="path5" />
  <circle
     cx="43.230785"
     cy="134.53883"
     r="7"
     fill="#57c6a4"
     stroke="#3a3a75"
     stroke-width="3"
     id="circle5" />
  <circle
     cx="59.230785"
     cy="118.53883"
     r="7"
     fill="#eab93f"
     stroke="#3a3a75"
     stroke-width="3"
     id="circle6" />
  <circle
     cx="78.230782"
     cy="137.53883"
     r="7"
     fill="#d1395d"
     stroke="#3a3a75"
     stroke-width="3"
     id="circle7" />
  <rect
     x="-199.18721"
     y="-156.05856"
     width="78.374428"
     height="112.75354"
     rx="20.096006"
     fill="#ffffff"
     stroke="#3a3a75"
     stroke-width="4.76923"
     id="rect7"
     transform="scale(-1)" />
  <ellipse
     cx="160"
     cy="62.138897"
     fill="#57c6a4"
     stroke="#3a3a75"
     stroke-width="3.56463"
     id="circle8"
     rx="9.6979618"
     ry="9.9086237" />
  <path
     d="m 145.01224,82.85693 c 2.6449,-11.710192 7.9347,-15.313328 14.98776,-15.313328 7.05306,0 12.34286,3.603136 14.98776,15.313328"
     fill="#57c6a4"
     stroke="#3a3a75"
     stroke-width="3.56463"
     stroke-linejoin="round"
     id="path8" />
  <path
     d="m 135.96155,114.63333 16,-16.000005 21,17.000005 8,24 m -45,-25 18,25 h 27"
     stroke="#3a3a75"
     stroke-width="6"
     stroke-linecap="round"
     stroke-linejoin="round"
     id="path9" />
  <path
     d="m 135.75898,114.63333 16,-16.000005 21,17.000005 8,24 m -45,-25 18,25 h 27"
     stroke="#13b3e2"
     stroke-width="2.5"
     stroke-linecap="round"
     stroke-linejoin="round"
     id="path10" />
  <circle
     cx="135.75899"
     cy="114.63332"
     r="7"
     fill="#d1395d"
     stroke="#3a3a75"
     stroke-width="3"
     id="circle10" />
  <circle
     cx="151.75899"
     cy="98.633324"
     r="7"
     fill="#eab93f"
     stroke="#3a3a75"
     stroke-width="3"
     id="circle11" />
  <rect
     x="164.75899"
     y="107.63332"
     width="16"
     height="16"
     rx="5"
     fill="#57c6a4"
     stroke="#3a3a75"
     stroke-width="3"
     id="rect11" />
  <circle
     cx="153.75899"
     cy="139.63333"
     r="7"
     fill="#13b3e2"
     stroke="#3a3a75"
     stroke-width="3"
     id="circle12" />
  <circle
     cx="180.75899"
     cy="139.63333"
     r="7"
     fill="#d1395d"
     stroke="#3a3a75"
     stroke-width="3"
     id="circle13" />
  <rect
     x="220.99411"
     y="42.99411"
     width="78.01178"
     height="112.45118"
     rx="18.002718"
     fill="#ffffff"
     stroke="#3a3a75"
     stroke-width="5"
     id="rect13" />
  <path
     d="M237 61H283V139H237Z"
     stroke="#3a3a75"
     stroke-width="4"
     stroke-linejoin="round"
     id="path13" />
  <path
     d="M237 83H283M237 105H283M237 127H283M253 61V139M269 61V139"
     stroke="#3a3a75"
     stroke-width="3"
     id="path14" />
  <rect
     x="240"
     y="64"
     width="10"
     height="16"
     rx="3"
     fill="#d1395d"
     id="rect14" />
  <rect
     x="256"
     y="86"
     width="10"
     height="16"
     rx="3"
     fill="#57c6a4"
     id="rect15" />
  <rect
     x="272"
     y="108"
     width="8"
     height="16"
     rx="3"
     fill="#13b3e2"
     id="rect16" />
  <rect
     x="240"
     y="130"
     width="10"
     height="6"
     rx="3"
     fill="#eab93f"
     id="rect17" />
  <g
     stroke="#3a3a75"
     stroke-linecap="round"
     stroke-linejoin="round"
     id="g22">
    <path
       d="M19 190H300"
       stroke-width="11"
       id="path17" />
    <path
       d="M19 190H300"
       stroke="#13b3e2"
       stroke-width="5"
       id="path18" />
    <path
       d="m 59.81279,159.01567 v 31.17154 M 160,159.34109 v 30.84612 m 100.18721,-31.17154 v 31.17154"
       stroke-width="8.62558"
       id="path19"
       sodipodi:nodetypes="cccccc" />
    <path
       d="m 60,160.92971 v 29.34416"
       stroke="#d1395d"
       stroke-width="3.71605"
       id="path20" />
    <path
       d="M 160,160.56371 V 190.3581"
       stroke="#57c6a4"
       stroke-width="3.6332"
       id="path21"
       sodipodi:nodetypes="cc" />
    <path
       d="m 260,161.23782 v 29.05317"
       stroke="#eab93f"
       stroke-width="3.69758"
       id="path22" />
  </g>
  <circle
     cx="60"
     cy="190"
     r="8"
     fill="#d1395d"
     stroke="#3a3a75"
     stroke-width="4"
     id="circle22" />
  <circle
     cx="160"
     cy="190"
     r="8"
     fill="#57c6a4"
     stroke="#3a3a75"
     stroke-width="4"
     id="circle23" />
  <circle
     cx="260"
     cy="190"
     r="8"
     fill="#eab93f"
     stroke="#3a3a75"
     stroke-width="4"
     id="circle24" />
  <path
     d="M295 180L308 190L295 200Z"
     fill="#13b3e2"
     stroke="#3a3a75"
     stroke-width="4"
     stroke-linejoin="round"
     id="path26"
     style="fill:#3a3a75;fill-opacity:1" />
  <path
     d="m 209.12163,180.73925 13,10 -13,10 z"
     fill="#13b3e2"
     stroke="#3a3a75"
     stroke-width="4"
     stroke-linejoin="round"
     id="path26-8"
     style="fill:#3a3a75;fill-opacity:1" />
  <path
     d="m 105.10761,180.51964 13,10 -13,10 z"
     fill="#13b3e2"
     stroke="#3a3a75"
     stroke-width="4"
     stroke-linejoin="round"
     id="path26-8-7"
     style="fill:#3a3a75;fill-opacity:1" />
</svg>
