<?xml version="1.0" encoding="UTF-8" standalone="no"?>
<svg
   viewBox="0 0 320 240"
   fill="none"
   aria-hidden="true"
   focusable="false"
   version="1.1"
   id="svg27"
   sodipodi:docname="interviewer-assisted.svg"
   inkscape:version="1.4.3 (0d15f75, 2025-12-25)"
   xmlns:inkscape="http://www.inkscape.org/namespaces/inkscape"
   xmlns:sodipodi="http://sodipodi.sourceforge.net/DTD/sodipodi-0.dtd"
   xmlns="http://www.w3.org/2000/svg"
   xmlns:svg="http://www.w3.org/2000/svg">
  <defs
     id="defs27" />
  <sodipodi:namedview
     id="namedview27"
     pagecolor="#ffffff"
     bordercolor="#000000"
     borderopacity="0.25"
     inkscape:showpageshadow="2"
     inkscape:pageopacity="0.0"
     inkscape:pagecheckerboard="0"
     inkscape:deskcolor="#d1d1d1"
     inkscape:zoom="1.9054147"
     inkscape:cx="123.07032"
     inkscape:cy="111.26187"
     inkscape:window-width="1708"
     inkscape:window-height="961"
     inkscape:window-x="10"
     inkscape:window-y="43"
     inkscape:window-maximized="0"
     inkscape:current-layer="svg27" />
  <path
     d="m 12.702158,154.1205 c 3,-29 15,-45 33,-45 18,0 30,16 33,45 z"
     fill="#d1395d"
     stroke="#3a3a75"
     stroke-width="5"
     stroke-linejoin="round"
     id="path1" />
  <circle
     cx="45.70216"
     cy="85.120506"
     r="19"
     fill="#d1395d"
     stroke="#3a3a75"
     stroke-width="5"
     id="circle1" />
  <circle
     cx="39.70216"
     cy="79.120506"
     r="5"
     fill="#ffffff"
     id="circle2" />
  <path
     d="m 240.2482,156.21978 c 3,-29 15,-45 33,-45 18,0 30,16 33,45 z"
     fill="#57c6a4"
     stroke="#3a3a75"
     stroke-width="5"
     stroke-linejoin="round"
     id="path2" />
  <circle
     cx="273.2482"
     cy="87.219788"
     r="19"
     fill="#57c6a4"
     stroke="#3a3a75"
     stroke-width="5"
     id="circle3" />
  <circle
     cx="267.2482"
     cy="81.219788"
     r="5"
     fill="#ffffff"
     id="circle4" />
  <rect
     x="91"
     y="42"
     width="138"
     height="138"
     rx="25"
     fill="#fff"
     stroke="#3a3a75"
     stroke-width="5"
     id="rect4" />
  <path
     d="M113 71H145"
     stroke="#eab93f"
     stroke-width="7"
     stroke-linecap="round"
     id="path4" />
  <path
     d="M113 84H132"
     stroke="#57c6a4"
     stroke-width="5"
     stroke-linecap="round"
     id="path5" />
  <g
     stroke="#3a3a75"
     stroke-linecap="round"
     stroke-linejoin="round"
     id="g13">
    <path
       d="M127 112C144 93 163 94 177 111"
       stroke-width="7"
       id="path6" />
    <path
       d="M127 112C144 93 163 94 177 111"
       stroke="#13b3e2"
       stroke-width="3"
       id="path7" />
    <path
       d="M127 112C136 132 152 145 173 145"
       stroke-width="7"
       id="path8" />
    <path
       d="M127 112C136 132 152 145 173 145"
       stroke="#d1395d"
       stroke-width="3"
       id="path9" />
    <path
       d="M177 111C192 116 199 127 196 140"
       stroke-width="7"
       id="path10" />
    <path
       d="M177 111C192 116 199 127 196 140"
       stroke="#57c6a4"
       stroke-width="3"
       id="path11" />
    <path
       d="M173 145L196 140"
       stroke-width="7"
       id="path12" />
    <path
       d="M173 145L196 140"
       stroke="#eab93f"
       stroke-width="3"
       id="path13" />
  </g>
  <circle
     cx="127"
     cy="112"
     r="11"
     fill="#d1395d"
     stroke="#3a3a75"
     stroke-width="4"
     id="circle13" />
  <rect
     x="166"
     y="100"
     width="22"
     height="22"
     rx="7"
     fill="#13b3e2"
     stroke="#3a3a75"
     stroke-width="4"
     id="rect13" />
  <path
     d="M173 132L186 153H160Z"
     fill="#eab93f"
     stroke="#3a3a75"
     stroke-width="4"
     stroke-linejoin="round"
     id="path14" />
</svg>
