<svg xmlns="http://www.w3.org/2000/svg" viewBox="0 0 320 240" fill="none" aria-hidden="true" focusable="false">
  <path d="M19 141C22 112 34 96 52 96C70 96 82 112 85 141Z" fill="#d1395d" stroke="#3a3a75" stroke-width="5" stroke-linejoin="round"/>
  <circle cx="52" cy="72" r="19" fill="#d1395d" stroke="#3a3a75" stroke-width="5"/>
  <circle cx="46" cy="66" r="5" fill="#fff"/>

  <path d="M235 141C238 112 250 96 268 96C286 96 298 112 301 141Z" fill="#57c6a4" stroke="#3a3a75" stroke-width="5" stroke-linejoin="round"/>
  <circle cx="268" cy="72" r="19" fill="#57c6a4" stroke="#3a3a75" stroke-width="5"/>
  <circle cx="262" cy="66" r="5" fill="#fff"/>

  <rect x="91" y="42" width="138" height="138" rx="25" fill="#fff" stroke="#3a3a75" stroke-width="5"/>
  <path d="M113 71H145" stroke="#eab93f" stroke-width="7" stroke-linecap="round"/>
  <path d="M113 84H132" stroke="#57c6a4" stroke-width="5" stroke-linecap="round"/>

  <g stroke="#3a3a75" stroke-linecap="round" stroke-linejoin="round">
    <path d="M127 112C144 93 163 94 177 111" stroke-width="7"/>
    <path d="M127 112C144 93 163 94 177 111" stroke="#13b3e2" stroke-width="3"/>
    <path d="M127 112C136 132 152 145 173 145" stroke-width="7"/>
    <path d="M127 112C136 132 152 145 173 145" stroke="#d1395d" stroke-width="3"/>
    <path d="M177 111C192 116 199 127 196 140" stroke-width="7"/>
    <path d="M177 111C192 116 199 127 196 140" stroke="#57c6a4" stroke-width="3"/>
    <path d="M173 145L196 140" stroke-width="7"/>
    <path d="M173 145L196 140" stroke="#eab93f" stroke-width="3"/>
  </g>

  <circle cx="127" cy="112" r="11" fill="#d1395d" stroke="#3a3a75" stroke-width="4"/>
  <rect x="166" y="100" width="22" height="22" rx="7" fill="#13b3e2" stroke="#3a3a75" stroke-width="4"/>
  <path d="M173 132L186 153H160Z" fill="#eab93f" stroke="#3a3a75" stroke-width="4" stroke-linejoin="round"/>
  <circle cx="196" cy="140" r="9" fill="#57c6a4" stroke="#3a3a75" stroke-width="4"/>

  <g stroke="#3a3a75" stroke-linecap="round" stroke-linejoin="round">
    <path d="M72 119C91 105 107 99 126 103" stroke-width="12"/>
    <path d="M72 119C91 105 107 99 126 103" stroke="#d1395d" stroke-width="6"/>
    <path d="M72 143C92 165 111 175 137 175" stroke-width="12"/>
    <path d="M72 143C92 165 111 175 137 175" stroke="#d1395d" stroke-width="6"/>
    <path d="M248 119C229 105 213 99 194 103" stroke-width="12"/>
    <path d="M248 119C229 105 213 99 194 103" stroke="#57c6a4" stroke-width="6"/>
    <path d="M248 143C228 165 209 175 183 175" stroke-width="12"/>
    <path d="M248 143C228 165 209 175 183 175" stroke="#57c6a4" stroke-width="6"/>
  </g>

  <circle cx="127" cy="103" r="7" fill="#d1395d" stroke="#3a3a75" stroke-width="3"/>
  <circle cx="137" cy="175" r="7" fill="#d1395d" stroke="#3a3a75" stroke-width="3"/>
  <circle cx="194" cy="103" r="7" fill="#57c6a4" stroke="#3a3a75" stroke-width="3"/>
  <circle cx="183" cy="175" r="7" fill="#57c6a4" stroke="#3a3a75" stroke-width="3"/>

  <path d="M108 204C126 216 145 220 160 220C175 220 194 216 212 204" stroke="#eab93f" stroke-width="5" stroke-linecap="round"/>
  <path d="M103 198L106 206L115 204" fill="#eab93f" stroke="#3a3a75" stroke-width="3" stroke-linejoin="round"/>
  <path d="M217 198L214 206L205 204" fill="#eab93f" stroke="#3a3a75" stroke-width="3" stroke-linejoin="round"/>
</svg>
