<?xml version="1.0" encoding="UTF-8" standalone="no"?>
<svg
   viewBox="0 0 320 240"
   fill="none"
   aria-hidden="true"
   focusable="false"
   version="1.1"
   id="svg32"
   sodipodi:docname="ontological-flexibility.svg"
   inkscape:version="1.4.3 (0d15f75, 2025-12-25)"
   xmlns:inkscape="http://www.inkscape.org/namespaces/inkscape"
   xmlns:sodipodi="http://sodipodi.sourceforge.net/DTD/sodipodi-0.dtd"
   xmlns="http://www.w3.org/2000/svg"
   xmlns:svg="http://www.w3.org/2000/svg">
  <defs
     id="defs32" />
  <sodipodi:namedview
     id="namedview32"
     pagecolor="#ffffff"
     bordercolor="#000000"
     borderopacity="0.25"
     inkscape:showpageshadow="2"
     inkscape:pageopacity="0.0"
     inkscape:pagecheckerboard="0"
     inkscape:deskcolor="#d1d1d1"
     inkscape:zoom="1.4736236"
     inkscape:cx="190.34711"
     inkscape:cy="88.217912"
     inkscape:window-width="1708"
     inkscape:window-height="961"
     inkscape:window-x="10"
     inkscape:window-y="43"
     inkscape:window-maximized="0"
     inkscape:current-layer="svg32" />
  <g
     stroke="#3a3a75"
     stroke-linecap="round"
     stroke-linejoin="round"
     id="g22">
    <path
       d="M70 62C104 61 130 83 157 116"
       stroke-width="8"
       id="path1" />
    <path
       d="M70 62C104 61 130 83 157 116"
       stroke="#13b3e2"
       stroke-width="3"
       id="path2" />
    <path
       d="M164 53C164 77 164 94 161 116"
       stroke-width="8"
       id="path3" />
    <path
       d="M164 53C164 77 164 94 161 116"
       stroke="#eab93f"
       stroke-width="3"
       id="path4" />
    <path
       d="M177 121C204 99 224 98 250 104"
       stroke-width="8"
       id="path5" />
    <path
       d="M177 121C204 99 224 98 250 104"
       stroke="#57c6a4"
       stroke-width="3"
       id="path6" />
    <path
       d="M173 136C190 153 198 174 194 194"
       stroke-width="8"
       id="path7" />
    <path
       d="M173 136C190 153 198 174 194 194"
       stroke="#d1395d"
       stroke-width="3"
       id="path8" />
    <path
       d="M145 137C125 155 101 166 78 167"
       stroke-width="8"
       id="path9" />
    <path
       d="M145 137C125 155 101 166 78 167"
       stroke="#13b3e2"
       stroke-width="3"
       id="path10" />
    <path
       d="M83 48C120 26 143 30 164 47"
       stroke-width="6"
       stroke-dasharray="2 11"
       id="path11" />
    <path
       d="M83 48C120 26 143 30 164 47"
       stroke="#57c6a4"
       stroke-width="2.5"
       stroke-dasharray="2 11"
       id="path12" />
    <path
       d="M184 55C218 48 242 65 256 87"
       stroke-width="6"
       stroke-dasharray="2 11"
       id="path13" />
    <path
       d="M184 55C218 48 242 65 256 87"
       stroke="#d1395d"
       stroke-width="2.5"
       stroke-dasharray="2 11"
       id="path14" />
    <path
       d="M255 127C251 159 227 184 211 196"
       stroke-width="6"
       stroke-dasharray="2 11"
       id="path15" />
    <path
       d="M255 127C251 159 227 184 211 196"
       stroke="#eab93f"
       stroke-width="2.5"
       stroke-dasharray="2 11"
       id="path16" />
    <path
       d="M174 207C136 222 103 208 80 184"
       stroke-width="6"
       stroke-dasharray="2 11"
       id="path17" />
    <path
       d="M174 207C136 222 103 208 80 184"
       stroke="#57c6a4"
       stroke-width="2.5"
       stroke-dasharray="2 11"
       id="path18" />
  </g>
  <circle
     cx="70"
     cy="62"
     r="19"
     fill="#d1395d"
     stroke="#3a3a75"
     stroke-width="5"
     id="circle22" />
  <circle
     cx="64"
     cy="56"
     r="5"
     fill="#fff"
     id="circle23" />
  <path
     d="M164 31L186 53L164 75L142 53Z"
     fill="#eab93f"
     stroke="#3a3a75"
     stroke-width="5"
     stroke-linejoin="round"
     id="path23" />
  <path
     d="M157 47L164 40L171 47"
     stroke="#fff"
     stroke-width="4"
     stroke-linecap="round"
     stroke-linejoin="round"
     id="path24" />
  <rect
     x="239"
     y="83"
     width="44"
     height="44"
     rx="13"
     fill="#57c6a4"
     stroke="#3a3a75"
     stroke-width="5"
     id="rect24" />
  <path
     d="M249 94H261"
     stroke="#fff"
     stroke-width="4"
     stroke-linecap="round"
     id="path25" />
  <path
     d="M194 178L217 216H171Z"
     fill="#d1395d"
     stroke="#3a3a75"
     stroke-width="5"
     stroke-linejoin="round"
     id="path26" />
  <circle
     cx="194"
     cy="199"
     r="5"
     fill="#fff"
     id="circle26" />
  <rect
     x="34"
     y="150"
     width="61"
     height="35"
     rx="17.5"
     fill="#13b3e2"
     stroke="#3a3a75"
     stroke-width="5"
     id="rect26" />
  <path
     d="M48 167H61"
     stroke="#fff"
     stroke-width="4"
     stroke-linecap="round"
     id="path27" />
  <circle
     cx="160"
     cy="126"
     r="23"
     fill="#fff"
     stroke="#3a3a75"
     stroke-width="5"
     id="circle27" />
  <circle
     cx="160"
     cy="126"
     r="8"
     fill="#d1395d"
     stroke="#3a3a75"
     stroke-width="3"
     id="circle28" />
</svg>
