<svg xmlns="http://www.w3.org/2000/svg" viewBox="0 0 1000 1000"><path fill="#fff" d="M903.5 779.3c-15.1 34.9-33 67.1-53.8 96.7-28.3 40.3-51.4 68.2-69.3 83.7-27.7 25.4-57.3 38.5-89 39.2-22.8 0-50.2-6.5-82.2-19.6-32.1-13.1-61.6-19.6-88.5-19.6-28.3 0-58.6 6.5-91 19.6-32.5 13.1-58.6 20-78.7 20.7-30.4 1.3-60.8-12.1-91-40.2-19.3-16.9-43.5-45.7-72.4-86.7-31.1-43.7-56.6-94.4-76.6-152.2C89.6 658.4 78.8 598 78.8 539.5c0-67 14.5-124.8 43.5-173.3 22.8-38.9 53.1-69.6 91.1-92.1 38-22.5 79-34 123.1-34.7 24.2 0 55.9 7.5 95.2 22.2 39.3 14.7 64.5 22.2 75.5 22.2 8.3 0 36.3-8.7 83.8-26.2 44.9-16.2 82.8-22.9 113.9-20.2 84.1 6.8 147.3 40 189.4 99.7-75.2 45.6-112.5 109.4-111.7 191.4.7 63.8 23.8 116.9 69.3 159.1 20.6 19.6 43.6 34.7 69.3 45.4-5.6 16.1-11.5 31.5-17.7 46.3zM710.5 20c0 50-18.3 96.7-54.7 139.9-43.9 51.4-97.1 81.1-154.8 76.4-.7-6-1.2-12.3-1.2-19 0-48 20.9-99.4 58-141.4 18.5-21.3 42.1-39 70.7-53.1C657.2 9 684.1 1.3 709.5 0c.7 6.7 1 13.4 1 20z"/></svg>