<svg xmlns="http://www.w3.org/2000/svg" xmlns:xlink="http://www.w3.org/1999/xlink" width="360.2" height="473.47" viewBox="0 0 360.2 473.47"><defs><linearGradient id="linear-gradient" x1="180.33" y1="137.53" x2="180.33" y2="418.09" gradientUnits="userSpaceOnUse"><stop offset="0" stop-color="#fff"></stop><stop offset="1" stop-color="#bbb"></stop></linearGradient></defs><g style="isolation:isolate"><g id="Server"><g id="NC-Desktop"><g id="Border"><circle cx="180.33" cy="277.81" r="140.28" style="fill:url(#linear-gradient)"></circle><circle cx="180.33" cy="277.81" r="140.28" style="fill:none;stroke:#414042;stroke-miterlimit:10;stroke-width:0.150838084874093px"></circle></g></g><g id="NC-Desktop-2" data-name="NC-Desktop" style="opacity:0.61"><g id="Border-2" data-name="Border"><circle cx="180.33" cy="277.81" r="140.28" style="fill:#be3356"></circle></g></g><path d="M306.68,473.47H53.52A53.52,53.52,0,0,1,0,420V53.52A53.52,53.52,0,0,1,53.52,0H217L360.2,146.11V420A53.52,53.52,0,0,1,306.68,473.47Z" style="fill:#3a3a75"></path><g id="NC-Flat"><circle cx="180.33" cy="287.74" r="127.51" style="fill:#16152b;opacity:0.25"></circle><circle cx="180.33" cy="287.74" r="67.1" style="fill:#16152b;opacity:0.25"></circle><g id="NC-Nodes"><image width="1123" height="1409" transform="translate(50.43 123.3) scale(0.24)" style="opacity:0.5;mix-blend-mode:multiply"></image><rect x="82.48" y="201.73" width="131.62" height="11.59" transform="translate(-103.36 165.93) rotate(-45.07)" style="fill:#dcdddd"></rect><polygon points="215.04 369.15 89.66 243.74 100.69 232.68 226.1 358.11 215.04 369.15" style="fill:#dcdddd"></polygon><circle cx="187.93" cy="169.24" r="23.14" style="fill:#fff"></circle><circle cx="106.81" cy="248.55" r="33.67" style="fill:#fff"></circle><circle cx="237.18" cy="378.81" r="50.56" style="fill:#fff"></circle></g></g><image width="1073" height="1085" transform="translate(142.85 -59.07) scale(0.24)" style="opacity:0.35000000000000003;mix-blend-mode:multiply"></image><path d="M360.2,146.11H259.44A42.41,42.41,0,0,1,217,103.7V0Z" style="fill:#5e65ea"></path></g></g></svg>