<svg xmlns="http://www.w3.org/2000/svg" width="400" height="400" viewBox="0 0 200 200"><g fill="#086d8c"><path d="M21 66.07c3.51 5.17 12.42 5.51 15.73-.21 1.68 1 4.69.86 6.08.7 2.28-.27 5.49-1.08 6.29-3.55 4.5 1.17 9.35-3 8.07-7.86-.69-2.63-2.89-4.13-5.42-4.79 1-3.61 2-7.22 3.39-10.72a.17.17 0 0 0-.08-.2 49 49 0 0 0-6.39-2.82c-2.11-.64-3.86 1.61-6 .78a16.24 16.24 0 0 1-2.11-1 21.84 21.84 0 0 0-.63-3c-1.37-4.84-4.71-12-5.75-12.36a5.09 5.09 0 0 0-1.51 0 71.74 71.74 0 0 0-16.77 2.18.16.16 0 0 0 0 .29c2.6 1.92 7 13.83 7.75 17a11.07 11.07 0 0 0-1.8.17 8.79 8.79 0 0 0-6.62 5 7.35 7.35 0 0 0 .77 7.39 8.18 8.18 0 0 0-1-.21c-3.63-.5-4.91 3.31-3.38 6.38a4 4 0 0 0-4.65-1c-2.27 1.15-2.25 4.7-1.36 6.73 1 2.34 3.67 3.57 6.09 3.81 3.3.34 6.44-1.08 9.28-2.59a.14.14 0 0 0 .02-.12zm30.46-15.78a12.54 12.54 0 0 0-8.32.82 4.77 4.77 0 0 0-3.87-3.25 5.06 5.06 0 0 0-4.68 1.88 11.38 11.38 0 0 0-5.86-8c.47-1.78 1-3.53 1.58-5.27 3.29 2.07 20.5 8.76 22.41 9.25-.46 1.51-.89 3.03-1.26 4.57zM43.73 38a8 8 0 0 0 2.27-.68 3.64 3.64 0 0 1 3.11-.12c.84.37 5.09 2.08 5.28 2.35.45.63-1.57 5.73-1.62 5.89-1.54-1-20.55-8.43-22.43-9.18a8.49 8.49 0 0 1 .91-2.18c.57-.86 1.28-.66 3.36 0a26.32 26.32 0 0 1 5 2.32c1.23.6 2.75 1.65 4.12 1.6zM16.27 23.35c4.93-1.34 16.84-2.11 17.5-2 1.32.23 5.95 10.67 6.32 14.75-2.29-1.28-5-2.84-8.66-2.9a.13.13 0 0 0-.11.06 48.23 48.23 0 0 0-2.84 8.34 10.76 10.76 0 0 0-4.69-1.19c-.4-3.41-5.17-15.19-7.52-17.06zm-9.1 43.28a6.22 6.22 0 0 1-1.36-7 3.22 3.22 0 0 1 3.6-1.42 5.22 5.22 0 0 1 2.91 2.38c0 .06.34-.16.23-.29a5.25 5.25 0 0 1-.74-6c1.29-2.11 4.93-1.36 6.44.15.14.13 0-.75-2.05-1.35-3.49-5.41-.07-11.79 6.57-12.38 5.6-.49 10.45 3.74 11.55 9.08 0 .09.08.11.15.1A3.83 3.83 0 0 0 34 51a4.88 4.88 0 0 1 6-2.74c2.13.63 3.07 2.82 3.39 4.82 0 .18.3.1.27-.08a7.74 7.74 0 0 0-.4-1.61 12.32 12.32 0 0 1 7.12-.9c2.73.32 5.21 1.35 6.28 4.07 1.89 4.79-2.8 10.24-9 7.71-.09 0-.14.1-.06.14a6.4 6.4 0 0 0 1.21.52c-.76 2.25-3.7 3-5.8 3.29-1.9.27-6.36.45-7.21-1.8a.1.1 0 0 0-.2.06 2.21 2.21 0 0 0 .89 1.23c-5.24 6.23-12.42 4.92-16.11-1a.06.06 0 0 0-.11.06 7.3 7.3 0 0 0 .6 1.1c-.4-.06-8.49 5.41-13.7.76z"/><path d="M26.93 60.28c-.28-1.83.41-3.82 2.36-4.34a2.7 2.7 0 0 1 3.39 3.17.11.11 0 0 0 .22.06 2.59 2.59 0 0 0-.28-2.17 1.17 1.17 0 0 1 1.5-.82 3.64 3.64 0 0 1 1.44 1.11.08.08 0 0 0 .13-.1c-1-1.86-2.95-1.58-3.19-.36a3.08 3.08 0 0 0-2.8-1.22 3.69 3.69 0 0 0-2.9 4.75c.02.04.14 0 .13-.08zM192 38.4c-2.63-1.94-6-1.35-8.92-.28a5.92 5.92 0 0 0-.33-4.56 5.44 5.44 0 0 0-7.08-2 82.63 82.63 0 0 1 5-16 8.94 8.94 0 0 1 1.47 1.07c-.08-.1-5.29 13.52-5.3 14.25a.12.12 0 0 0 .22.06c.71-1.16 4.73-12.43 5.43-14.3a.19.19 0 0 0-.08-.21 12.67 12.67 0 0 0-1.66-1.07c.23-.58.47-1.17.71-1.74a.18.18 0 0 0-.07-.19 29.89 29.89 0 0 0-13.08-4.89c-.07 0-.12.05-.15.11a83.45 83.45 0 0 0-3.7 11.06 25 25 0 0 0-1.31-6.44c-.24-.65-8.56 1.34-10.52 1.13-.35 0 0-.35 1.5 10.92l-.78.16a10 10 0 0 0-6.86 14.05c-2.36-1.76-5.76-1-7.61 1.14a8.9 8.9 0 0 0-1.47 8.84 9.19 9.19 0 0 0 15.08 3.28c1.91 5.88 11.2 7.62 16.56 4.78 2.58-1.37 4.66-3.84 6.68-5.9a.18.18 0 0 0-.25-.25c-3.85 3.67-6 7.18-12.6 7.12-4.79-.05-10.17-2.46-10.64-7.83 0-.06-.11-.06-.11 0 0 .64.19 1.81.16 1.84-4.32 4.12-11.64 3.2-14.25-2.35-2.44-5.16.46-10.47 3.94-11.23a7 7 0 0 1 4.66.87c0 .09.18 0 .14-.09a9.86 9.86 0 0 1 6.65-14c2.68-.58 6.46-.88 8.78.87s2.39 5 2.31 7.62c0 .21.31.21.32 0v-2.5c.8-2.3 3.92-3.08 6.1-2.91 3.63.28 3.81 2.07 4.49 2.9a4.82 4.82 0 0 0-2.39 3.7c0 .07.1.08.11 0a5 5 0 0 1 6.14-4 5.21 5.21 0 0 1 3.19 2.29c1.16 1.94.23 4.29.26 4.52q-.76.28-1.47.6c-.06 0 0 .12 0 .1 3.65-1.21 8.43-2.91 11.45.56 2.48 2.86 2.41 7.79.76 11-3.66 7.17-13.17 7.6-18.6 2.27a.14.14 0 0 0-.2.2c7.48 7.41 19.83 3.18 20.23-7 .19-2.72-.54-5.85-2.91-7.57zm-27.72-11a23.42 23.42 0 0 0-4.88-5.11c-.49-.41-.49-.38-.42-1s3.27-6.25 4-7.67c.02.06 1.34 3.56 1.34 13.73zm-10.85-12.7c2.42-.09 9.16-1.27 9.28-1.27-1 1.45-3.17 5.54-3.41 6.05a56.63 56.63 0 0 0-6.3-4.79 3.22 3.22 0 0 1 .43.01zm1.07 10.56c-.28-2.38-1.62-10.26-1.62-10.45a73.74 73.74 0 0 1 6.26 5c-.06.14-.81 1.53-.7 2 .06.23 2.73 2.34 2.85 2.46a4.18 4.18 0 0 0-.72 1.11 13.52 13.52 0 0 0-6.07-.12zm8 1.12a5.75 5.75 0 0 0-1.54-.84 4.83 4.83 0 0 0 .58-1c1 1 2.74 3.43 2.79 3.44v1a5.53 5.53 0 0 0-1.83-2.6zm2.34 4.79c-.12-3.2 0-6.88-.23-10.44.87-2.76 3.3-10.37 3.49-10.87.29-.77.52-1 1.35-.84 3.53.65 11.39 4.2 11.73 4.57 0 0-4.85 11.5-5.77 17.36-1.99-3.65-9.12-2.88-10.57.22z"/><path d="M172.16 46.88a.13.13 0 0 0 .13.23c1.64-.82 2.68-3.75.83-5s-4.42.08-5.6 1.59c-.41-3-3.57-6.74-6.86-6.24-3.65.55-4.77 4.69-3.45 7.71 0 .07.15 0 .12 0-1.05-3-.11-7.24 3.7-7.43 3.12-.15 5.84 3.43 6.19 6.23 0 .05.31.11.32.06a5.63 5.63 0 0 1 4-1.92c3.11 0 2.46 3.55.62 4.77zM169 14.29a29.08 29.08 0 0 0 7 2.47.16.16 0 0 0 .09-.31c-2.31-.78-4.63-1.43-6.88-2.39-.21-.06-.33.16-.21.23zm-.41 2.12a20.58 20.58 0 0 0 7 2.12.14.14 0 0 0 0-.27 45 45 0 0 1-6.91-2.08c-.11-.06-.25.16-.09.23zm6 4.19c-2.1-.65-4.25-1.11-6.33-1.84-.15-.05-.21.19-.06.25a28.44 28.44 0 0 0 6.32 1.84c.16.02.24-.2.07-.25zm-.78 2.4a25.2 25.2 0 0 1-6.18-1.81.13.13 0 0 0-.13.23 13.28 13.28 0 0 0 6.28 1.84c.14.02.22-.21.03-.26zm-139.33.91c-2 .22-10 1.85-12.12 2.33-.09 0-.08.17 0 .16a98.54 98.54 0 0 0 12.14-2.23c.15-.05.14-.27-.02-.26zm-.16 2.74a.1.1 0 1 0-.06-.2C30.64 27 27 27.89 23.4 28.79c-.14 0-.11.27 0 .25a56.9 56.9 0 0 0 10.92-2.39zm-9.83 5.6a51.93 51.93 0 0 0 10.28-2.65.16.16 0 0 0-.08-.3c-3.43.86-6.81 1.92-10.25 2.76-.12.03-.07.21.05.19zM30.05 34c-1.24.29-2.46.63-3.73.82-.13 0-.1.27 0 .25a16.19 16.19 0 0 0 3.75-.86.11.11 0 0 0-.02-.21zm129.83 61.42c2 1.26 10.27 5.58 12.4 6.53a.13.13 0 0 0 .13-.22c-2.06-1.27-10.37-5.64-12.45-6.51-.12-.05-.18.14-.08.2zm-.83 4.67a111.07 111.07 0 0 0 11.72 6.78.13.13 0 0 0 .13-.22c-3.75-2.48-7.84-4.5-11.72-6.77a.12.12 0 0 0-.13.21zm7.37 9.19c-1.87-1.46-3.9-2.72-5.86-4-.14-.1-.27.13-.13.22 1.93 1.36 3.82 2.8 5.84 4 .12.05.26-.13.15-.22z"/><path d="M187.37 167.4a4.86 4.86 0 0 0-1.79-.57 8 8 0 0 0 1.49-3.19 22.83 22.83 0 0 0-.4-10.93 11 11 0 0 0-5.56-6.5c2.27-5 7.9-15.51 7.93-16.33 0 0-1.34-9.86-1.62-10.27s-5.81-2.83-7.92-3.53c0 0-4.86 1.18-7.14 1.91a25 25 0 0 0-2.65-1.33c2.69-5.52 7.59-14.64 9.72-16.69a.2.2 0 0 0-.08-.32 98.26 98.26 0 0 1-19.24-9.82.16.16 0 0 0-.21.06c-1.54 2.61-3.12 5.21-4.59 7.85-.2-.54-.4-1.07-.63-1.59-2.53-5.88-9.07-13.83-15.42-13.29 0 0-1-1.7-1.51-2.47a.14.14 0 0 0-.19 0c-.9.5-2.06 1.2-3.24 1.94 0-.46-.34-3.18-.46-4.55a20.79 20.79 0 0 0-.87-4 8.61 8.61 0 0 0-2.82-4.76.15.15 0 0 0-.18 0c-2.4 1.83-5.37 2.91-7.93 4.52a.09.09 0 0 0 0 .15 22.05 22.05 0 0 0 1.94 4.22c.43.77.92 1.15 1.79.71.28-.14 1-.44.87-.77-.5-1.15 1.63-3.39 2.5-1.77a2.84 2.84 0 0 1 .11 1c.1 1.34 0 1.6.15 1.66a12.09 12.09 0 0 1 4.58 3.72c-2.43 1.53-4.8 3.12-4.78 3.17.32.79 1 2.34 1 2.35-.2.2-.39.4-.58.61-.52-.91-1.05-1.82-1.57-2.74a.15.15 0 0 0-.2 0 6.13 6.13 0 0 1-5.26.48 6.66 6.66 0 0 1-3.22-3.15.16.16 0 0 0-.18-.21c-.45.07-1 .28-1.26-.16-.11-.19 0-.74 0-1-.18-1.65-1-2.64-2.27-4.29a3.86 3.86 0 0 0 2.3-1.83 3.85 3.85 0 0 1 1-1.06c3.47-2.66 9.74-5.2 9.74-5.2 2.5-.84.88-3.27.88-3.27-1.94-3.21-6.64 0-6.64 0-1.82-2.59-6.48-1.26-6.48-1.26-5.08 1.49-3.76 5.31-3.76 5.31-2.3-1.59-3.23 1.07-3.23 1.07a5.11 5.11 0 0 0 6 6.33c1.47 2.44 2.34 3 2.19 5.57a.15.15 0 0 0 .15.15 5.27 5.27 0 0 0 1.43-.07 5.86 5.86 0 0 0 7.49 3.46c.61-.21 1-.6 1.49-.07l.19.23c-.47.3-.89.56-.89 1.15a19.15 19.15 0 0 0 .4 2.94c-2.79 4.51-4 11.54-3.63 16.16-2.28.08-20.3 1.25-20.32 1.29-.12.26-.25.55-.37.85-1.11-1-2.77-2.2-4.15-1.1-2.06 1.64-3.13 2.21-3.54 2.69-2.34-4-10-17.25-10.53-17.56-.21-.12-18.9-.17-22.27-.17a21.58 21.58 0 0 0-1.62 1.47L71 111.18a12 12 0 0 0-5.82 1.32c-.72-5.76-3.63-10.58-7.11-15.22-.66-.88-1.57-2.82-2.84-2.7-1.05.09-22.06 6.14-26.59 7.54a.12.12 0 0 0-.07.17c.7.91 3.52 5.71 6.58 11.17-6.79 2.31-19.59 7.76-19.6 7.76a.16.16 0 0 0-.07.26 65.46 65.46 0 0 1 12.09 20.83l-.49.15C17.46 145.52 12.21 156 15.43 166c1.83 5.73 3.64 8.62 9.09 12.41 5.21 3.62 11.68 3.51 17.67 2.25a20.42 20.42 0 0 0 7.67 7.84c11 6.34 27.73 1.68 36.19-7.21a22 22 0 0 0 13.36 6.72c8.89 1.15 17.91-3 24.81-8.31v-.07c10.53 6.44 25 8 38.61 1.82a23.1 23.1 0 0 0 8 5.66 11.85 11.85 0 0 0 9.79-.64c5.1-2.45 11.14-7.29 10.16-13.66a7.46 7.46 0 0 0-3.41-5.41zm-56.24-88.11c-.39-.24-1.3-.48-1.53-.88-.45-.77.44-2.62-.84-3.07-.94-.32-2.45.13-2.57 1.26 0 .55.25 1.25-.42 1.64-.41.24-1.28-.19-1.52-.5-.12-.14-1.93-3.95-2-4.18 2.07-1 7-3.73 7.19-3.86s.48-.46.67-.49c-.07 0 .13.1.3.26s.4.33.58.51c1.43 1.46 1.93 3.94 2.35 5.87s.1 4.08.68 6a11.33 11.33 0 0 0-2.89-2.56zM180.72 146c-4.53-2.19-10.66-2.17-16-.87.4-2.7-1.89-4.9-3.91-6.35a19.53 19.53 0 0 0-6.74-3.42c1.21-.67 6.26-4 4-12.16 1.33-1.41 1.12-4.61 1.07-6.22 0-.39 0-.78-.07-1.17 5.25 2.81 24.61 12.13 29.51 14.06.03.22-6.3 12.76-7.86 16.13zm-8.46-27.72s7.29-1.94 7.3-2c2.13 1 7.33 3.31 7.51 3.8.1.24 1.49 9 1.53 9.33-3.12-1.57-12.73-6-20.38-9.6.3-.72.78-1.75 1.37-3a26.14 26.14 0 0 0 2.67 1.49zm-12.84-27c.41-.72.52-1.1 1.32-.71.55.26 11 7.5 18.22 9.27a83.4 83.4 0 0 0-11.09 19.81c-3.83-1.8-7.12-3.35-8.79-4.19a61.25 61.25 0 0 0-1.3-7.6 86.72 86.72 0 0 0-2.34-9.8c1.35-2.06 2.68-4.52 3.98-6.72zm-29.93-5.66c1.86-1.26 6.51-4.13 6.93-4.37.78-.45 1-.65 1.59 0a3.9 3.9 0 0 1 .74 1.17c.11.66-.56 1.09-1 1.5L133 89c-.15.16-.81 1.1-1.06 1.11-.6 0-.82-.92-1.05-1.37-.48-1.02-.89-2.04-1.4-3.06zM127.76 88c0-.51.45-.71.77-1 .38.54.71 1.25 1 1.78a15.86 15.86 0 0 0-1.44 1.93c-.09-.65-.35-2.48-.33-2.71zm.17 19.44a.17.17 0 0 0 .16-.24c.37-3.8 0-6.8 2.29-11.39a.1.1 0 0 0-.18-.1c-2.13 3.2-2.4 7.61-2.43 11.37h-3.18c.3-3.09-.33-11.87 5.82-18.82.38.81.78 1.6 1.18 2.4.15.29.07.13 7.44-7.53 4.4-.31 8.16 2.92 10.88 6a27.27 27.27 0 0 1 5.8 11c1.08 4.1 3.07 13 3.12 17.47 0 1.42.1 3.88-.89 5.17-.92 0-14.71-.29-21.4-3.61a29.85 29.85 0 0 0 7.28-8.31A24.12 24.12 0 0 0 147 99c0-.09-.15-.12-.16 0-.91 6.39-2.72 11.72-7.33 16.72-2.51 2.72-4.1 3.51-5.38 4-3.31 1.34-11.35 3.17-23.29-3.12 0 0-8.61 3.11-6.28 16.46l6.3 24.94s.66.14 1.84.26c.19 1 .5 2 .78 2.91-.93.62-5.59.47-6-.53a27.61 27.61 0 0 1-1-2.72 15.76 15.76 0 0 0 3.61-.14l-6.47-26.68c-1.28-11.31 6.39-14.83 6.39-14.83l-3.35-1.48a47.72 47.72 0 0 0 .81-6.33c6.79.31 13.61-1.3 20.46-1.04zm-17.43 56.27a6.8 6.8 0 0 0 2.45-1.4c.63-.58.8-.71 1.68-.5a4.49 4.49 0 0 0 2.79 0c.69-.16.86-.17 1.06.55s.55 2.89.59 2.81c-.24.51-1.67.68-2.17.8a22.59 22.59 0 0 1-9.44-.09c-.96-1.51 2.15-1.88 3.04-2.17zm-3.3.78a1.43 1.43 0 0 0-.26.71c-.13 0-4.54-.15-4.75-.39-.35-.39.13-1.23.46-1.41.77-.4 1.71-.54 2.5-.92a4.64 4.64 0 0 0 2.07-1.61c.61 1 2.46 1.1 3.48 1.12a9.13 9.13 0 0 0 2.08-.13c-2.23 2.23-4.67 1.38-5.58 2.63zm6.61-3.48a16.54 16.54 0 0 0-.67-2.76c.66.06 4.45 0 5.27 0 0 .3-.3 2.26-.36 2.94-2.62.99-3.82-.19-4.24-.19zm-9.66-52.5c.72 0 3-.07 2.93.19.08.25-.51 4.22-.77 5.92a6.25 6.25 0 0 1-2.46-1.44 1.49 1.49 0 0 1-.53-1 13 13 0 0 1 .83-3.67zm-5.06.3c.23-.21.49-.59.78-.71 1.23-.48 2.65.56 3.62 1.47a9.93 9.93 0 0 0-.44 1.53 4.84 4.84 0 0 1-2.32-.85 22.64 22.64 0 0 1-4.52 1.22H96c0-.88 2.43-2.06 3.09-2.66zm1.55 2.53-2.37.07a6.87 6.87 0 0 0 2.45-.87 6.17 6.17 0 0 0 .51.35 6.23 6.23 0 0 0-.59.45zM53.48 95.52c.89-.29 1.78-.71 2.67-.1a9.14 9.14 0 0 1 1.57 2c3.34 4.45 6.34 9.61 7.07 15.22A15 15 0 0 0 59.1 118c-1.93 3.2-3.92 9.64-3.67 13.41-2.9-2.67-7.26-2.16-10.88-.28-1.75-7.18-14.32-27.61-14.7-28.8 1.31-.51 22.36-6.4 23.63-6.81zm-9.2 35.76a14.25 14.25 0 0 0-5.22 4.72l-.05-.05c-2-1.06-9-4.34-9.13-4.55-.44-.66 4.83-15.55 5.55-17.38 4.08 7.26 8.48 15.53 8.85 17.26zM34.88 114c-1.64 4.1-4.33 12.47-4.37 12.45-2.38-1.34-11.7-5.38-13.93-5.37.12-.08 14.59-5.8 18.3-7.08zm-18.74 7.4c2.46.11 14.3 5.45 14.36 5.42-.44 1.49-.87 3-1.29 4.49a.21.21 0 0 0 .14.25c1.76.73 8 4.23 9.52 4.65a8 8 0 0 0-.58 6.08 17 17 0 0 0-3.69-.72 13.5 13.5 0 0 0 1.5-6.42.12.12 0 0 0-.23 0c-.25 1.07-1.28 5.21-1.7 6.43a19.92 19.92 0 0 0-6.36.67c-3.39-11.86-11.93-20.68-11.67-20.83zm168.31 62.47c-7.3 5.17-13.22 5.5-21.27-2.54a15.24 15.24 0 0 0 6-4.45c.1-.15-.12-.31-.24-.19-6.28 6-15.9 8.4-24.42 8.27a41.63 41.63 0 0 1-23.8-7.94c-.07 0-.15.06-.09.11a35.35 35.35 0 0 0 3.28 2.32c-6.77 5-15 9-23.62 8.31-7.47-.63-14.47-4.95-17.44-12 0-.07-.14 0-.12.05a15.93 15.93 0 0 0 3 5.17c-10.39 10.81-32.54 15.34-42.24 1.23a17 17 0 0 1-3-11.29c0-.12-.19-.14-.21 0a15.06 15.06 0 0 0 1.72 9.42c-5.13 1.08-10.79 1.39-15.56-1.14a21 21 0 0 1-10-11.29c-1.68-4.62-2.24-9.22-.61-14 3.32-9.67 13.92-15.08 25.39-10.21.08 0 .15-.07.07-.12a14.17 14.17 0 0 0-2.84-1.27 8.39 8.39 0 0 1 .91-6.39 13.25 13.25 0 0 1 4.64-4.11c3.61-2.09 8.31-3.12 11.51.14a10.13 10.13 0 0 0 .62 2.51c.08.2.39.12.32-.09a14.08 14.08 0 0 1 0-8.28c1.36-5.4 3.06-9.86 7.77-12.68a16.48 16.48 0 0 1 7-2l.92 1.63 1.63-.91-10.58-18.82c5.73.42 21.55.08 22 .21 0 0 8 13.42 10.49 17.58a.16.16 0 0 0 .07.07.65.65 0 0 0 0 .31c-8.37.25-22.07.69-22.07.69v2.66l28.43-.39v-3.13h-.84a.71.71 0 0 0 .22-.31 3.32 3.32 0 0 0 1.54.37 5.4 5.4 0 0 0-.06 1.54c.08.55.15.53.67.84s1 .5 1.55.75c-8.6 1.33-9.09 11.5-9.09 11.5-.61 6.78 7.47 31.48 7.47 31.48s2.37.41 2.45.41a24.66 24.66 0 0 0 1 2.76 8.15 8.15 0 0 1-3.74 2.13c-1 .32-1.44.37-1.59 1.51s.21 1.16 1.07 1.29a11.74 11.74 0 0 0 4.18 0 1.76 1.76 0 0 0 .38.71 18.46 18.46 0 0 0 9 .32 8.64 8.64 0 0 0 2.72-.74c1.49-1-1.21-2.94-.24-7.69 1.13-.1 1.83-.22 1.83-.22l.59-25.13a19.63 19.63 0 0 0 8.08 4.38 48.2 48.2 0 0 0-4.56 2.61.1.1 0 0 0 .09.17c2.21-1.15 4.45-2.28 6.63-3.48a41 41 0 0 1 22.21-1c4.36 1.56 11.49 5.33 10.67 9.77a12 12 0 0 0-4.72 2.29c-.74.65-.61.72.14.22a21.54 21.54 0 0 1 11.34-3.2c4.25-.16 8.71.72 11.94 3.67s3.93 7.53 4 11.74a11 11 0 0 1-1.49 6.44 14.2 14.2 0 0 1-5 4 .18.18 0 0 0 .18.31 16 16 0 0 0 4.75-3.69 6.67 6.67 0 0 1 4.11 3c2.16 3.68 1.53 9.11-5.14 13.83z"/><path d="M158.93 154.47c-4.36-1.83-9.63.95-12.61 4.1-.08.08 0 .19.12.12 3.15-2.58 7.11-5.35 11.43-4.25a6.5 6.5 0 0 1 4.46 3.95 6.82 6.82 0 0 1-.92 6.31c-.08.12.11.27.2.15a6.76 6.76 0 0 0-2.68-10.38zm9 9.3c-1.33-.82-2.86 0-3.8 1-.25.27-1.74 1.79-.85 2a.08.08 0 0 0 .06-.14c-.58-.33 1.55-2.26 1.84-2.44a2.32 2.32 0 0 1 3.52 1c1 2.08.91 5-1.54 6a.13.13 0 0 0 .07.25c3.21-.65 3.2-6.15.7-7.67zM59.76 148.71c-1.88.22-5.66 3.24-6.14 5.74-3.71-2.28-8-.75-10.56 2.81-1.34 1.84-2.73 4.61-2.36 7 0 .1.18.08.17 0-.14-4.77 4.77-11.31 10.14-10.37a6.69 6.69 0 0 1 5.46 5.11c.12.66.36.49.27-.11a6.24 6.24 0 0 0-3-4.3c.51-2.14 2.63-3.85 4.45-4.91a3.1 3.1 0 0 1 4.15.52c.58.62 2 2.41 1.62 3.36-.06.15.17.22.26.11.65-.92-.65-2.48-1.18-3.18a3.72 3.72 0 0 0-3.28-1.78zm14.42 13.96c-2.69 0-5.92 2.17-5.14 5.21 0 .07.15.06.14 0-.29-3 2.43-5 5.21-4.82 3.08.18 5 2.65 5.29 5.55a.15.15 0 0 0 .3 0 5.87 5.87 0 0 0-5.8-5.94zm47.75-79.01a3.34 3.34 0 0 0 .87-1.66 12.67 12.67 0 0 1 .34 1.3.12.12 0 0 0 .23 0 5.77 5.77 0 0 0-.49-1.85c0-.11-.21 0-.22.06a4.74 4.74 0 0 1-.78 2.2s.03-.02.05-.05zm-3.35-5.08a.15.15 0 0 0-.11.26c.09.09.8 1 1 .73a.23.23 0 0 0 .06-.21 1.22 1.22 0 0 0-.95-.78zm1.14-1.23a1.4 1.4 0 0 0-2.07-.22.12.12 0 0 0 .17.17c.6-.47 1.2.1 1.75.31.15.05.24-.15.15-.26zm4.48-3.63a.13.13 0 0 0-.17.17.18.18 0 0 0 .3.13.18.18 0 0 0-.13-.3zm2.07-1.24c.15.28.32.19.34 0a.39.39 0 0 0-.06-.21c-.08-.14-.39.03-.28.21zm-.42 1.71c.2.18.38 0 .2-.2s-.34.07-.2.2zm-.93 2.01c-.2 0-.2.32 0 .3a.15.15 0 1 0 0-.3zm2.48-2.72c.1.37.6.19.31-.17-.12-.16-.35.01-.31.17zm.54-2.02a.18.18 0 0 0-.22.21.21.21 0 0 0 .31.16.2.2 0 0 0-.09-.37zm1.67-.38a.45.45 0 0 0 .08.17.12.12 0 0 0 .16 0 .34.34 0 0 0 .08-.17c.07-.26-.4-.26-.32 0zm1.27 2.42a.13.13 0 0 0 0 .26.13.13 0 0 0 0-.26zm.19 3.17a.14.14 0 0 0 0 .27.14.14 0 0 0 0-.27zm.71-1.67a.16.16 0 0 0 0 .32.16.16 0 0 0 0-.32zm-1.52-.31h-.27c-.1 0-.1.37.08.3a.44.44 0 0 0 .26-.16.11.11 0 0 0-.07-.14zm.62-2.69a.18.18 0 0 0 0 .35.18.18 0 0 0 0-.35zm-2.01 1.46a.17.17 0 0 0 0 .34.17.17 0 0 0 0-.34zM84.23 94.8c-2.86 0-14.88 0-18 .27-.06 0-.11.1-.11.1s5.93 10 8.61 15c.2.38.25.54.62.64.58.16 15-.4 17.46-.48a.15.15 0 0 0 .13-.22C85.8 98 84.51 94.8 84.23 94.8zm-9 15.69c-.37-.22-6.78-12.24-8.81-15.19 4.21-.27 17.26-.42 17.69-.25 0 0 7.79 14.08 8.23 14.62s-16.75 1.02-17.08.82zm-20.62-6.36a170.61 170.61 0 0 0-16.9 4.87.13.13 0 0 0 .07.26c2.79-.47 14-4 16.93-4.75a.19.19 0 0 0-.1-.38zm3.07 3.3a88.62 88.62 0 0 0-16.92 6.34c-.11.06 0 .24.11.18a90.14 90.14 0 0 1 16.93-6.06.24.24 0 0 0-.12-.46zm-.32 5.67a.18.18 0 0 0-.14-.32c-2.29.63-11.34 4.17-13.6 5a.13.13 0 0 0 .07.25c2.4-.64 11.64-3.82 13.67-4.93zm-.45 4.52c-1.78.64-9 3.81-11 4.52a.13.13 0 0 0 .07.24c2-.54 9.46-3.43 11-4.48.19-.09.11-.34-.07-.28zm60.54 46.77c.52-.41.21-1.35-.48-1.53a1.29 1.29 0 0 0-1.07.24 1.12 1.12 0 0 0-.25.42c-.14.37.07 2.23 1.8.87zm-.81-1.08a.49.49 0 0 1 .39.85c-.6.72-1 .1-1 0a.68.68 0 0 1 .61-.85zM19.34 73s-.91 3.76-3 5.12l5.28.26A7.33 7.33 0 0 1 19.34 73zM19 79.2a11.27 11.27 0 0 0 1.6 6.34c.05.08.15 0 .12-.07a15.9 15.9 0 0 1-1.61-6.27.06.06 0 1 0-.11 0zm3.13 8.38s-.12 0-.08.06a16.58 16.58 0 0 0 5.69 5.07.1.1 0 0 0 .09-.17 28.7 28.7 0 0 1-5.7-4.96zm8.25 6.57c-.05 0-.11 0-.05.08a18.41 18.41 0 0 0 8.37 2.57c.12 0 .16-.21 0-.23a25.38 25.38 0 0 1-8.32-2.42zM46.7 32.48s.95-3.63 2.41-4.1l-2.52-.15A9.12 9.12 0 0 1 49 21.39c.06-.07 0-.17-.1-.11a8.7 8.7 0 0 0-2.63 6.94l-1.69-.1s1.99 2.5 2.12 4.36zm4.92-12.63a12.65 12.65 0 0 1 5.27-.13.07.07 0 0 0 0-.14 9.73 9.73 0 0 0-5.35.11.08.08 0 0 0 .08.16zm7.89.44A10.86 10.86 0 0 1 65 26.24c0 .12.25 0 .21-.09a9.58 9.58 0 0 0-5.65-6c-.06.01-.11.11-.05.14zm7.99 17.84c0 .14.23.15.22 0A36 36 0 0 0 66 28.76c0-.09-.16-.05-.14 0a73.63 73.63 0 0 1 1.64 9.37zm.14 2.72c.44 3 .58 6 .91 8.95a.11.11 0 0 0 .22 0 54.43 54.43 0 0 0-1-9c.03-.12-.15-.07-.13.05zm1.27 19.26a.12.12 0 0 0 .23 0c.07-2.31-.11-4.63-.2-6.94a.07.07 0 0 0-.14 0c.02 2.31-.05 4.64.11 6.94zm.09 8.48a.11.11 0 0 0 .22 0c.19-2.22.1-4.51.08-6.75 0-.09-.14-.09-.15 0-.06 2.24-.23 4.52-.15 6.75zm.07 2.32a61.23 61.23 0 0 0 0 7.42.11.11 0 0 0 .21 0 59.26 59.26 0 0 0 0-7.42.09.09 0 0 0-.21 0zm.19 10.31c0 1.92-.12 3.86 0 5.79a.12.12 0 0 0 .23 0c.1-1.93 0-3.87 0-5.79a.09.09 0 0 0-.23 0zm.09 8.29a19.11 19.11 0 0 0 0 2.51.08.08 0 0 0 .16 0 23.35 23.35 0 0 0 0-2.51.1.1 0 0 0-.16 0zM127 31.13a64 64 0 0 1 8 .2l-.2 2.47s3.47-2.2 5.38-2a11 11 0 0 1-4.93-3.75l-.23 3a26.83 26.83 0 0 0-8-.1c-.13.05-.11.18-.02.18zm-10.48 2.46a45.2 45.2 0 0 1 8.48-2.17c.11 0 .09-.2 0-.19a30.83 30.83 0 0 0-8.49 2.27s-.04.1.01.09zm-8.74 4.73a34.16 34.16 0 0 1 6.14-3.81c.09 0 0-.2-.07-.17a19.75 19.75 0 0 0-6.15 3.87c-.06.05.02.16.08.11zm-7.21 6.99a19.7 19.7 0 0 1 5.35-5.3c.07 0 0-.17-.07-.12a15.71 15.71 0 0 0-5.39 5.36c-.04.07.07.13.11.06zm-6.09 8.38a26.62 26.62 0 0 1 4.43-6c.08-.07 0-.19-.12-.12a18.48 18.48 0 0 0-4.43 6 .07.07 0 0 0 .12.12zM89.38 63A27.32 27.32 0 0 1 93 56.42c.07-.1-.06-.24-.14-.14A17.35 17.35 0 0 0 89.22 63c-.03.09.12.12.16 0zm-4.03 12.27c.84-3 1.49-6 2.51-8.9a.08.08 0 1 0-.15 0 46 46 0 0 0-2.54 8.89c-.02.08.15.14.18.01zm-1.84 9.25c.52-2.29.82-4.62 1.19-6.94 0-.11-.15-.16-.17 0-.41 2.31-.89 4.63-1.14 7-.01-.01.1.01.12-.06zm-1.06 6.86a43.45 43.45 0 0 0 .45-4.56c0-.15-.2-.14-.22 0a38.23 38.23 0 0 0-.48 4.53.13.13 0 0 0 .25.03zm109.14 4.2a.07.07 0 0 0-.13 0 21 21 0 0 1-2.74 8.57L186 103s1 4.92.32 6.7c0 0 2-3.37 5.08-4.38l-2.24-1a16.39 16.39 0 0 0 2.43-8.74zm-.98-12.12a25.17 25.17 0 0 1 1 9.37c0 .1.13.1.14 0a20.33 20.33 0 0 0-1-9.41.07.07 0 0 0-.14.04zm-1.28-4.68a28 28 0 0 0-3.09-6.51.08.08 0 1 0-.14.09 54.66 54.66 0 0 1 3.11 6.45.06.06 0 1 0 .12-.03zm-5.06-9.62c.07.07.17 0 .11-.11-1.61-1.84-3.15-3.79-4.93-5.48 0 0-.15 0-.1.08 1.48 1.96 3.26 3.7 4.92 5.51zm-6.79-7.68a53.67 53.67 0 0 0-4.37-3.75c-.09-.07-.2.07-.12.15a53.63 53.63 0 0 0 4.38 3.71c.08.06.19-.04.11-.11z"/></g></svg>