<svg xmlns="http://www.w3.org/2000/svg" width="400" height="400" viewBox="0 0 200 200"><g fill="#a91c4e"><path d="M66.84 39h6.38c-5.29-2.19-3.88-7.86-3.88-7.86s-3.69 5.07-3.56 5.2A3.5 3.5 0 0 0 66.84 39zm-1.41-1.86-1.14 1.66 1.86.12c-.63-.44-.72-1.78-.72-1.78zm-9.75 24.01c8.46-.39 19.72 1 22.19 5.66 3.06 5.76-24.24 9.26-24.24 9.26-3.07.51-8.78 3.15-8.1 6.9s5.12 3.32 5.12 3.32c57.19-7.68 37.64-36.21 7.92-30.29-14.65 2.9-18.75-.78-18.75-.78-6.52-8.78 17-13.62 17-13.62S38.49 43.75 35 51.25c-2.09 4.39.92 10.82 20.68 9.9zM18.51 21.73a1.75 1.75 0 0 0-.85 1.82c.69 2.11 3.62.89 2.83-.89a1.61 1.61 0 0 0-1.98-.93zm1.26 2.36c-.68.43-1.8.25-1.9-.56a1.49 1.49 0 0 1 .41-1.19c1.01-1.22 2.91.87 1.49 1.75zm4.94-2.36a1.82 1.82 0 0 0-.84 1.82c.59 2.24 3.61.89 2.83-.89a1.63 1.63 0 0 0-1.99-.93zM26 24.09a1.23 1.23 0 0 1-1.9-.56 1.32 1.32 0 0 1 .41-1.19c.99-1.22 2.88.87 1.49 1.75zm5.19-2.54a1.87 1.87 0 0 0-.85 1.82c.45 2.13 3.62.89 2.83-.89a1.61 1.61 0 0 0-1.98-.93zm1.26 2.36c-1.27.79-2.63-.37-1.49-1.75s2.9.84 1.49 1.75zm117.34.78s-1.33-3.31-2.7-3.71c0 0-.89.38-2.06 3.85l1.29 1s.55-2.52 3.47-1.14zm-19.15 13.1c.2-.17.48-.26.69-.43a1.2 1.2 0 0 0 .53-1.08.13.13 0 0 0-.25 0c-.11 1-1.24.92-1.61 1.7-.24.48.17 1 .59 1.16.14.07.28-.1.17-.21-.33-.34-.67-.65-.12-1.14zm4.03-1.88c-.25-.2-.59 1.05-.45 1.27.29.46.67-1.07.45-1.27zm-4.42-1.57a4.13 4.13 0 0 0-.58 1.24c0 .12.16.18.25.1a4 4 0 0 0 .56-1.24.14.14 0 0 0-.23-.1zm4.37.55a2.86 2.86 0 0 1 .76.93c0 .15.25.13.29 0 .18-.59-.38-1.36-1-1.19a.14.14 0 0 0-.05.26zm-3.7-1.34c.13 0 .18-.16.1-.25a1 1 0 0 0-1.49.16.12.12 0 0 0 .13.18 9 9 0 0 1 1.26-.09zm3.29 9.21a13.62 13.62 0 0 1-1.15.78v.11a2.78 2.78 0 0 0 1.68-1 .14.14 0 0 0-.13-.23 6.31 6.31 0 0 1-3.6-.18.09.09 0 0 0-.07.17 4.89 4.89 0 0 0 3.27.35zm-2.42-2.11c.5.69 1.84.44 2.57.35a6.37 6.37 0 0 0 3.54-1.53c.1-.09 0-.22-.13-.17a16.56 16.56 0 0 1-2.63 1c-.59.14-2.35.53-2.91.05-.23-.23-.64.02-.44.3zm-.26 3.95a7.42 7.42 0 0 0-.1 1.34c0 .11.13.15.21.08a1.31 1.31 0 0 0 .2-1.5.19.19 0 0 0-.31.08zm46.81.38-4.92-1.47-2.55 4.47 4.09 1.09 3.38-4.09zm-4.6 5.5-3.9-1.41-3 4.99 3.45 1.02 3.45-4.6zm-4.6 6.39-3.2-.89-2.3 4.47 2.62.64 2.88-4.22zm18.01-6.63-4.99-4.34-3.2 3.68 3.45 3.69 4.74-3.03zm-6.74 4.18-3.15-3.28-3.28 3.45 2.73 2.81 3.7-2.98zm-5.37 3.92-2.34-2.36-2.9 3.13 1.66 1.98 3.58-2.75zm14.73 13.21 1.83-5.47-3.32-1.05-2.05 5.48 3.54 1.04zm-9.12-3.11 4.13 1.56 1.9-5.26-4.56-1.06c-.29.73-.01-.14-1.47 4.76zm-4.32 9.14 2.63 3.8 5.78-3.51-2.72-3.29-5.69 3zm-12.37-4.6 4.16-1.15-1.41-2.96-3.58 1.1.83 3.01zm1.66 5.3 4.93-1.85-1.91-3.22-4.04 1.37 1.02 3.7zm2.5 6.68 6.31-2.55-2.89-3.87-4.83 1.76 1.41 4.66z"/><path d="M194.92 61.15c-.67-1.64-4.59-9.64-4.61-9.65l1.24-.84s.07-.21 0-.24c-1.67-1.48-8.45-7.1-8.92-7.31.13-.2-.09-.32-.12-.33-1.92-.2-9.77-1.23-9.8-1.22s-9.56 17.51-11 21.37a5.73 5.73 0 0 0-.86 2.64 34.89 34.89 0 0 0-8.27-10.23c-3.14-2.57-7.3-4.88-11.41-5.27.57-2.06 1.69-6.22 2-7.22a5.61 5.61 0 0 0 4.35.79c5.41-1.07 4.94-8.82 3.62-11.34s-5.42-9.33-15.9-10.44c-10-1.06-7.41 5.63-5.56 6.94-.44.83-.6 1.49 0 2.16a16.46 16.46 0 0 0-3 6.41c-.15-.29-.3-.59-.47-.89a.1.1 0 0 0-.19.06 3 3 0 0 0 .49 1.62c-.51 2.71-.62 4.82 1.37 6.53.79.67 1.95 1.05 2.13 2.2a5.9 5.9 0 0 1-.32 2.68c-19.34-1.29-21.36-3.35-28.67-7.53l-2.56-1.49C98 35 97.13 29.47 96.41 23.93l3.59-2.41s1.32-3-1.88-3l-2.57 1.08c-.24-1.26-.49-3-1.33-3.87S91.1 15 89.92 15c-6.19-.15-30.47-.45-36.43-.51 0-1.32-.47-6.23-.62-7.35a.15.15 0 0 0-.16-.14c-1.42-.14-4.32-.36-4.34-.35l-1.45.47.68 7.29c-4.91-.05-36.43-.12-36.43-.12-1.71.08-6.72.75-6.12 5.82.67 5.71 9.33 84.53 9.46 84.65s1 5.54 8.7 4.52a11.14 11.14 0 0 0 .37 3c.05.18-.12.14 3.73-.31l-13.88 45.1c1.59 1.44 1.48 1.37 1.59 1.36 2.14-.2 2.19-.15 2.26-.36 2.39-7.85 13.93-42.8 15-46.72.24 0 .35-4.06-3.55 79.82 1.65 1.35 1.56 1.31 1.66 1.31l5.26-.26a.2.2 0 0 0 .2-.21c0-3.06.58-16.61.39-18.12 10.47-2.11 56.25-13 60.92-14.4l4.38 14.2 2.09.34c.11 0 .15.08.44-.08a29.66 29.66 0 0 1 3.68-1.67.16.16 0 0 0 .11-.2c-4.93-17.39-17.67-62-19.17-66.93 4.89-.57 9.76-1.19 14.62-1.81a.21.21 0 0 0 .21-.21c0-.92-.21-2.9-.27-2.94 4.26-.68 5.16-3.18 5.2-7.39a28.8 28.8 0 0 0 3.28 2.3c.13.07 1-1.29 1.4-1.86a6.61 6.61 0 0 0 1.32 3.46c-8.47 51.49-3.34 85.57-3.34 85.57l1.16.3c.32 4.66-3.23 5.33-4.83 4.67-2-.83-1.36.56-1.36.56s4 5.71 9.08 2.56l.43.09.08 1.12 2.33.43s1.87-6.54 2-7.39l1.75.47c.18-.07 8.78-48.27 8.78-48.27-1.73-6.08-4.94-19.17-4.83-23.9.06-2.13 1-.13 1-.13-.51 7.54 18.38 72.3 18.38 72.3h1.3c.59 4.38-2.21 5.64-4.05 5.41-2.16-.28-1.17.9-1.17.9s5.33 4.47 9.43.08h.44l.37 1.05 2.42-.19s.1-5 .1-7.51h.71l.06-1c2.16-53.53-1.2-78-1.27-78.48 3.86-1.77 6.88-5.44 8.79-9.11a7.49 7.49 0 0 0 3.24-4.38 23.88 23.88 0 0 0 1.22-7.18c.35 1 .66 1.85.88 2.41a.15.15 0 0 0 .23.06c3-1.43 5.88-2.94 8.87-4.33.95 1.52.95 1.6 1.11 1.52a79.13 79.13 0 0 0 9.49-6.13c.06 0 0-.25 0-.28a57.79 57.79 0 0 0-4.62-6.07c.73.3 5.79 2.69 7.65 3.37 0 0 .16 0 .18-.08.38-.85 4.46-9.94 4.22-10-2.94-.74-6.23-1.74-9.24-2.18 3.13-.47 6.26-1 9.38-1.46.18-.09.18-.28.1-.35zm-12.35-17.91c.3.4 7.18 5.77 8.73 7.23-4 2.74-20.73 12.41-25.16 15.07-.15-.27-.4-.73-.45-.8a2.18 2.18 0 0 0 1.25-.31.7.7 0 0 0 0-1.06l-.57-.39c1.69-1.91 16.12-19.64 16.2-19.74zm-9.67-1.45c1.34.37 7.69 1.1 9.44 1.28-1.27 1.66-14.69 17.55-16.09 19.81-1.13-.7-2.48-1.24-3.73-.6a3.57 3.57 0 0 0-.38.25c2.12-4.2 8.79-17.47 10.76-20.74zM161.19 66c.22-1.12.23-2.62 1.33-3.3 1.46-.91 3 .24 4.31 1 .58.33-1.49.81-1.79.83a2.7 2.7 0 0 0-1.38.4.18.18 0 1 0 .22.28 1.61 1.61 0 0 1 .44-.25 2 2 0 0 1-.55 1.19.13.13 0 0 0 .06.24c.36 0 .88-1.25.73-1.5a3.83 3.83 0 0 1 .83-.07c0 .08.45 1.06.69 1.16-1.47.51-3 1-4.37 1.6-.27-.26 0 .88.48 2.73a15.39 15.39 0 0 0-1.88-1.16 22.46 22.46 0 0 0 .88-3.15zm-33.9-9.79a3.1 3.1 0 0 0 2.64 1c1.11-.1 3-.93 2.87-2.27a3.16 3.16 0 0 1 .61.09 3.81 3.81 0 0 0 2.12 4.13 4.19 4.19 0 0 0 4.29-.82 9.83 9.83 0 0 1-5.67 2.25 6.6 6.6 0 0 1-6.86-4.42zM138 62.58c1.35.73 5.95 3.53 2.63 5-1.89.83-4.29-.94-5.57-2.19a10.55 10.55 0 0 1-2.76-4.45 11.7 11.7 0 0 1 5.7 1.64zm-6.5-2a6.75 6.75 0 0 1-3.35 4c-1.39.79-3.56 1.82-5.23 1.63-2.65-.3 1.19-3.78 2-4.32a7.57 7.57 0 0 1 5.72-1.68c.1.09.14.18.83.41zm4.69-1.57a3.64 3.64 0 0 1-2.53-4 7.29 7.29 0 0 0 7.49-4.55c1.47 1.7.72 5.06-.52 6.9-.96.89-2.77 2.17-4.47 1.69zM130 29l8.07 2.71a7 7 0 0 0-1.28-3.24 9.29 9.29 0 0 1 2.45 5.74c-.21-.22-2 0-5.15-1.23-1.59-.67-4.95-1.89-4.09-3.98zm.22 20.41a5.43 5.43 0 0 0 .18-3c-.32-1-2.22-1.63-3.07-3s-.73-3.13-.4-4.77c.14.19 2.08 1.95 3 1.9.24 0 .36-.4.12-.45a6.19 6.19 0 0 1-3-2.17 30.11 30.11 0 0 1 2.88-6.7 8.77 8.77 0 0 0 2.2 1.26 19.66 19.66 0 0 0 6.94 2 .3.3 0 0 1 .19.25c.19 2.83 1.34 6.19 3.6 7.91a59.93 59.93 0 0 0-2.18 8.28 7.54 7.54 0 0 1-5.68 3.79 4.59 4.59 0 0 1-5.31-4.07 12.05 12.05 0 0 0 .52-1.28zm-.74.65c-.46 2.26 1.16 4.09 3.17 4.8a.11.11 0 0 0-.1.12c0 1.29-1.94 2-3 2a3.09 3.09 0 0 1-2.47-1.26 7.13 7.13 0 0 1 .64-5.77zM96.11 24.13c.26 5.42 1.39 10.83 2.09 16.2-1.36-.79-2.73-1.57-4.11-2.31-.1-1.89-.63-7.28-1.13-11.77zM85.12 40c-1.31-.42-2-2.82-.84-3.72a3.63 3.63 0 0 1 3.62-.07c.07.07.21.08.23 0a7.35 7.35 0 0 1 .75-2.38c.39-.73 1.32-2.24 2.51-1.33a2.43 2.43 0 0 1 .53 1.5 6.42 6.42 0 0 1-1.58 4.82c-2.12 2.65-5.51 5-8.11 4.84-.52 0-.77-.65-.75-1.15a2 2 0 0 1 .87-1.34c1.18-1 2.68-.7 2.72-.93.17.02.2-.24.05-.24zm.48-7a3 3 0 0 1-.72-.88s-.32-.83 0-1.08c0 0-1.79-.34-1.34-1.35 0 0 .2-.88 4.32-.2v.07c1 .56.82 3.71.86 3.74a8.24 8.24 0 0 0-.9 2.6c-1.22-.6-3.37-.64-4.19.57A5.45 5.45 0 0 1 82 33.91l2.6-1.62a1.55 1.55 0 0 0 .9.82.06.06 0 0 0 .1-.11zm5.27-1a1.89 1.89 0 0 0-1.85 1 12.38 12.38 0 0 0-.16-2.36 1.4 1.4 0 0 0-.69-1.11l4.06-2.73c.52 4.31 1.18 9.09 1.59 11.14-.66-.34-1.33-.68-2-1 .52-1.5.7-4.71-.95-4.94zm-8.66-6.77c-17.4.77-61.76 1.36-64.63 1.42 0 0-.21 0-.2.12 1.9 16.85 4 33.68 5.61 50.56 0 .07.13.21.17.21 1.37.07 9-1 8.86-1.63C29.7 59.63 28.37 43.28 26.56 27c5.06 0 45.55-1.06 54.73-1.43l-11.23 4.71s-1.41 7.16 4.6 8.24l7.11-4.43a2.76 2.76 0 0 0 .44 1 8.73 8.73 0 0 0 1.33 1.71 3 3 0 0 0 .95 3.2 3.86 3.86 0 0 0-3 1.64 1.38 1.38 0 0 0 .74 2.18A8.49 8.49 0 0 0 87 42.37a34.2 34.2 0 0 0 8 15 .1.1 0 0 0 .11 0c0 10.17 1.57 20.28 7.17 28.62.22 2 1.13 7.55 1.13 7.55-10.57 1.08-74.91 7.57-80.82 8.29-1.16-8.63-9.26-76.78-10.11-82.55 20.68.57 73.21.45 79 .5 0 .4.07.88.13 1.42zm-60.06 7.14q.32 3.18.68 6.37c-1.19.06-2.38.13-3.55.23-.27-2.2-.56-4.39-.85-6.58 1.23.08 2.48.01 3.72-.02zm-3.74-.14q-.37-2.73-.76-5.44c1.33.06 2.67.1 4 .13.14 1.72.3 3.45.47 5.18-1.23.01-2.48.02-3.71.13zm4.49 7.12c.27 2.42.55 4.85.83 7.27l-3.53.17q-.42-3.75-.88-7.48a35.46 35.46 0 0 0 3.58.04zm.88 7.65c.19 1.68.74 6.57.82 7.35l-3.55.33q-.39-3.78-.82-7.55c1.19-.02 2.37-.07 3.55-.13zm.87 7.75c.29 2.62.59 5.23.89 7.85l-3.64.47c-.26-2.69-.54-5.37-.81-8.06 1.18-.01 2.37-.15 3.56-.26zm1 8.38c.06.45.56 5.09.75 7a25.9 25.9 0 0 0-3.7.55l-.72-7.26c1.15-.11 2.39-.18 3.62-.29zm.79 7.34c.21 2.07.44 4.14.72 6.19a34.57 34.57 0 0 0-3.82.63c0-.09-.61-6.22-.62-6.36a31.45 31.45 0 0 0 3.67-.46zm.41-.06a39.56 39.56 0 0 0 4.1-.62q.38 3 .77 6c-1.36.08-2.65.57-4.24.82-.21-2.07-.48-4.14-.68-6.2zm-.1-.41c-.22-1.93-.74-6.56-.79-6.94a29.34 29.34 0 0 0 4-.63q.42 3.5.86 7c-1.13.17-3.82.57-4.07.57zm-.84-7.48-.84-7.85c.75-.07 3.85-.42 4-.47q.45 4 .93 7.92c-1.38.12-2.74.27-4.09.44zM25 54.31c-.1-.93-.63-5.82-.79-7.33 1.28-.08 2.56-.17 3.83-.27.2 0 0-1.05.93 7.2-.08-.02-.05.01-3.97.4zm-.83-7.72q-.37-3.63-.77-7.26a33.53 33.53 0 0 0 4-.44c.25 2.49.51 5 .77 7.48-.17-.06.05.01-3.98.22zm-.84-7.88c-.23-2.12-.47-4.23-.72-6.35 1.37 0 2.78.16 4.14.07.19 2.06.38 4.12.59 6.17-1.34.01-2.65.05-3.99.11zm-.75-6.62c-.21-1.73-.43-3.45-.67-5.17 1.46 0 2.92.06 4.37.06l.45 5.19a25.28 25.28 0 0 0-4.13-.08zm72.51 25a41.07 41.07 0 0 1-7.82-14.86 12.69 12.69 0 0 0 4.41-5c1.9 1.29 4 2.24 6 3.38-2.34 4.71-2.55 10.66-2.57 16.44zM52.4 7.29c.4.28.42 5.54.71 7.16h-3.92l-.78-7.55a19.16 19.16 0 0 1 3.99.39zM17.14 157c-.45 1-1.1.91-2.11 1-.11 0 14.48-46.47 14.44-46.35l2.55-.3c-1.58 3.91-14.5 44.78-14.88 45.65zm8.09-45.13c-.73.09-1.28.29-1.59-.47a7.63 7.63 0 0 1-.2-2.16c5-.37 31.87-3.46 31.89-3.47l.22 2.33s-28.89 3.6-30.32 3.78zm45.08-4c0-.34-.09-.69-.14-1 4-.25 8-.6 12-1l14.1 48.5c-7.8 2.2-16 2.95-23.68 5.46-2.29-17.1-5.08-34.16-6.81-51.33 1.45-.14 2.89-.26 4.35-.37.07-.01.2-.13.18-.22zm-1.25-.13c-4 .29-7.89.74-11.82 1.29l-.56-7c3-.27 10.81-1.24 11.44-1s1.62 5.59 1.64 6c.05.88-.03.7-.7.75zm-10.12 1.49 7.15 52.2c-9.79 2.87-19.66 4.75-29.48 7.49 1.07-19.53 2-38.81 1.91-58.38 5.65-.69 17-2.09 17.07-2.13l.09 1a.25.25 0 0 0 .27.23c1.05-.1 1.99-.24 2.99-.37zm48.51 62.66c-.89.49-3.33 1.54-3.77 1.79L99 158.57s-52.71 12.51-63.12 14.93c-.08 0-.33 16.58-.48 17.52s.24.8-5 1.07c-.15 0 4-81.14 4-81l3.88-.47c-1 55.6-2.65 58.78-2 58.91.27.17 25.84-6.09 31.6-7.86a.16.16 0 0 0 .11-.2L61.19 109c1.44-.17 2.88-.33 4.32-.47 1.66 17.24 4.56 34.31 6.72 51.48a.19.19 0 0 0 .34.09c4.19-.9 25.63-5.84 25.63-5.84l-14-48.6c1.41-.16 2.82-.31 4.23-.48 2.46 9.43 18.98 66.06 19.02 66.75zM103 102.44c-.15.8-1 .65-1.77.74-1.42.18-25.22 2.78-31.13 3.5-.14-.9-.3-1.79-.49-2.67 8.32-.9 32.61-3.67 33.29-3.77a14.57 14.57 0 0 1 .1 2.2zm4.25-5.14c-1 1.88-3 2.36-5 2.62-3.59.46-25.43 2.93-32.75 3.82a21.56 21.56 0 0 0-1-3.16c-4.53.38-9.08.76-13.58 1.41-.08 0 .24 3.42.24 3.42-1.1 0-33.63 3.79-33.53 3.78a6.56 6.56 0 0 1-4-5.21c-.55-4.22-9.08-84.79-9.08-84.79a4.55 4.55 0 0 1 .45-2.9 5.07 5.07 0 0 1 2.2-1.79c12.14.4 78.17.72 80.88 1 1.85.2 2 .42 2.43 1.81.27.79.47 1.61.66 2.42l-2.85 1.2a8.54 8.54 0 0 0-.32-1.51c-20.71-.2-79.78-.46-79.78-.34.34 5.24 9.5 79.12 10 82.82 0 .06.12.18.17.18 18.32-2 81.23-8 81.21-8.37 0-1.18-.86-5.6-1.18-7.45l.65.91a30.46 30.46 0 0 0 4.93 5.29 10.62 10.62 0 0 1-.72 4.84zm4.35-2.62c-13.84-8.31-16.42-25.87-16-40.63a33.56 33.56 0 0 1 2.58-13.24c9.61 5.41 11 7.74 29.37 9.07-2.21 3.44-.7 8 2.45 10-2.18-.2-4.31.94-6 2.26-.72.56-3.63 3.17-2.28 4.29.52.44 1.7.16 2.28.07a12.2 12.2 0 0 0 5.56-2.45c-1.34 1.81-2.82 3.52-4.19 5.34a1.94 1.94 0 0 0-2.83.89 1.87 1.87 0 0 0 2.34 2.57 2.17 2.17 0 0 0 .78-3.23c2.06-2.81 4.78-5.36 6.1-8.64-2.22 8.45-6.82 14.32-20.13 33.7zm7.2 92.55c-4.45 1.88-6.11-1.66-6.27-2 0-.23.12-1.93.09-2.54l7.08 1.87c-.26.89-.59 1.78-.87 2.67zm-4.07-90.67a9 9 0 0 1-1.45-3.56c12.8-18.53 17.15-24.21 18.68-31.7-.69 7.5 1.26 15.36 3.29 22.5 1.87 6.58 4.22 13 8.31 18.54-16.43 4.52-27-4.16-28.8-5.78zm38.86 88.22c0 .49-.11 2.24-.15 2.63a4.71 4.71 0 0 1-6.43 0c-.07-.78-.15-1.55-.2-2.34zm-2.88-78.91c-4 .23-6.07-2.37-8.3-5.77-3.3-5-5.31-10.85-6.92-16.62-2.75-9.88-3.19-14.82-3.31-22.18a34.94 34.94 0 0 0 4.34 12.17c-1.13.82-.87 2.83.5 3a2.05 2.05 0 0 0 2.08-1.57 1.71 1.71 0 0 0-2.27-1.58 41.06 41.06 0 0 1-4.09-10.46c1.55 3.22 6.4 6.85 8.72 4.58 1.56-1.53-.33-3.22-1.6-4.07a16.27 16.27 0 0 0-5.41-2.5c2.65-.44 5.39-1.5 6.72-4 .8-1.48 1.73-4.89.39-6.42a28.92 28.92 0 0 1 15.48 9.87 38.5 38.5 0 0 1 3.68 5.53 4.31 4.31 0 0 1-.07.91c-.85 3.41-2.56 6.52-3.94 9.74a8.78 8.78 0 0 0-6.85 3.77c-.12.18.17.34.29.17a9.18 9.18 0 0 1 6.43-3.62c-2.15 5-3.17 10.64-1.26 15.75.58 1.54 1.39 3.29 3 4a4.35 4.35 0 0 0 3.41-.12c-1.98 2.71-4.65 7.86-10.99 9.42zm10-9.58c-5.31 1.12-6.24-7.44-6-11 .45-5.95 3.67-11.2 5.43-15.94a12.86 12.86 0 0 0 2.14 1.38c1 3.59 2.8 9.19 4.11 13-.07 4.79-.97 11.58-5.65 12.56zm7.09-9.43c-1.2-3.07-5.18-15.86-6.07-19.16 1.52-.48 3-1.09 4.49-1.67 3.32 5.55 6.88 11 10.3 16.47a77.08 77.08 0 0 0-8.69 4.36zm19.26-9c-3 2.17-6.14 4.12-9.31 6.07-3.57-6.19-7.42-12.34-11.51-18.19a9.09 9.09 0 0 1 .91-.47h.4a18.85 18.85 0 0 0 3.71 1.73l-1.93 1 2.4 3.13 3.67-2.42 1.51.62-4.45 2.75 2.83 3.61 5.14-3.29-1.88-2.39 3.74 1.55c1.43 2.25 3.22 4.25 4.8 6.33zm7.31-12.58c-.83 1.25-3.25 7.85-4.06 9.58-1.59-1-21.58-9-22.63-9.63 2.43-.19 4.86-.49 7.29-.83l-.58 1.67 4.46 1.64 1.29-4 4.75-.71c3.11 1 6.38 1.53 9.51 2.31zM167.72 65c1.81-.88 3.59-1.85 5.35-2.86l.37 1.29 5.22-1.17-1.32-2.65 1.63-1 1.58 3.47 3.64-.83-2.19-4.43 2-1.19 2.42 5.14 5.49-1.41-3-6.86 1.32-.89c0 .17 1.69 3.61 2.18 4.67.75 1.62 1.43 3.3 2.3 4.87-18.16 2.97-19.29 2.74-26.99 3.85z"/><path d="M152.92 76.27a4.66 4.66 0 0 1 3.31 0c.09 0 .21-.11.11-.19a3.25 3.25 0 0 0-3.51.06c-.08.04.01.14.09.13z"/></g></svg>