<?xml version="1.0" encoding="UTF-8"?>
<svg id="a" data-name="Layer 1" xmlns="http://www.w3.org/2000/svg" viewBox="0 0 513.93 841.78">
  <defs>
    <style>
      .b {
        fill: #e9c700;
      }
    </style>
  </defs>
  <path d="M110.28,284.05l-4.48,59.67,11.05-.68c4.5-13.44,9.13-26.84,16.75-38.9,12.73-20.17,33.13-33.74,55.64-40.94,44.42-14.22,136.79-14.66,177.66,9.3,25.86,15.16,37.23,42.68,42.42,71.1l11.41,1.57,1.45-55.88-.71-1.45c-13.16-5.32-14.84-24.14-1.49-30.3,21.67-10,33.87,24.86,10.08,30.39l-1.44,57.64c.33,4.16,5.52,6.33,8.34,9.68,15.75,18.72,13.68,69.63-9.24,83.05-6.41,3.75-12,3.93-19.09,5.06-3.09,16.39-8.31,33.09-19.24,45.99-20.62,24.35-54.1,28.93-84.01,32.75l-.72,7.92c9.5,1.97,19.46,2.07,29.13,3.4,20.25,2.8,42.21,7.01,59.31,18.5,12.67-8.26,25.58-10.98,40.07-5.45s26.55,20.96,26.92,36.36c.05,2.11-1.3,7.41-.81,8.85,1.15,3.35,12.09,16.33,15.07,21,19.1,29.94,42.15,85.03,39.33,120.68-3.18,40.18-40.28,60.84-77.65,50.3-2.2-.62-8.24-3.55-9.3-3.64-1.66-.15-3.45,2.33-5.68,2.69-4.42.71-11.78.11-16.17-.68-.19,5.94,1.63,10.77-4.84,13.55-47.74,14.46-96.74,25.7-144.19,41.04-2.57.83-4.23,2.47-6.78,3.31-7.95,2.59-20,2.6-27.62-.92-24.62-12.93-52.25-21.02-78.35-31.2-15.35-5.99-36.02-12.77-50.03-20.61-6.21-3.47-4.41-6.57-4.56-13.1-8.23,1.66-17.63-.26-25.61.7-2.8.34-5.22,1.91-8.6,2.21C25.47,779.55-.15,765.66,0,734.1c.12-25.04,23.99-69.29,37.03-91.14,2.84-4.76,12.29-17.22,13.6-21,1.41-4.08-1.4-7.3.23-11.32,2.18-5.41,7.95-1.97,8.71-2.42.66-.39,5.49-8.16,6.55-9.52.54-.68,1.83-.5,2.84-1.66,5.65-6.47,3.98-14.22,6.94-21.91,9.03-23.43,41.39-35.01,63.11-21.96,21.18-17.49,49.8-20.84,76.33-22.75v-8.66c-31.69-2.87-68.82-9.81-87.51-38.27-8.66-13.2-12.05-28.53-14.9-43.85-31.55-.54-35.46-34.96-32.27-59.45,1.72-13.25,6.02-24.55,17.09-32.65l3.65-62.89c-13.84-1.92-16.55-21.61-5.65-29.22,19.33-13.5,37.12,20.09,14.53,28.59ZM101.98,260.25c-8.09,1.85-7.98,17.74,2.73,17.74,13.28,0,11-20.87-2.73-17.74ZM241.14,261.75c-76.25,4.23-113.94,36.69-122.28,113.42-4.37,40.22-2.17,105.02,39.29,125.61,41.82,20.76,135.97,19.38,181.02,8.27,29.37-7.24,48.59-20.5,57.97-50.15,14.62-46.21,15.67-142.91-26.92-175.31-30.39-23.13-92.13-23.89-129.09-21.84ZM435.89,272.11c0-5.01-4.06-9.07-9.07-9.07s-9.07,4.06-9.07,9.07,4.06,9.07,9.07,9.07,9.07-4.06,9.07-9.07ZM115.17,350.22c-21.6-.58-27.42,22.41-28.14,39.98s3.67,40.01,24.88,42.93c-3.5-27.61-1.97-55.63,3.25-82.91ZM429.06,427.77c12.83-14.34,13.5-48.32,4.3-64.59-4.82-8.52-12.33-11.88-22-11.52,3.08,27.75,3.21,56.06-1.44,83.62,7.19.86,14.37-2.18,19.13-7.5ZM296.77,523.23c-23.99,5.44-49.38,4.36-73.49,0l-.04,6.01c23.26,8.88,50.28,8,73.83.56l-.3-6.57ZM297.49,533.33c-23.45,8.94-50.35,10.09-74.22,2.16-1.95,9.87,5.36,11.3,13.1,13.21,14.52,3.58,30.72,3.52,45.3.15,8.39-1.94,18.34-4.81,15.83-15.52ZM215.34,537.65c-30.22,1.92-67.32,6.44-83.73,35.57-4.82,8.57-7.65,18.65-10.02,28.16,33.54,12.54,69.56,24.85,93.76,52.69,3.34,3.84,7.05,8.5,8.64,13.35,1.01.21.92.14,1.49-.46,2.21-2.32,3.75-5.29,6.42-7.84,3.43-3.28,8.56-7.04,12.46-9.88,38.99-28.43,86.03-41.17,133.85-44.54-3.47-16.81-.47-33.9,10.09-47.56-24.95-15.16-55.17-16.76-83.6-19.48.76,8.89-6.23,12.98-13.5,15.69-16.44,6.13-55.51,7.3-70.34-2.83-4.64-3.17-5.84-7.39-5.52-12.86ZM452.44,587.39c2.28-29.88-37.51-49.51-58.31-26.09-10.24,11.53-12.07,28.03-8.69,42.66,2.93.4,5.64-1.79,8.33-.04,1.81,1.18,2.78,5.99,4.95,8.02,1.43,1.33,3.26,1.45,4.36,2.85,2.27,2.87.88,8.99,6.48,7.94,2.32-.43,2.14-5.94,2.9-8.66,4.59-16.32,22.47-30.87,39.99-26.68ZM115.16,599.65c2.94-14.69,8.06-29.34,18.01-40.73-20.47-12.2-53.34,4.31-52.59,29.19l34.58,11.54ZM462.53,608.29c-2.44-3.28-10.49-14.48-14.08-15.13-2.61-.47-8.74,1.3-11.33,2.34-15.52,6.24-26.55,28.41-12.79,41.64,4.46-16.6,20.98-28.91,38.2-28.84ZM66.16,610.45c43.11,17.42,87.48,34.11,128.91,55.25,5.36,2.74,18.34,11.84,23.49,11.12.79-.11,1.53-.37,1.77-1.2.73-2.5-5.38-10.71-7.18-12.86-32.48-38.92-86.26-50.31-131.59-67.39-1.99-.28-5.33.25-5.32,2.85,11.78,2.63,22.64,8.11,33.64,12.86l31.94,17.42-39.45-15.67-29.58-10.13c-3.63-.79-4.85,5.37-6.64,7.78ZM392.62,615.51l-3.19-4.8c-46.83,3.65-94.11,12.76-133.67,39.12-10.11,6.73-23.21,15.75-28.17,26.96,2.91.95,4.7.07,7.4-.89,13.72-4.86,28.06-13.02,42.15-18.39,39.13-14.92,81.18-24.67,121.98-34.07-.2-4.21-.72-6.73-5.37-6.5-11.74.58-34.47,7.16-46.67,10.32-26.06,6.74-55.01,15.57-79.61,26.34-4.25,1.86-8.84,5.37-13.2,5.54,20.31-13.75,45.3-22.24,68.86-29.16,22.49-6.6,46.12-12.38,69.5-14.46ZM484.15,647.23c-4.26-9.24-8.33-19.01-13.83-27.61-3.48-5.45-4.38-7.12-11.69-6.2-10.07,1.26-30.25,17.1-30.66,27.76-.09,2.34,7.31,13.77,9,16.86,1.49,2.73,2.99,5.7,3.96,8.66,1.88.35,1.11-.3,1.49-1.02,1.19-2.25,2.01-4.33,3.66-6.42,8.18-10.31,25.46-14.82,38.07-12.02ZM95.08,773.49c.04,4.24-1.56,6.27,2.52,8.46,8.38,4.5,20.53,8.53,29.64,12.17,27.51,11,55.44,21.12,83.25,31.35,1.74.64,4.62,3.14,4.57.5l-16.42-149.41c-.34-1.16-1.38-1.49-2.25-2.08-9.86-6.66-28.95-14.33-40.37-19.45-32.01-14.36-64.87-27.38-97.77-39.52,2.68,24.95,10,49.02,15.21,73.45,10.57-1.25,21.5-3.93,31.84.23,9,3.62,14.42,13.56,8.03,22.15-.9,1.21-5.44,4.2-4.63,5.09,16.58,2.18,20.38,22.38,3.6,28.13,16.61,15.89-1.61,26.3-17.2,28.93ZM404.16,629.93c-15.23,2.83-30.38,6.62-45.41,10.45-32.14,8.19-65.21,17.28-95.61,30.52-2.65,1.15-15.71,6.55-16.45,8.05l10.46,149.96,140.55-39.99.7-6.88c-13.19-1.75-51.48.22-50.28-20.37.2-3.4,2.28-6.76,4.47-9.24,1.14-1.28,3.03-.94,2.56-2.82-16.05-5.96-11.26-23.79,3.6-27.41-3.66-2.74-7.68-4.3-9.19-9.18-3.41-11.06,6.35-18.18,15.82-20.59,12.85-3.27,26.01-2.06,38.77.94v-63.44ZM61.11,668.14l-8.63-36.76-18.74,32.43c9.4-1.78,19.09-.5,27.38,4.33ZM447.4,704.89c-5.37-19.44-12.99-38.23-23.49-55.44l-11.82-17.36-.63,56.13c11.19,2.87,20.47,9.22,27.81,18.02l8.13-1.35ZM500.72,691.93c-1.72-7.2-3.94-14.33-6.47-21.28-1.51-4.15-4.32-12.59-6.33-16.02-1.62-2.76-9.65-3.22-12.81-3.1-10.45.4-31.32,9.99-30.28,22.41.58,6.89,7.47,16.94,7.61,24.48,11.85-13.19,33.41-16.63,48.27-6.49ZM15,703.46c7.56-6.66,16.88-9.93,27.04-9.4,1.96.1,6.34,1.62,7.52,1.12.86-.36,4.03-3.62,5.56-4.57,3.01-1.86,6.2-3.39,9.24-5.17,2.22-9.76-6.8-14.19-14.9-16.12-3.85-.92-14.39-2.22-17.73-.67-1.76.82-7.41,13.05-8.72,15.79-2.95,6.18-5.52,12.63-8.02,19ZM241.28,682.55c-12.33,2.92-25.31,3.28-36.74-2.88l16.97,151.35c2.84,5.91,20.01,4.92,25.4,3.14,2.62-.87,4.69-1.91,5.16-4.94l-10.79-146.67ZM505.77,736.62c1.07-10.24,1.27-24.34-2.32-34.08-4.65-12.63-26.44-11.96-36.86-7.64-4.2,1.74-10.55,6.13-11.27,10.72,8.76,2.08,18.15,1.67,26.66,4.7,6.89,2.45,13.52,7.31,17.6,13.39l6.18,12.91ZM84.75,694.3c-7.86.81-15.6,2.9-16.97,11.86-.48,3.15.11,8.51,3.44,9.9,3.75,1.56,22.4-1.81,26.97-3.27,16.21-5.19,12.49-16.98-2.93-18.61-3.24-.34-7.25-.21-10.51.12ZM66.16,694.81c-24.23,2.91-26.87,34.13-20,52.81,3.71,10.08,13.03,21.63,25.05,19.27-2.28-4.34-3.43-8.81-2.56-13.73.3-1.69,2.05-5.01,1.9-5.98-.08-.52-1.55-.83-2.11-1.63-5.1-7.31-5.07-17.04-.84-24.77-7-2.97-7.21-11.45-5.25-17.9.91-2.98,2.84-5.23,3.82-8.07ZM410.65,776.27c13.39,2.11,24.55-12.91,28.06-24.19,7.22-23.21-1.94-46.77-24.84-55.81-2.2-.11-.49.77.14,1.31,22.98,19.56,17.74,59.63-3.37,78.7ZM373.74,697.91c-22.23,2.15-24.45,17.11-1.56,20.6,5.5.84,14.72,2.13,20.07,2.3,4.3.14,5.95-.69,7.61-4.71,1.41-3.42,2.71-13.85-.34-16.3s-21.31-2.33-25.78-1.9ZM43.81,699.86c-29.37-2.33-45.2,29.04-31.56,53.56,4.25,7.64,12.19,13.22,20.75,13.84-15.84-14.15-17.6-42.45-1.79-57.31,1.12-1.05,14.36-8.6,12.6-10.1ZM396.23,773.38c11.42,2.14,19.78-13.01,22.89-22.15,4.67-13.74,4.93-37.15-7.39-47.05-.85-.68-5.59-4.24-5.42-1.8.63,8.85,1.54,15.67-4.8,23.07,6.19,9.22,3.74,20.32-4.35,27.38,2.59,6.51,3.22,14.6-.92,20.55ZM53.18,767.64c-13.9-8.62-17.67-28.21-16.56-43.62.3-4.18,1.92-8.42,1.8-12.62-13.47,11-15.47,28.99-7.22,43.98,4.43,8.06,11.73,15.04,21.63,13.69l.36-1.43ZM471.65,720.3c-6.79-7.21-18.38-9.65-27.55-6.05-.51.74,2,6.22,2.37,7.82,4.58,19.94.81,39.18-14.2,53.49,11.46,3.24,26.64,7.09,36.76-1.06,15.56-12.53,16.06-39.91,2.62-54.18ZM477.68,774.83c6.7-3.77,13.38-7.77,17.59-14.48,11.46-18.28.67-42.36-20.47-45.35.18,1.12,1.55,1.04,2.49,2.18,10.24,12.4,13.1,31.7,6.89,46.49l-6.5,11.15ZM92.68,721.7c-3.79.09-17.69,1.25-20.07,3.71-3.35,3.47-2.38,15.24,2.39,17.15,5.9.35,13.66.37,19.62-.18,7.03-.66,26.12-4.1,20.7-14.93-2.51-5.03-17.41-5.88-22.65-5.76ZM370.86,726.75c-4.36.4-13.94,2.13-16.84,5.51-3.24,3.76-1.77,7.77,1.9,10.45,5.2,3.8,26.22,6.55,32.78,6.1,10.34-.71,12.86-16.24,7.09-20.03-4.31-2.84-19.55-2.52-24.93-2.02ZM76.35,749.7c-2.8,4.36-2.13,16.04,3.88,17.18,2.42.46,9.53.25,12.26.04,6.24-.47,25.15-5.09,18.69-14.43-4.91-7.11-26.96-1.7-34.84-2.8ZM391.81,755.47c-7.5.12-29.39-4.34-34.51.97-3.08,3.19-3,8.18.49,11.08,5.44,4.53,23.98,7.23,30.72,5.73,6.34-1.41,5.62-13.19,3.3-17.77Z"/>
  <path d="M285.36,215.51c-.38.61-.07,4.66-.43,6.42-3.23,15.4-35.05,16.75-40.08.36-.57-1.86-.48-5.41-1-6.21-.72-1.11-6.23-1.56-8.73-6.41s-.35-7.47-1.15-10.33c-.4-1.41-3.49-4.13-4.04-6.81-.7-3.36-.18-6.02,1.69-8.8.8-1.19,3.5-3.06,3.64-3.99.17-1.17-1.84-5.94-2.48-7.36-6.61-14.49-20.53-20.75-26.62-36.81-20.13-53.08,35.42-101.88,86.8-81.06,37.21,15.07,50.7,64.52,24.71,95.63-4.11,4.92-9.99,9.18-14.04,14.07-2.4,2.9-8.65,12.7-8.29,16.21.17,1.62,3.57,3.79,4.17,6.67s.36,6.75-1.27,9.22c-.7,1.06-2.37,1.73-2.75,3.02-.92,3.15.58,5.97-1.69,9.84-2.12,3.62-8.14,5.89-8.43,6.35ZM287.97,180.63c5.76-26.58,33.21-33.23,35.5-62.16,3.42-43.26-35.9-71.83-76.39-57.67-31.74,11.1-49.25,52.11-29.14,80.99,3.3,4.74,7.46,7.79,11.07,12,6.75,7.86,12.31,17.18,13.84,27.61l13.57,2.3.62-44.96c-.38-1.12-6.84-2.89-8.79-4.18-10.34-6.87-11.81-24.52,4.2-22.95,6.23.61,9.43,7.09,10.39,12.67.72,4.21-1.64,11.49,5.73,7.05-2.04-9.13,8.68-25.42,18.37-18.18,8.98,6.71-.54,25.84-11.82,24.73l-1.42,44.67c.23,1.57,12.86-1.15,14.26-1.92ZM257.14,131.05c.81-3.99-2.96-16.21-8.64-13.36-5.38,2.71,3.67,14.4,8.64,13.36ZM275.16,131.05c6.18.07,10.32-7.19,7.97-12.67-6.59-1.41-8.47,7.72-7.97,12.67ZM267.95,138.98h-4.33s-.72,44.7-.72,44.7h4.33s.72-44.7.72-44.7ZM291.73,187.28c-17.31,3.6-36.58,6.6-53.32-.72-3.56,8.51,5.3,9.75,11.65,11.04,9.95,2.02,23.64,1.91,33.49-.84,5.16-1.44,9.3-3.23,8.18-9.48ZM287.18,206.52c.82-.95,2.52-4.57.6-4.79-15.16,5.09-31.11,4.31-46.49.69-.27,2.2.7,3.94,2.35,5.29,8.14,6.67,36.58,6.9,43.54-1.19ZM278.76,217.57c-9.42,2.82-16.92,2.06-26.34.74-2.7-.38.59,3.58,1.47,4.31,6.8,5.69,23.21,5.51,24.87-5.05Z"/>
  <path d="M189.9,71.42c1.59,1.91,1.08,6.06-1.68,6.1s-24.6-13.63-25.36-16.19c-.55-1.88,0-3.67,1.83-4.43l2.39.2,22.82,14.32Z"/>
  <path d="M270.59,0c1.63-.13,3.52,1.51,3.83,3.1.68,3.51.31,14.69.05,18.76-.2,3.19-.04,9.75-4,9.77-2.71,0-3.52-2.32-3.74-4.64-.4-4.12.17-16.32.69-20.76.28-2.4.27-5.99,3.17-6.23Z"/>
  <path d="M352.63,121.68c-3.83-.67-5.6-5.34-2.36-6.73,2.31-.99,16.29-.72,19.69-.51,5.09.3,13.15.54,7.89,7.24-7.55-.93-18.07,1.25-25.22,0Z"/>
  <path d="M365.78,62.7c4.11-.82,6,2.55,3.46,5.67-4.69,2.15-20.29,12.79-24.5,12.23-2.78-.37-3.55-4.03-1.51-5.81l22.54-12.09Z"/>
  <path d="M158.26,112.53c4.86-.56,16.01-.68,20.53.66,2.71.8,2.72,5.42,0,6.19-1.12.32-5.59.76-7.07.86-3.82.25-15.39.2-18.63-.82-1.81-.57-1.5-4.01-.54-5.37.84-1.04,4.16-1.33,5.69-1.51Z"/>
  <path d="M189.94,153.52c1.53-.25,2.56-.06,3.42,1.32.63,1.6.77,3.32-.37,4.68-.77.92-17.99,11.19-19.43,11.57-4.77,1.25-6.69-2.16-3.56-5.74,4.98-2.05,15.34-11.07,19.95-11.83Z"/>
  <path d="M225.25,41.48c-.72.82-3.27,1.12-4.36.8-1.79-.53-10.89-16.94-11.54-19.49-.86-3.37-.23-6.81,4.04-5.52,2.15.65,9.81,17.49,12.24,20.29.52.95.2,3.25-.38,3.92Z"/>
  <path d="M328.99,17.26c2.37-.72,4.64.52,4.61,3.13-.03,2.34-12.7,21.18-15,21.86-2.87.86-5.53-1.25-4.16-4.16,2.77-2.79,12.24-20.12,14.55-20.83Z"/>
  <path d="M337.31,155.02c.97-.97,2.9-.99,4.17-.6,1.7.51,17.49,11.53,18.73,13.03,2.49,3.04-.7,6.42-3.4,5.61-1.33-.4-16.64-10.76-18.18-12.15-1.71-1.55-3.57-3.64-1.33-5.89Z"/>
  <path class="b" d="M287.97,180.63c-1.41.77-14.03,3.49-14.26,1.92l1.42-44.67c11.28,1.11,20.79-18.02,11.82-24.73-9.69-7.24-20.4,9.05-18.37,18.18-7.36,4.44-5-2.85-5.73-7.05-.96-5.58-4.16-12.06-10.39-12.67-16.02-1.57-14.55,16.07-4.2,22.95,1.95,1.29,8.41,3.07,8.79,4.18l-.62,44.96-13.57-2.3c-1.53-10.43-7.09-19.74-13.84-27.61-3.61-4.21-7.77-7.25-11.07-12-20.11-28.89-2.6-69.9,29.14-80.99,40.49-14.16,79.81,14.41,76.39,57.67-2.29,28.94-29.74,35.58-35.5,62.16Z"/>
  <polygon class="b" points="267.95 138.98 267.23 183.68 262.9 183.68 263.62 138.98 267.95 138.98"/>
  <path class="b" d="M257.14,131.05c-4.97,1.04-14.02-10.65-8.64-13.36,5.68-2.86,9.45,9.37,8.64,13.36Z"/>
  <path class="b" d="M275.16,131.05c-.5-4.95,1.38-14.08,7.97-12.67,2.34,5.48-1.79,12.74-7.97,12.67Z"/>
  <path d="M236.63,299.49c31.52-1.34,98.13-3.42,122.86,17.2,27.47,22.89,25.24,79.09,20.8,111.66-7.03,51.51-26.47,64.83-76.67,69.65-34.11,3.28-100.02,2.69-130.79-11.9-39.94-18.93-37.73-76.3-32.34-113.79,8.7-60.52,40.52-70.46,96.13-72.82ZM240.42,306.45c-57.58,2.15-86.54,11.36-93.53,73.69-3.97,35.35-5.53,86.02,33.69,101.1,33.94,13.05,107.87,13.78,143.62,6.33,41.95-8.74,48.62-38.99,50.45-77.85,1.33-28.23,2.72-73.64-24.3-90.38-23.77-14.72-81.77-13.94-109.92-12.89Z"/>
  <path d="M158.95,573.16c11.69-1.68,24.84.33,36.54.56,40.71.82,81.88-.33,122.52,1.44,12.44.54,23.46-2.43,29.74,11.34,1.42,3.12,5.53,16.83,1.13,18.08-4.85,1.38-3.49-6.1-4-8.72-2.74-13.96-7.87-15.14-21.04-15.7-39.54-1.68-80.56.22-120.39-.71-11.86-.28-27.44-2.25-38.95-1.46-9.25.63-13.42,4.02-15.98,12.85-.83,2.87-1.58,12.72-2.71,13.86-1.92,1.93-4.69.17-4.74-2.5-.19-10.87,5.63-27.28,17.88-29.04Z"/>
  <path d="M373.17,559.28c1.43,1.47-8.33,13.28-10.08,11.53-.76-2.55,8.22-13.44,10.08-11.53Z"/>
  <path d="M200.67,659.02c2.28,2.3,4.55,5.56,6.73,8.04.11.54-.7.46-1.06.35-5.1-1.6-15.68-13.36-21.77-15.72l-24.01-14.54c14.96,3.04,29.39,11.04,40.11,21.87Z"/>
  <path d="M431.54,399.24c1.11,2.43-4.98,14.03-6.83,13.69s.05-3.77.44-4.6c1.38-2.94,3.79-7.26,6.39-9.1Z"/>
  <path d="M100.03,384.82c.48,4.89-1.8,9.34-2.81,13.99l-2.22.43c-.99-.97,1.52-10.01,2.32-11.73.58-1.24.86-2.94,2.71-2.68Z"/>
  <path d="M306.72,380.4c39.4-6.56,32.97,58.28-2.9,45.59-18.97-6.71-17.62-42.17,2.9-45.59Z"/>
  <path d="M209.76,377.03c39.4-6.56,32.97,58.28-2.9,45.59-18.97-6.71-17.62-42.17,2.9-45.59Z"/>
</svg>