<?xml version="1.0" encoding="UTF-8"?>
<svg id="Layer_1" data-name="Layer 1" xmlns="http://www.w3.org/2000/svg" viewBox="0 0 729.64 854.48">
  <defs>
    <style>
      .cls-1 {
        fill: none;
        stroke: #000;
        stroke-linecap: round;
        stroke-linejoin: round;
        stroke-width: 2px;
      }

      .cls-2 {
        fill: #32325f;
      }

      .cls-2, .cls-3, .cls-4 {
        stroke-width: 0px;
      }

      .cls-3 {
        fill: #e9c700;
      }

      .cls-4 {
        fill: #fff;
      }
    </style>
  </defs>
  <g>
    <path class="cls-3" d="M361.84,251.75c-.35-14.24,1.33-27.87,4.75-41.3.92-3.6,3.08-7.11,3.08-10.65,0-4.99-3.25-6.05-7.52-3.29-1.13.73-2.53,1.67-3.73,1.56-4.69-.39-9.34-1.28-14.03-1.75-2.66-.27-5.43.22-8.04-.23-2.22-.38-4.49-1.32-6.39-2.55-2.65-1.72-5.65-3.01-7.41-.08-1.15,1.92-1.1,6.83.06,7.49,6.23,3.55,6.06,9.73,6.92,15.19,1.74,10.94,2.73,22.01,4.05,33.23-7.85-.61-10.46-3.64-11.24-9.79-.55-4.38-1.78-8.99-3.97-12.78-3.98-6.89-8.73-13.36-13.47-19.78-8.87-12-14.12-25.42-14.97-40.22-.56-9.67,3.42-18.33,9.08-26.1,15.63-21.47,43.01-29.32,67.6-18.95,23.71,10,40.17,26.46,43.8,52.99,1.96,14.3-2.97,26.97-12.01,37.91-4.96,6-10.62,11.43-16.11,16.97-4.2,4.24-7.51,8.59-8.08,15-.64,7.1-2.58,7.91-12.39,7.13Z"/>
    <path class="cls-2" d="M441.98,261.16c1.84.87,3.86,1.49,5.5,2.65,19.52,13.85,39,27.76,58.4,41.76.99.71,1.24,2.43,1.84,3.68-1.56,0-3.55.63-4.61-.1-7.58-5.17-15.04-10.53-22.41-16-10.35-7.69-20.64-15.47-30.87-23.32-3.02-2.32-5.75-5.01-8.61-7.53.25-.38.5-.76.76-1.15Z"/>
    <path class="cls-2" d="M439.38,127.75c2.83-2.47,5.49-5.18,8.52-7.36,14.54-10.48,29.21-20.78,43.78-31.23,3.43-2.46,6.62-5.26,10.27-8.18,1.93,6.55-2.48,9.48-6.5,12.28-12.14,8.48-24.43,16.74-36.63,25.13-3.53,2.43-6.92,5.08-10.51,7.4-2.35,1.52-4.97,2.62-7.47,3.91-.48-.65-.97-1.29-1.45-1.94Z"/>
    <path class="cls-2" d="M253.63,186.11c-29.73-1.72-59.47-3.43-89.2-5.15.04-.56.07-1.12.11-1.69,7.76-3.92,84.37.82,89.09,6.83Z"/>
    <path class="cls-2" d="M195.86,287.92c2.19-1.87,4.19-4.02,6.59-5.58,15.5-10.08,31.07-20.05,46.64-30.02,1.8-1.15,3.63-2.38,5.62-3.07.99-.34,2.8.12,3.44.88.47.56.05,2.85-.65,3.28-19.43,11.79-38.94,23.45-58.47,35.09-.75.45-1.81.38-2.73.55-.14-.37-.29-.75-.43-1.12Z"/>
    <path class="cls-2" d="M203.39,54.06c5.75,5.46,11.65,10.77,17.21,16.43,8.75,8.89,16.76,18.58,28.55,23.9,1.27.57,1.74,2.91,2.58,4.43-1.74.15-3.49.42-5.23.41-.71,0-1.45-.55-2.1-.97-17.42-11.07-30.38-26.51-42.86-42.43.62-.59,1.24-1.18,1.85-1.77Z"/>
    <path class="cls-2" d="M474.52,191c22.65-1.03,44.98-6.35,67.78-5.28.14.69.28,1.37.42,2.06-1.65.6-3.25,1.55-4.95,1.75-17.42,2.01-34.84,4.04-52.29,5.73-3.69.36-7.52-.66-11.28-1.04.11-1.07.21-2.15.32-3.22Z"/>
    <path class="cls-2" d="M345.08,69.63c-5.4-23.06-1.72-48.02-14.66-69.63,6.07,4.29,9.33,10.34,10.68,16.88,2.48,11.98,3.98,24.17,5.87,36.27.63,4.05,1.43,8.08,1.71,12.16.11,1.6-.99,3.29-1.54,4.94-.69-.21-1.37-.42-2.06-.63Z"/>
    <path class="cls-2" d="M409.7,171.63c-4.98-22.47-31.43-48.87-61.85-47.68-21.33-.76-36.96,9.91-47.53,28.9-7.88,14.16-5.68,28.65.78,42.25,4.89,10.29,12.07,19.48,17.93,29.33,1.62,2.72,2.16,6.08,3.22,9.14,1.31,3.78,2.91,7.49,3.89,11.35.96,3.75,2.21,7.78,1.68,11.45-.72,4.98-.12,8.7,3.54,12.28,2.38,2.33,4.78,4.96,6.13,7.93,2.68,5.87,7.38,7.7,13.15,7.84,5.65.14,9.28-2.83,11.52-7.9.62-1.41,1.63-2.99,2.9-3.71,7.55-4.28,9.79-8.39,7.7-16.94-.78-3.2.54-4.34,2.31-6.42,2.31-2.72,3.59-6.34,5.2-9.63,1.39-2.86,2.04-6.27,4-8.61,4.76-5.66,10.44-10.56,15.13-16.27,10.43-12.68,13.85-27.26,10.29-43.33ZM394.12,211.15c-4.22,5.11-9.05,9.74-13.73,14.46-3.58,3.61-6.4,7.32-6.89,12.79-.55,6.05-2.19,6.74-10.56,6.08-.3-12.14,1.13-23.76,4.05-35.2.78-3.07,2.63-6.06,2.62-9.08,0-4.25-2.77-5.16-6.41-2.8-.96.62-2.16,1.42-3.18,1.33-4-.34-7.96-1.09-11.96-1.49-2.27-.23-4.63.18-6.85-.2-1.89-.33-3.83-1.12-5.44-2.17-2.26-1.47-4.81-2.57-6.32-.06-.98,1.64-.94,5.82.05,6.38,5.31,3.02,5.16,8.3,5.9,12.95,1.48,9.33,2.32,18.76,3.45,28.32-6.69-.52-8.92-3.1-9.58-8.35-.47-3.73-1.52-7.67-3.38-10.89-3.39-5.87-7.44-11.39-11.48-16.86-7.56-10.23-12.03-21.67-12.76-34.28-.47-8.24,2.92-15.62,7.74-22.25,13.32-18.3,36.66-24.99,57.62-16.15,20.21,8.52,34.24,22.55,37.34,45.17,1.67,12.19-2.53,22.99-10.23,32.31Z"/>
    <path class="cls-4" d="M355.42,243.85c-2.51,0-5.05.02-7.59-.01-.59,0-1.17-.18-1.97-.32-1.75-12.97-3.5-25.88-5.43-40.18,6.93.82,13.41,1.59,19.9,2.36-1.72,13.41-3.29,25.63-4.9,38.15Z"/>
    <path class="cls-4" d="M363.13,253.73c-4.27.56-8.57.96-12.79,1.77-1.29.25-2.36,1.62-3.53,2.48,1.1.74,2.14,1.99,3.3,2.12,3.87.44,7.8.37,11.68.73,1.27.12,2.47.94,3.71,1.43-1.19,1.1-2.31,3.04-3.59,3.14-4.34.36-8.74.17-13.11,0-3.31-.14-6.67-.29-9.87-1.03-1.68-.39-3.06-2.05-4.58-3.14.9-1.09,1.69-2.31,2.72-3.25,2.42-2.21.39-3.23-.98-4.62-.86-.87-1.41-2.04-2.1-3.07,1.33-.28,2.68-.87,3.99-.79,6.61.42,13.22.98,19.82,1.55,1.79.16,3.57.54,5.35.82-.01.62-.02,1.23-.04,1.85Z"/>
    <path class="cls-2" d="M388.56,199.17c-.39-3.11-1.19-5.6-.93-7.97,1.51-13.7-2.96-24.43-14.56-32.33-7.9-5.38-15.66-10.77-25.06-13.29-1.22-.33-2.09-1.99-3.12-3.03,1.35-.8,2.66-2.16,4.06-2.27,1.87-.15,3.91.42,5.71,1.13,12.15,4.77,22.77,11.92,31.5,21.59,7.86,8.71,9.2,27.22,2.41,36.18Z"/>
    <path class="cls-2" d="M338.38,145.74c-2.19,1.7-3.42,3.36-4.76,3.46-1.03.08-2.22-1.79-3.34-2.79,1.09-1.18,2.01-2.98,3.33-3.35.97-.27,2.47,1.31,4.76,2.68Z"/>
    <path class="cls-1" d="M389.93,196.9c.15-5.45.3-10.9.45-16.35"/>
  </g>
  <g>
    <g>
      <path class="cls-4" d="M426.75,606.56c7.44,3.08,14.89,6.16,22.12,9.16-2.32,4.88-4.27,8.99-6.11,12.85,6,1.39,11.47,2.65,16.93,3.92l-.17,1.29c-2.16,0-4.34.22-6.47-.05-2.93-.38-5.81-1.16-8.72-1.72-3.49-.68-4.29-1.64-3.38-5.08.83-3.14,2.06-6.18,3.32-9.85-4.15-1.44-7.9-3.36-11.85-3.94-3.67-.54-4.93-2.75-6.45-5.19.25-.46.51-.92.76-1.37Z"/>
      <path class="cls-4" d="M599.11,552.13c2.39,1.95,1.77,3.93.83,6.03-2.94,6.54-8.19,10.38-14.89,12.18-5.02,1.35-9.87,2.8-13.65,6.63-.34.35-1.14.25-2.54-.4.92-1.31,1.56-3.07,2.81-3.85,2.92-1.82,6.07-3.31,9.24-4.67,2.57-1.11,5.39-1.65,7.95-2.79,5.63-2.51,9.31-6.73,10.25-13.13Z"/>
      <path class="cls-4" d="M480.09,610.21c-6.1,13.39-.48,21.82,9.51,28.67-4.99,1.56-9.92-2.02-13.35-9.51-3.93-8.59-3.03-14.76,3.84-19.16Z"/>
      <path class="cls-4" d="M588.58,592.14c.72-1.04,1.21-2.52,2.2-3.01,2.04-1.03,4.29-1.88,6.54-2.19,8.78-1.22,17.95-.2,26.05-5.13-2.51,3.74-7.97,6.43-13.96,7.12-3.79.44-7.66.43-11.4,1.12-2.86.53-5.58,1.83-8.36,2.79-.36-.23-.71-.47-1.07-.7Z"/>
      <path class="cls-4" d="M524.4,600.47c-2.7-1.35-3.04-2.81-1.37-5.21,2.53-3.64,5.25-6.85,9.8-7.83,4.1-.88,6.04,1.12,5.24,5.27-6.87-2.42-9-1.24-13.68,7.78Z"/>
      <polygon class="cls-4" points="425.99 715.07 393.15 726.02 265.81 698.98 260.1 620.21 267.76 594.81 343.05 587.02 416.05 591.18 425.99 630.88 425.99 715.07"/>
      <path class="cls-4" d="M463.75,546.77c-27.66,1.61-50.87,2.47-67.97,2.97-40.67,1.17-61.55,1.72-88.73-.25-25.84-1.87-46.99-5.23-61.3-7.91-3.25-7.24-8.12-19.23-11.86-34.6-4.3-17.68-6.34-36.67-3.1-102.23.62-12.49,1.58-29.88,3.1-50.76,3.23-1.78,8.21-4.23,14.58-6.18,21.95-6.7,41.08-1.48,50.38.65,3.59.82,32.31.83,89.76.85,17.11,0,41.7-.12,71.68-.76,2.19,3.1,5.18,7.85,7.66,14.09,5.77,14.5,4.94,27.26,4.45,34.85-2.22,34.63-3.33,51.95-3.46,61.3-.4,29.77-.61,44.66,1.48,51.9,1.03,3.58,3.87,12.43.99,22.49-1.76,6.13-5.06,10.66-7.66,13.59Z"/>
    </g>
    <path class="cls-2" d="M60.19,832.21c1.04,1.54,2.86,3.49,4.42,3.58,6.06.33,12.07-.6,18.41-2.1-1.19-2.1-2.05-3.63-3.07-5.42h-18.84c-.07-.52-.14-1.03-.21-1.55,5.89-.82,12.18,1.2,18.05-1.12-.36-1.15-.42-1.97-.67-2.03-4.98-1.21-9.96-1.65-14.9.23-.07.03-.21-.14-.48-.33-1.2-8.25-3.75-16.16-9.67-24,34.78,10.92,69.04,10.26,103.61,5.82-.1-1.58-.22-3.33-.33-5.09l.73-.02c1.17,1.89,2.35,3.77,3.52,5.66.29-.17.59-.34.88-.5-.61-2.23-1.22-4.46-1.83-6.69,1.12.22,1.68.65,1.87,1.21,1.32,3.84,3.82,5.08,7.96,5.05,9.47-.08,18.96.49,28.43.79,1.02.03,2.04,0,3.06,0,.1-.41.19-.82.29-1.23-4.53-2.28-8.89-5.02-13.63-6.75-10.91-3.97-22.2-2.22-33.36-1.3-12.06.99-24.09,2.49-36.17,3.19-7.56.43-15.1-.58-22.69-1.45-14.9-1.71-29.55-3.96-43.88-8.35-.84-.26-1.63-.69-2.79-1.2,5.8-2.56,11.06-1.94,16.38-.25,2.53.8,5.12,1.5,7.74,1.88,6.4.93,12.82,1.75,19.25,2.4,2.53.26,4.9-.39,5.67-4.22-9.96-2.56-20.6-1.66-29.58-7.16,1.43-.31,2.83-.36,4.19-.14,4.24.71,8.44,1.7,12.7,2.23,2.94.36,5.99.38,8.92.02,1.02-.13,1.83-1.86,2.74-2.86-1.04-.56-2.03-1.43-3.13-1.61-2.45-.39-5.04-.08-7.42-.67-11.53-2.86-23.03-5.87-34.51-8.94-2.03-.54-3.83-1.24-5.18,1.46,1.13,1.75,2.28,3.54,3.44,5.33,3.32,5.16,2.31,8.57-3.41,10.74-3.52,1.34-7.17,2.31-11.04,3.54.75,1,1.39,1.95,2.12,2.81,8.15,9.56,14.57,20.13,18.97,31.92.92,2.47,1.94,4.98,3.41,7.15Z"/>
    <path class="cls-2" d="M46.46,752.89c-.57.46-.96,1.13-1.98,2.38,7.56,2.32,14.34,4.94,21.36,6.44,8.42,1.8,17.03,2.67,25.57,3.86,1.1.15,2.43.03,3.37-.47,1-.54,1.67-1.69,2.48-2.58-.88-.58-1.69-1.49-2.65-1.67-6.01-1.13-12.07-2.02-18.08-3.16-4.12-.78-8.19-1.86-12.29-2.8.07-.32.13-.64.2-.96.81.05,1.63.03,2.43.15,7.71,1.17,15.41,2.43,23.13,3.52,2.22.31,4.68.95,6.9-2.06-4.33-3.9-9.9-3.72-15.02-4.78-5.2-1.07-10.39-2.23-15.58-3.35.07-.39.13-.78.2-1.17,9.6-.27,19.17,2.86,29.85.9-3.69-4.29-7.78-4.78-11.87-5.33-10.26-1.4-20.51-2.86-31.47-4.4,1.1-.54,1.51-.91,1.92-.91,7.13-.04,14.26-.09,21.39-.01,6.65.07,13.31.33,19.96.42,2.4.03,4.57-1.22,4.73-3.49.08-1.11-2.18-2.42-3.44-3.58-.35-.32-.89-.56-1.36-.58-2.92-.12-3.23-2.11-2.66-5.09-8.78-.73-17.06-1.41-25.34-2.1.03-.41.05-.81.08-1.22h9.26v-5.75c-4.76-.33-9.22-.64-13.68-.95,9.12-3.71,18.84-.32,28.6-3.86-2.92-2.7-5.79-3.38-8.72-3.42-10.29-.15-20.58-.21-30.87-.11-4.49.04-5.9,1.72-5.73,6.17.06,1.48.32,2.99.7,4.43.94,3.53.05,6.92-1.13,10.1-2.19,5.86-1.81,7.03,4.65,9.09-4.2,1.58-3.75,4.3-2.58,7.41,1.29,3.43.67,6.53-2.33,8.96Z"/>
    <path class="cls-2" d="M507.5,806.98c9.27-.38,18.41-2.69,27.79-1.61,4.43.51,8.9.59,13.35.9,9.41.65,18.81,1.52,28.23,1.93,5.57.24,11.17-.22,17.13-.38-.2-2.38-.33-3.96-.48-5.88-28.61-.63-56.82-1.26-85.02-1.89.06-.62.12-1.24.17-1.86,4.92-.21,9.84-.53,14.77-.62,9.95-.19,19.91-.51,29.86-.34,11.81.21,23.6.91,35.4,1.31,1.37.05,2.76-.47,4.17-.73-1.26-5.07-2.32-5.92-6.91-6.09-6.29-.23-12.59-.74-18.88-.68-21.14.2-42.27.46-63.4.99-6.19.16-12.35,1.29-19.18,2.05,2.79,3.53,5.12,6.47,7.53,9.52h13.66c-.39,1.29-.67,2.23-1.02,3.38,1.21,0,2.02.03,2.83,0Z"/>
    <path class="cls-2" d="M59.35,805.61c.69,3.58,2.44,5.43,5.51,6,3.25.6,6.51,1.22,9.79,1.66,9.03,1.21,18.05,2.84,27.12,3.36,12.93.75,25.91.68,38.87.91,5.65.1,11.31.09,16.96.06.57,0,1.15-.5,1.85-.83-.09-1.4-.18-2.67-.3-4.47-33.63.43-66.77.7-99.79-6.69Z"/>
    <path class="cls-2" d="M723.52,824.24c-7.72.99-15.49,2.23-23.24,2.23-10.26,0-20.53-1.06-30.79-1.66-11.13-.65-22.26-1.19-33.38-1.97-7.62-.54-15.22-1.44-22.84-2.12-2.19-.2-4.91-.32-5.18,2.48-.28,2.93,2.74,3.04,4.7,3.29,2.79.35,5.65.11,8.48.1,17.16-.12,34.28.51,51.37,2.16,7.61.73,15.31.61,22.9,1.43,10.22,1.11,20.21-.49,30.23-1.78,1.23-.16,2.32-1.37,3.86-2.34-2.26-2.8-4.07-2.07-6.12-1.81Z"/>
    <path class="cls-2" d="M612.37,804.02c-.82-.04-1.8-.08-2.45.3-1.01.6-1.8,1.56-2.69,2.37.91.76,1.76,2.09,2.73,2.18,5.14.47,10.33.4,15.46.95,6.22.67,12.39,1.76,18.58,2.67-.04.54-.07,1.08-.11,1.62h-33.96c.38,3.97.38,4.08,2.4,4.21,10.84.73,21.64.4,32.37-1.42,2.68-.45,5.87-1.23,6.07-4.21.22-3.35-3.04-4.3-5.83-5.03-10.68-2.78-21.64-3.07-32.57-3.66Z"/>
    <path class="cls-2" d="M52.35,767.09c10.47,2.36,20.85,5.11,31.33,7.41,3.53.77,7.25.85,10.89.88,2.43.02,4.04-1.56,4.13-4.09.09-2.83-2.21-2.23-3.94-2.51-10.77-1.75-21.53-3.57-32.3-5.29-1.41-.22-2.9.05-4.67.1-3.87-5.12-10.97-4.22-16.48-6.97,1.68,5.92,5.36,9.18,11.04,10.46Z"/>
    <path class="cls-2" d="M189.9,749.02c2.41-.75,5.44-1.92,4.52-4.83-.87-2.76-4.07-1.56-6.19-1.06-6.78,1.61-13.46,3.6-20.23,5.21-7.24,1.72-14.55,3.17-21.83,4.73-.01.32-.03.65-.04.97,1.06.26,2.11.65,3.19.75,13.98,1.32,27.36-1.68,40.58-5.78Z"/>
    <path class="cls-2" d="M174.85,813.12c.73,1.87,1.29,3.31,2.07,5.33.46-1.39.67-2.06.81-2.49,1.48.94,2.74,2.28,4.21,2.56,3.56.68,7.2.89,10.82,1.25,6.26.62,12.52,1.25,18.79,1.78,1.89.16,3.8.02,5.88.02-1.87-4.06-5.24-6.46-9.19-6.85-1.98-.19-3.96-.34-5.93-.62-9.01-1.25-18.04-1.55-27.46-1Z"/>
    <path class="cls-2" d="M108.59,762.65c.75-2.99.69-6.18,1.04-10.13-.96-3.95-1.92-8.64-3.31-13.19-.54-1.75-1.57-3.94-4.21-3.4-1.77.36-3.71,4.15-3.28,6.19.17.8.64,1.53.92,2.31,1.83,5.11,2.46,10.3,1.34,15.68-.34,1.61-.48,3.32-.37,4.96.18,2.68,2.42,3.91,4.51,2.29,1.48-1.15,2.93-2.94,3.37-4.71Z"/>
    <path class="cls-2" d="M99.88,795.17c.6,1.26,1.37,3.05,2.42,3.32,1.01.27,3.13-.79,3.57-1.79,1.23-2.79,1.83-5.86,2.69-8.81-.44-5.08-1.16-9.75-4.56-13.6-2.26-2.55-4.44-2.12-5.32,1.14-.32,1.19-.41,2.72.07,3.8,1.95,4.41,2.1,8.87,1.14,13.49-.16.79-.32,1.78,0,2.44Z"/>
    <path class="cls-2" d="M347.38,739.85c-7-2.14-14.14-4.33-21.45-6.56v7.37c7.56,2.09,15.04,4.15,23.03,6.36-.63-2.87-1.06-4.8-1.58-7.17Z"/>
    <path class="cls-2" d="M618.13,830.06c-5.36.52-10.71,1.25-16.06,1.91-.13.56-.26,1.12-.39,1.69,1.21.61,2.41,1.69,3.65,1.75,3.64.18,7.31.02,10.96-.15.95-.04,2.12-.33,2.77-.95.73-.7,1.3-1.9,1.3-2.88,0-.49-1.49-1.45-2.23-1.37Z"/>
    <path class="cls-2" d="M604.9,820.8c2.48-2.7,2.26-4.35-.54-6.72-3.13-2.64-6.72-4.24-10.92-4.22-4.66.02-9.33.04-13.99-.06-8.49-.19-16.97-.66-25.46-.66-8.15,0-16.29.6-24.44.66-22.66.17-45.31.07-67.97.35-9.64.12-19.28.87-28.91,1.36-3.15.16-3.16.21-5.74-2.37,12.64-.84,24.61-3.18,36.63-5.78-1.95-.94-3.88-1.5-5.78-1.39-5.31.32-10.61.92-15.91,1.4-5.29.48-10.58,1.02-15.88,1.34-.9.05-1.87-.89-3.42-1.69,1.39-.73,1.79-1.1,2.23-1.14,9.76-.99,19.5-2.14,29.28-2.83,7.47-.53,14.99-.47,22.27,1.8,1.89.59,3.66,1.53,5.49,2.31-4.91,1.16-9.57-.69-14.1,1.11,2.93.52,5.94,1.15,8.77.66,2.94-.51,5.85,3.44,8.68.06-2.86-7.29-7.47-10.79-15.21-10.55-14.12.44-28.22,1.33-42.33,2-1.81.09-3.62.01-5.43.01-.02-.33-.04-.66-.05-.99.57-.14,1.12-.36,1.7-.42,13.05-1.44,26.09-2.93,39.14-4.28,11.26-1.17,22.53-2.24,33.81-3.25,13.59-1.22,27.18-2.55,40.8-3.43,14.83-.96,29.61.21,44.33,2.19,1.64.22,3.33.03,5.74.03-.96-1.54-1.19-2.2-1.66-2.61-4.96-4.32-10.9-5.47-17.23-4.95-.94.08-1.83,1.73-2.68,1.67-1.29-.09-2.51-1.53-3.77-1.55-8.66-.13-17.34-.4-25.97.06-14.78.78-29.53,2.05-44.29,3.12-6.81.49-13.64.73-20.41,1.56-11.21,1.36-22.36,3.2-33.55,4.65-5.45.71-10.94,1.01-16.42,1.49,4.39-1.78,8.96-2.4,13.41-3.52,19.9-5.05,39.97-7.99,60.63-7.47,12.95.33,25.95-.69,38.9-1.54,15.19-1,30.31-3.38,45.6-1.69,2.38.26,4.82.04,7.87.04-.73-1.09-.96-1.74-1.42-2.07-2.67-1.97-5.46-3.79-8.09-5.82-2.27-1.75-4.93-3.07-4.56-6.92.25-2.59-2.25-3.33-4.57-3.43-10.77-.47-21.55-.97-32.33-1.36-16.81-.61-33.57.39-50.27,2.11-24.43,2.51-47.73,9.99-71.23,16.54-1.1.31-2.89.7-3.04,1.37-.64,2.72-2.31,1.93-4.09,1.79-6.52-.53-12.95-.29-18.05,2.47-6.97-2.98-13.33-5.7-19.7-8.42-.4.34-.8.68-1.2,1.03.55,2.16,1.1,4.31,1.46,5.74-46.27-10.61-93.38-14.98-141.29-12.15.15-.94.18-1.82.3-1.83,46.13-4.68,91.52.06,136.52,11.21.9-3.76-.97-5.28-3.85-5.9-10.49-2.28-20.94-4.81-31.51-6.61-11.59-1.98-23.26-3.89-34.97-4.71-15.11-1.05-30.31-.8-45.46-1.48-7.28-.33-14.54-1.35-21.77-2.37-2.05-.29-3.95-1.67-6.36-2.74,5.33-3.86,10.79-3.99,46.89-1.65,15.55,1.01,31.1,2.04,47.01,3.09-.11-1.44-.21-2.84-.31-4.28-30.61-4.68-61.37-2.91-91.49-6.65-1.67-4.27-3.21-8.24-4.92-12.63,2.09-.34,4.05-1.04,5.95-.91,12.75.89,25.53,1.6,38.22,3.04,17.47,1.99,34.87,4.57,52.79,6.97-.13-2.65-.24-5.07-.37-7.82-4.27.25-8.42-3.85-12.2,1.42-.34-2.99-2.02-3.71-4.69-3.98-17.52-1.79-35.03-3.72-52.51-5.8-5.25-.63-10.44-1.83-15.63-2.93-2.66-.56-4.31-2.19-4.69-5.11-.44-3.43-1.19-6.81-1.95-11.02,3.07.44,5.84,1.4,8.46,1.08,4.95-.6,9.66.57,14.48.87,4.57.29,8.19,1.61,10.84,6.86-.29-2.78-.45-4.32-.62-5.92,3.1.7,5.9,1.34,8.15,1.85.95,1.52,1.73,2.78,2.52,4.04l1.03-.44c.23-1.69.45-3.38.86-6.35,2.57,3.72,4.5,7,8.67,6.86.4-.9.78-1.76,1.3-2.92.87,1.51,1.57,2.74,1.99,3.46,6.08,1.6,12.14.52,17.18,4.38.17-2.27.34-4.41.5-6.54.43-.06.86-.11,1.3-.17.96,2.51,1.27,5.77,3.07,7.34,2.01,1.75,5.36,1.96,8.25,2.88.28-1.73.49-3.02.88-5.46,1.84,3.01,3.06,5.01,4.59,7.52,1.25-3.4-1.75-6.4,1.6-9.03.7,2.11,1.74,3.92,1.81,5.77.14,3.58,2.25,4.74,5.2,5.68,5.05,1.62,10.03,3.48,15,5.35,12.93,4.87,23.12,13.84,33.47,22.61-7.66-4.01-15.32-8.02-23.18-12.14-.43,2.26-.79,4.13-1.05,5.55,14.79,8.61,29.4,17.11,44,25.62-3.24-.17-6.22-1.02-9.1-2.14-13.44-5.22-26.84-10.56-40.3-15.75-2.35-.91-4.92-1.28-7.23-1.86-1.72,3.8-.11,5.02,2.72,5.93,9.46,3.05,18.9,6.15,28.27,9.45,6.39,2.25,12.6,5.01,18.99,7.27,4.74,1.68,9.1.16,11.78-3.83-6.09-3.78-12.43-7.31-16.74-13.47,1.52.08,2.96.37,4.04,1.16,4.55,3.34,9.06,6.74,13.43,10.31,1.18.96,3.61,1.57,2.38,4.18-.1.2,1.29,1.57,2.04,1.62,1.78.12,3.68.08,5.37-.44,8.86-2.76,17.76-5.44,26.47-8.6,22.8-8.28,46.35-13.35,70.43-15.09,15.39-1.11,30.94-.03,46.41.19,5.92.08,11.84.51,18.31.81-1.49-2.1-2.45-3.47-3.75-5.31,2.44.11,4.12.4,5.74.19,1.17-.16,2.25-.98,3.37-1.51-.82-1.11-1.41-2.67-2.51-3.22-1.72-.86-3.76-1.32-5.71-1.46-14.21-1.08-28.41-2.44-42.64-2.92-16.16-.54-32.28.77-48.26,3.31-16.78,2.67-33.06,7.21-48.91,13.35-1.48.57-3.11.76-4.67,1.12,7.72-3.75,15.47-7.15,23.44-9.92,14.43-5.02,29.4-7.86,44.36-10.83,16.92-3.35,33.91-5.04,51.1-4.17,10.96.55,21.9,1.55,32.49,4.8,1.02.31,2.18.17,3.43.25.11-3.15-1.21-4.67-3.95-5.03-10.04-1.3-20.04-3.15-30.12-3.79-23.09-1.47-45.8,2.02-68.36,6.49-7.45,1.48-14.82,3.33-22.23,5,39.96-17.6,81.54-20.8,124.49-13.83-1.74-2.09-3.51-3.78-5.61-4.78-12.89-6.16-25.93-12.03-38.78-18.26-6.57-3.18-12.99-6.73-19.24-10.5-2.56-1.54-4.99-2.33-7.91-2.37-14.74-.18-29.1,2.55-43.37,5.76-10.6,2.38-21.12,5.15-31.67,7.74-1.73-10-2.99-57.8-1.48-62.27,3.27,1.11,6.92,1.63,9.76,3.43,8.59,5.43,17.69,7.89,27.81,6.55.88-.12,1.92.35,2.78.78,8.89,4.48,14.64,3.26,20.95-4.4,1.03-1.26,2.13-2.85,3.54-3.35,11.04-3.91,20.35-10.55,28.79-18.38,4.38-4.07,8.12-8.73,14.76-8.94.61-.02,1.27-.44,1.81-.81,4.2-2.96,7.94-2.09,11.84.86,4.37,3.3,9.39,4.84,15.01,4.22,1.75-.19,3.59.46,5.39.59,6.45.49,12.9,1.15,19.36,1.24,1.57.02,4.19-1.58,4.57-2.93,1.11-3.92,4.13-4.82,7.22-5.99,2.79-1.06,5.56-2.21,8.33-3.33,4.29-1.73,6.96-4.46,6.12-9.51-.41-2.45.97-3.68,2.95-5.08,4.73-3.34,9.48-6.81,13.52-10.91,5.25-5.32,4.94-6.57-.05-11.87-.19-.2-.14-.61-.22-1.03,2.65-3.53,5.42-7.06,7.99-10.73,1.68-2.4,1.88-5-.19-7.35-2.03-2.29-4.52-2.76-7.19-1.2-3.01,1.77-6.04,3.51-8.88,5.53-5.87,4.18-12.54,6.35-19.78,8.72.15-2.39.5-4.21.32-5.98-.31-3.06-.32-6.39-1.58-9.08-4.06-8.66-9.23-9.34-15.5-2.19-3.9,4.45-8.22,8.24-13.47,10.96-6.77,3.51-12.17,8.58-17.24,14.19-4.4,4.86-9.26,9.3-14.3,14.32-3.14-7.09-8.45-8.38-14.45-7.18-2.65.53-5.42,1.95-7.45,3.74-2.82,2.49-5.89,3.98-9.39,5.15-12.38,4.13-23.72,10.43-34.73,17.33-2.66,1.66-5.34,2.7-8.47,2.24-5.1-.75-10.19-1.55-15.29-2.33-4.93-.75-9.9-2.26-14.78-2.02-5.31.26-9.72-1.54-14.23-3.5-1.24-.54-2.52-1.71-3.1-2.92-3.83-8-10.15-12.75-18.8-13.93-7.54-1.03-15.18-1.48-22.79-1.88-5.46-.28-10.94-.06-16.87-.06-1.1-6.52-2.13-12.6-3.25-19.27,3.95.37,6.9.67,9.85.92,7.78.65,15.55,1.48,23.35,1.86,11.27.55,22.58,1.64,33.57-2.53,6.82-2.59,13.86-4.6,20.77-6.96,6.51-2.22,12.43-5.46,17.7-9.95,7.34-6.26,9.96-14.18,9.1-23.59-.75-8.25-1.34-16.52-1.81-24.79-.7-12.28-1.42-24.56-1.77-36.85-.3-10.64-.83-21.37.07-31.94,1.46-17.06,3.34-34.09,2.54-51.22-.3-6.4-1.28-12.93-3.07-19.07-2.76-9.47-12.36-16.11-21.88-15.89-11.64.27-23.27.82-34.91,1.18-17.3.53-34.59,1.15-51.89,1.47-25.11.45-50.18-.21-75.21-2.51-7.45-.69-14.97-.62-22.47-.75-5.26-.09-10.64-.58-15.78.25-11.1,1.8-19.29,7.72-23.14,18.77-.65,1.85-1.26,3.95-2.55,5.31-3.42,3.59-3.36,7.72-2.73,12.11.23,1.63.35,3.28.52,4.91-4.16-3.28-1.82-8.08-3.8-12.15-2.13,1.47-3.98,2.75-5.81,4.02q4.73,9.28,4.26,12.21c-2.2-3.7-4.26-7.19-6.46-10.9-1.69.79-3.12,1.47-4.58,2.15,3.99,6.29,7.82,12.33,11.65,18.37l-1.3.88c-4.72-6.24-9.45-12.49-14.42-19.07,1.76-1.14,3.28-2.1,4.77-3.1,4.12-2.78,8.31-5.48,12.27-8.47.97-.73,1.2-2.43,1.77-3.68-.33-.3-.65-.6-.98-.9-1.85.53-3.83.81-5.54,1.64-3.28,1.6-6.46,3.42-9.59,5.31-7,4.22-11.25,10.44-12.08,18.53-.92,8.9-1.7,17.86-1.77,26.8-.16,19.9.08,39.8.3,59.69.16,14.26.58,28.52.81,42.79.09,5.28-.48,10.62.06,15.84,1.22,11.66,7.51,19.78,18.77,23.38,5.02,1.6,10.33,2.66,15.59,3.07,11.1.87,22.24,1.42,33.37,1.6,16.66.27,33.33.09,50,.11,1.95,0,3.89,0,6.05,0,.66,7.34,1.27,14.05,1.89,20.95-5.51.39-10.47.57-15.38,1.14-8.08.93-16.21,1.7-24.17,3.31-10.07,2.03-16.26,8.54-18.55,18.6-.57,2.52-1.07,5.06-1.68,7.96-2.15-1-3.92-1.81-5.69-2.64-16.84-7.9-33.44,1.84-34.86,20.32-.22,2.9-1.21,5.84-2.31,8.57-3.98,9.85-8.15,19.62-12.27,29.42-.42,1.01-.97,1.97-1.37,2.79-17.29-6.01-34.22-11.91-51.15-17.78-9.98-3.46-19.11-8.5-27.69-14.62-2.02-1.45-4.19-2.7-6.34-3.97-3.95-2.32-8.17-3.74-12.83-3.4-8.94.66-17.89,1.3-26.82,2.05-4.3.36-8.6.82-12.87,1.45-2.48.37-4.46,1.63-4.22,4.6.18,2.25,2.77,4.28,5.46,4.12,2.81-.16,5.6-.63,8.41-.95,6.94-.81,13.87-1.71,20.82-2.36,2.33-.22,4.72.2,7.09.33.03.55.07,1.1.1,1.65-1.33.25-2.68.76-3.99.69-2.47-.13-4.95-.99-7.38-.82-6.3.44-12.58,1.19-18.83,2.06-1,.14-1.83,1.48-2.74,2.27.92.8,1.75,1.78,2.8,2.35.64.35,1.64.17,2.46.07,8.84-1.03,17.67-2.09,26.75-3.18,1.14,2.37,1.26,4.98.08,7.78-5.05-2.74-29.41-1.18-33.84,2.07,5.07,3.24,10.77,1.48,16.04,1.83,5.6.37,11.33-1.08,17.56-1.8-.57,1.89-1.11,3.67-1.5,4.99-12.07.32-23.58.63-35.09.93-.52,4.02,1.68,4.54,3.88,4.56,7.31.07,14.62.05,21.92-.14,2.67-.07,5.32-.75,8.12-1.17.16,2.25-.94,3.25-3.18,3.34-2.32.1-4.64.39-6.96.46-8.72.28-17.46,2.59-26.14-.39-.74-.25-2.17-.36-2.39,0-2.19,3.59-5.87,1.92-8.79,2.83-1.44.45-3.22,2.18-3.42,3.54-.2,1.36,1.03,3.42,2.26,4.38,1.31,1.03,3.35,1.13,5.05,1.63.63,2.5,1.26,4.98,1.77,7.02,4.25-1.28,7.86-2.75,11.62-3.4,5.24-.91,10.58-1.23,15.88-1.73,1.48-.14,2.99-.14,4.47-.05,2.51.16,3.6,1.98,3.36,4.06-.1.82-2.03,1.84-3.26,2.05-7.19,1.26-14.4,2.49-21.64,3.36-6.03.72-11.92,3-18.25,1.44-1.24-.31-3.56,1.59-4.49,3.04-.58.91.04,3.37.96,4.27,1.29,1.25,3.34,2.26,5.12,2.37,3.46.2,6.99-.08,10.45-.54,12.35-1.65,24.62-4.02,37.17-3.76,1.16.02,2.34-.13,3.47-.35,2.77-.54,4.57-2.99,3.24-5.38-1.56-2.81-1.13-5.36-.67-8.14.22-1.34.78-2.99-1.84-3.75v10.93c-3.18-.25-5.87-.46-9.11-.72.93-1.69,1.6-2.62,2-3.66,1.75-4.55.15-7.76-4.58-9.13-1.53-.44-3.15-.58-5.27-.96,9.56-1.88,18.21-.03,26.79,2.04,13.38,3.22,26.68,6.77,40.05,10.05,8.05,1.98,16.15,3.73,24.23,5.58-.06.41-.12.82-.17,1.22-10.45-.57-20.91-1.11-31.36-1.72-10.44-.61-20.88-1.48-31.33-1.86-4.98-.18-5.2.32-4.37,5.15-1.84-1.66-3.52-.78-4.1,1.09-.69,2.25-1.09,4.93-.54,7.15,1.55,6.29,1.33,12.55.44,18.79-.9,6.31.04,8.32,6.09,9.61,11.8,2.51,23.8,2.75,35.76,2.07,8.61-.49,17.14-2.06,25.75-2.74,11.61-.93,23.26-1.47,34.89-2.18,6.5-.39,6.84-.29,9.03,5.7.78,2.12,1.12,4.52,1.13,6.79,0,4.63-.85,5.4-5.18,6.49-9.18,2.3-18.3,4.87-27.53,6.94-7.44,1.68-14.96,3.51-22.53,4-12.93.85-25.93.66-38.9,1-3.65.1-7.3.45-10.94.84-3.44.37-5.62,2.46-7.15,5.53,2.06,2.82,4.93,2.03,7.41,1.98,13.16-.29,26.32-.86,39.48-1.09,12.55-.22,24.79-2.06,36.88-5.44,8.76-2.45,17.68-4.36,26.54-6.43,2.14-.5,4.26-.77,5.46,1.92,2.08,4.67,4.05,9.34,4.62,14.21-3.32,3.74-7.06,4.87-11.52,3.78-1.61-.4-3.25-.7-4.9-.92-4.07-.53-5.34.78-5.22,5.26,7.69-1.16,15.85.87,23.09-3.9v9.57c-1.59-1.11-2.81-1.96-4.85-3.37-.29,2.84-.5,4.84-.73,7.12-5.56,0-11.17.21-16.77-.08-3.07-.16-4.35-2.15-3.83-5.17.24-1.4,1.1-2.69,1.51-3.63-.96-2.35-1.79-4.39-2.68-6.56-3.9-.6-7.97-1.34-12.08-1.83-5.24-.63-10.5-1.29-15.77-1.51-5.62-.23-11.26-.14-16.88.13-4.62.22-9.31.48-13.78,1.52-2.77.65-6.11,2.54-6.1,5.82.02,3.11,3.38,4.37,6,5.32,8.15,2.98,16.5,5.37,25.29,4.93,11.9-.59,23.14,1.19,33.48,7.55,2.33,1.43,5.23,2.43,7.95,2.64,7.28.56,14.64,1.17,21.88.62,4.98-.37,7.88,1.54,10.43,5.09,3.51,4.88,2.98,7.04-2.48,9.61-12.08,5.69-25.26,6.5-37.12,8.74-1.53-1.57-2.27-3-3.26-3.21-2.74-.59-5.6-.91-8.41-.88-3.86.05-7.59-.71-11.6-.3-5.78.59-11.77-1.37-17.69-1.54-10.16-.29-20.34.27-30.5-.07-11.42-.39-22.83-1.37-34.24-2.12-1.35-.09-2.69-.36-4.7-.64,2.91,4.76,6.27,7,11.23,6.65,2.44-.17,4.9-.03,7.36-.03,0,.47,0,.94,0,1.41-3.59.22-7.18.6-10.77.61-2.2,0-3.83.37-4.06,2.45-3.3-.44-6.28-.85-9.38-1.26.06,5.68.57,6.28,4.88,5.83,3.8-.4,7.56-1.09,11.36-1.5,13.21-1.42,26.42-2.87,39.65-4.07,3.08-.28,6.24.39,9.36.62-5.69,1.19-11.34,1.53-16.93,2.24-20.28,2.57-40.56,5.19-60.82,7.94-8.42,1.14-11.45.07-15.54-7.18-2.35-4.17-4.02-8.71-6.12-13.02-.82-1.69-1.99-3.21-3-4.81-.32.12-.65.25-.97.37.32,3.22.53,6.45.98,9.65,1.76,12.61,9.19,20.54,21.37,22.11,3.86.5,7.98-.05,11.84-.81,12.85-2.52,25.62-5.47,38.47-8.02,9.12-1.81,18.2-3.51,27.57-.56,9.43,2.97,19,1.98,28.6-.11,9.72-2.12,19.55-3.88,29.42-5.11,13.84-1.72,27.81-2.55,41.03-7.57.42-.16,1.03.19,1.55.31-1.68,1.85-3.45,3.17-5.42,3.66-7.23,1.78-14.47,3.8-21.82,4.78-15.97,2.12-32.03,3.44-47.7,7.6-7.77,2.07-15.78,2.25-23.68-.18-2.93-.9-6.02-1.33-9.35-2.04.5,4.27,3.55,5.47,6.45,6.51,7.12,2.55,14.44,1.86,21.71.73,12.63-1.97,25.17-4.71,37.86-5.96,12.79-1.26,25.32-3.53,37.81-6.34,1.34-.3,3.32.2,4.36,1.08,2.05,1.74,4.16,2.56,6.81,2.46,17.46-.68,34.92-1.32,52.38-1.94,1.66-.06,3.3-.4,2.92-2.36-.17-.88-1.71-1.56-2.71-2.2-.37-.23-.98-.12-1.48-.1-11.96.43-23.92.95-35.89,1.27-5.64.15-11.29,0-16.92-.26-1.16-.05-2.27-1.17-3.4-1.8.06-.52.11-1.04.17-1.56,2.93-.76,5.85-2.1,8.81-2.18,7.64-.2,15.3.32,22.95.26,13.15-.11,26.3-.44,39.45-.7.49,0,.98-.18,1.66-.31.51-1.1,1.05-2.27,1.76-3.8,1.36,5.32,2.65,5.82,9.1,3.99v-5c-27.3-.81-54.34,2.14-81.15.13v-6.94c1.91.38,3.39.85,4.9.95,19.26,1.29,38.52,2.74,57.79,3.67,7.28.35,14.62-.82,21.93-.77,10.81.07,21.62.59,32.44.95.97.03,1.94.29,2.91.45l-.14,1.26h-35.26v5.81c.21.03.43.05.64.08.21-.9.42-1.81.82-3.56.87,2.11,1.41,3.41,1.94,4.71,3.05.23,5.83.45,8.62.66-1.84.34-3.73.2-5.46.64-1.22.31-3.05,1.3-3.18,2.2-.34,2.28,1.8,1.87,3.19,1.85,4-.06,8-.12,11.99-.41,13.15-.96,26.24-1.3,39.35.81,7.69,1.24,15.49,1.76,23.26,2.48,7.27.67,13.62-.93,17.13-7.77,14.03,1.55,27.58,2.66,41.24,1.63.28-1.44.49-2.49.54-2.76h80.71c.55,1.36,1.03,2.53,1.5,3.69,7.39,0,14.53.04,21.67-.02,2.6-.03,5.32-.9,7.78-.38,5.94,1.26,11.02-.59,16.73-3.13-2.42-2.37-.95-3.59.53-5.2ZM571.83,767.85c-2.12,2.62-4.34,2.72-6.55,2.86-7.59.47-15.18,1.04-22.78,1.39-14.1.64-28.3,2.39-42.3,1.41-19.97-1.39-39.45-.24-58.8,4.64-4.96,1.25-10.07,1.88-15.11,2.79,46.94-18.74,95.74-17.17,145.55-13.09ZM623.36,581.81c-2.51,3.74-7.97,6.43-13.96,7.12-3.79.44-7.66.43-11.4,1.12-2.86.53-5.58,1.83-8.36,2.79-.36-.23-.71-.47-1.07-.7.72-1.04,1.21-2.52,2.2-3.01,2.04-1.03,4.29-1.88,6.54-2.19,8.78-1.22,17.95-.2,26.05-5.13ZM571.66,572.72c2.92-1.82,6.07-3.31,9.24-4.67,2.57-1.11,5.39-1.65,7.95-2.79,5.63-2.51,9.31-6.73,10.25-13.13,2.39,1.95,1.77,3.93.83,6.03-2.94,6.54-8.19,10.38-14.89,12.18-5.02,1.35-9.87,2.8-13.65,6.63-.34.35-1.14.25-2.54-.4.92-1.31,1.56-3.07,2.81-3.85ZM523.03,595.25c2.53-3.64,5.25-6.85,9.8-7.83,4.1-.88,6.04,1.12,5.24,5.27-6.87-2.42-9-1.24-13.68,7.78-2.7-1.35-3.04-2.81-1.37-5.21ZM480.09,610.21c-6.1,13.39-.48,21.82,9.51,28.67-4.99,1.56-9.92-2.02-13.35-9.51-3.93-8.59-3.03-14.76,3.84-19.16ZM564.93,746.46c-4.02,0-9.35.29-14.65-.05-31.28-1.99-62.23-.03-92.46,8.53-13.38,3.79-26.36,8.97-39.56,13.41-4.15,1.39-8.42,2.42-12.72,3.29,50.64-27.07,104.46-33.91,159.39-25.19ZM426.75,606.56c7.44,3.08,14.89,6.16,22.12,9.16-2.32,4.88-4.27,8.99-6.11,12.85,6,1.39,11.47,2.65,16.93,3.92-.06.43-.11.86-.17,1.29-2.16,0-4.34.22-6.47-.05-2.93-.38-5.81-1.16-8.72-1.72-3.49-.68-4.29-1.64-3.38-5.08.83-3.14,2.06-6.18,3.32-9.85-4.15-1.44-7.9-3.36-11.85-3.94-3.67-.54-4.93-2.75-6.45-5.19.25-.46.51-.92.76-1.37ZM425.73,742.57c5.17-.45,8.65-4.65,13.6-6.14,4.8-1.45,9.1-4.51,14.11-7.11-3.51-2.71-6.81-5.27-10.58-8.19,6.23-.77,9.1,2.99,12.16,7.17,1.2-.51,2.47-1.05,3.77-1.6-1.59-3.21-5.61-4.21-5.83-8.07,5.18.61,6.79,2.07,7.62,7.02,2.62-.8,5.19-1.59,8.11-2.49-7.35-4.7-14.22-9.08-21.42-13.68,5.38-.93,10.77,1.64,24.44,11.34,1.49-.41,3.07-.84,5.51-1.51-3.14-2.8-5.92-5.29-9.27-8.29,6.81-.95,10.09,3.33,14,6.37,1.32-1.01,2.66-2.04,3.92-3-1.39-2.16-2.86-4.45-4.92-7.67,6.77.64,9.88,4.95,13.73,8.46-.34-2.43-.61-4.28-.87-6.14.44-.2.88-.41,1.32-.61,1.38,1.64,2.76,3.27,4.54,5.38.86-.18,2.24-.46,3.95-.81-.68-2.14-1.23-3.87-1.78-5.6.29-.25.58-.51.87-.76,1.15.91,2.53,1.64,3.4,2.77,2.74,3.53,3.16,3.51,5.11-.76.03-.06.07-.11.13-.16.17-.14.45-.23.65-.35,3.07,3.19,4.23,3.94,6.11,1.8.63-.71,1.34-1.75,2.22-3.12.54,1.33,1.01,2.49,1.57,3.86,3.83.98,8.42.8,11.05,4.93-.54.41-.84.8-1.03.76-11.73-2.69-22.73,1.34-33.81,3.88-18.32,4.21-35.78,11.11-52.98,18.54-6.49,2.8-12.31,7.13-18.5,10.66-2.85,1.62-5.84,3.02-8.82,4.42-.42.2-1.13-.19-1.77-.32,2.3-4.67,9.62-4.37,9.68-10.96ZM232.92,375.86c.14-3.45.98-6.89,1.69-10.3,2.01-9.69,8.68-14.29,17.92-15.33,4.9-.55,9.93-.14,14.9.06,9.97.41,19.95.74,29.89,1.52,24.42,1.93,48.87,2.08,73.33,1.82,18.65-.2,37.29-.97,55.93-1.56,7.97-.25,15.96-.35,23.88-1.14,6.57-.65,13.75,4.75,15.27,10.56,1.41,5.41,2.5,11.02,2.8,16.59.73,13.63-.69,27.19-2.28,40.73-1.84,15.71-1.81,31.44-.66,47.23.83,11.43.86,22.91,1.36,34.36.37,8.48.84,16.95,1.43,25.41.69,9.89-4.97,17.81-14.88,19.1-8.2,1.07-16.57,1.56-24.84,1.3-27.33-.86-54.63-.23-81.94.76-14.14.51-28.31,1.36-42.42.88-12.05-.41-24.12-2.07-36.04-3.99-7.56-1.22-14.74-4.54-20.44-9.76-3.05-2.79-5.34-6.79-6.96-10.66-3.11-7.43-3.73-15.45-4.05-23.45-.55-13.96-1.12-27.92-1.71-41.88-.07-1.75.17-3.75-2.3-4.14-.02-12.78,0-25.55-.08-38.33-.02-2.63-.6-5.25-.56-7.87.16-10.64.33-21.28.76-31.91ZM286.68,555.12c-13.53-.19-26.76-2.81-39.44-7.65-10.51-4.02-14.92-12.36-16.31-23.05-2.74-21.23-1.52-42.49-.81-63.75.07-2.13,1.6-4.21,2.55-6.32-.23,16.47-.79,32.94-.53,49.4.13,8.72,1.33,17.48,2.75,26.11,1.24,7.54,5.96,12.49,13.21,15.54,13.45,5.65,27.54,7.46,41.88,7.66,17.97.25,35.96.08,53.94-.11,12.78-.14,25.56-.62,38.34-.9,1.9-.04,3.8.19,5.71.29.01.37.03.73.04,1.1-.84.12-1.68.33-2.52.36-12.14.43-24.27,1.07-36.41,1.21-20.8.23-41.6.4-62.39.11ZM286.62,594.11c13.26-1.04,26.54-2.02,39.82-2.35,20.63-.51,41.27-.52,61.91-.58,4.46-.01,8.97.37,13.38,1.08,10.89,1.74,16.69,8.04,18.11,19.95.98,8.21,1.63,16.48,1.96,24.74.83,20.91,1.4,41.83,2.06,62.75.06,1.98,0,3.96,0,5.4-8.12,3.74-15.76,7.21-23.34,10.81-1.13.54-2.31,1.48-2.91,2.55-1.75,3.09-4.41,3.39-7.6,3.49-5.83.17-11.15-1.27-16.34-3.71-13.36-6.29-26.68-12.69-40.17-18.72-9.24-4.14-18.81-7.54-28.87-9.16-4.38-.71-8.85-.93-13.52-1.39v-8.69h-8.62q-.87,4.01,5.09,5.25c-.24,1.06-.48,2.11-.72,3.14h-8.54c-.36-9-.71-17.88-1.06-26.82.05,0,.37-.1.52.02,1.89,1.4,3.79,1.21,5.49-.18.45-.36.6-1.64.32-2.24-.96-2.04-2.74-2.74-4.96-2.41-.47.07-.95.01-1.47.01-.45-6.31-.9-12.57-1.37-19.01-1.9-.35-3.48-.65-5.8-1.08-.06,17.5,2.21,34.54,1.59,51.6-.4.06-.8.12-1.19.18-.27-.93-.73-1.85-.78-2.79-.64-12.1-1.17-24.2-1.82-36.3-.59-11.09-1.28-22.17-1.95-33.26-.86-14.2,8.47-21.31,20.77-22.28ZM254.92,652.48c2.14,3.09,3.42,26.65,2.1,35.54h-14.67c-.28-5.73,7.76-28.59,12.57-35.54ZM107.79,672.1c3.61-9.07,4.83-18.35,4.29-28.49,1.74.85,3,1.22,3.98,1.98,16.26,12.47,35.37,18.79,54.42,25.27,8.48,2.89,16.93,5.87,25.27,9.14,4.11,1.62,7.93,4,11.87,6.03-.58,3.55-1.04,6.42-1.52,9.34-3.02-.16-5.78-.36-8.55-.45-2.31-.08-3.74-.88-3.95-3.46-.15-1.85-.76-3.67-1.17-5.5-.43.07-.85.13-1.28.2.1,1.66.2,3.33.35,5.79-28.28-5.18-55.84-12.51-83.72-19.84ZM214.25,724.79c-10.09.45-20.23.65-30.32,1.41-12.23.92-24.41,2.63-36.65,3.41-11.59.74-23.22.86-35.04-1.08.31-9.73,2.5-19.6-3.52-28.34,12.47.98,24.97,1.62,37.38,3.03,15.26,1.73,30.5,1.98,45.79,1.24,6.42-.31,12.83-.9,19.25-1.12,1.01-.03,2.55.97,3.02,1.91,3.84,7.61,5.07,11.5.07,19.54ZM237.83,790.78c-1.98,0-4.38.36-5.6-3.12,1.96-.33,3.48-.73,5.01-.82,14.81-.83,29.58-.21,44.32,1.31,11.67,1.2,23.37,2.24,35,3.75,11.08,1.44,22.09,3.41,33.13,5.15-.03.28-.06.56-.09.84-6.71-.49-13.44-.84-20.13-1.51-20.77-2.08-41.38-5.77-62.33-5.84-9.77-.03-19.54.23-29.31.25ZM319.76,811.43c-7.19-.38-14.41-.44-21.55-1.2-13.78-1.47-27.57-1.87-41.39-1.09-1.92.11-3.81.69-6.33,1.17-.8-1.2-1.69-2.54-2.82-4.24,24.77-4.06,48.33,2.03,72.15,4.3-.02.36-.04.71-.06,1.07ZM364.54,808.65c-8.91-1.02-17.86-1.74-26.76-2.87-12.32-1.57-24.61-3.38-36.9-5.15-11-1.59-21.88-4.56-33.15-2.86-6.4.96-12.75,2.19-19.17,3.01-4.79.61-4.81.4-7.89-4.44,19.99-2.17,39.86-1.17,59.77,1.86,14.91,2.27,30.02,3.36,45.05,4.74,12.23,1.13,24.49,1.91,37.1,2.88.11,1.58.22,3.16.38,5.29-6.39-.86-12.4-1.76-18.43-2.45ZM308.98,783.99c-25.19-1.72-50.48-2.08-75.95-3.05-.67-3.14-1.45-6.77-2.26-10.56,45.12-1.45,89.34,3.49,133.23,11.91,5.55,1.06,10.93,2.98,16.3,4.86-5.96-1.14-11.91-2.23-17.87-3.28s-11.93-2.04-17.9-2.96c-2.99-.46-5.97-.91-8.96-1.34-32.87-4.71-65.92-7.22-99.38-5.28-.05,3.16.04,3.78,1.89,3.93.43.04.95.05,1.58.06,16.97.28,33.98.05,50.9,1.14,15.04.97,30.04,3.05,44.94,5.35,14.21,2.19,28.28,5.23,42.38,8.09,2.16.44,5.11.3,6.09,4.39-25.22-5.28-49.79-11.53-75-13.25ZM420.09,829.03c-2.47.21-4.99.16-7.47-.04-6.8-.53-13.59-1.16-20.38-1.85-1.68-.17-3.32-.77-4.64-1.08.57-3.38,1.23-5.57,1.27-7.77.11-6.32-.06-12.65-.06-18.97,0-1.99-.13-4.04.31-5.95,1.25-5.5,5-9.13,9.54-9.58,5.79-.58,12.52,2.85,15.05,7.89,1.1,2.2,2.07,4.55,2.61,6.94,1.7,7.51,4.85,14.36,8.73,20.97,3.57,6.09,2.06,8.86-4.95,9.45ZM593.86,817.57c-5.66.21-11.32.29-16.98.39-22.42.39-44.84.91-67.27,1.12-13.96.13-27.93-.39-41.89-.29-10.64.07-21.27.62-31.91,1-2.7.1-4.89-.45-5.75-3.45,15.69-3.1,162.91-3.23,170.22.28-2.71.42-4.56.89-6.42.96Z"/>
    <path class="cls-2" d="M241.63,410.39c.34-9.95.75-19.91,1.21-29.86.38-8.44,5.66-16.33,16.63-15.7,17.62,1.01,35.27,1.55,52.91,1.79,18.65.25,37.31-.06,55.96-.16,17.66-.09,35.32-.22,52.98-.34,1.77-.01,3.55,0,5.44,0v-5.27c-8.26,0-16.07-.11-23.87.02-17.47.29-34.94.89-52.41,1-12.8.08-25.61-.36-38.42-.71-8.3-.23-16.59-.89-24.89-1.03-10.49-.18-20.99-.16-31.48.03-6.12.11-11,3.04-13.7,8.53-1.87,3.82-3.74,7.99-4.09,12.13-.89,10.41-.93,20.89-1.25,31.35-.03.91.43,1.83.66,2.7,4.03.66,4.23-1.73,4.32-4.48Z"/>
    <path class="cls-2" d="M265.06,535.32c-1.57,1.1-4.12-1.29-3.03-2.73,3.35-4.45-.91-7.78-1.37-11.61-.09-.74-2.01-1.76-3.06-1.72-.96.03-2.15,1.15-2.74,2.09-.91,1.46-1.4,3.19-2.25,5.24-4.94-4.69-5.43-10.96-8.62-17.43-.8,2.41-1.93,3.98-1.57,5.04,1.64,4.81,3.34,9.66,5.7,14.14,2.1,3.97,4.96,3.73,7.63-.07.91-1.29,1.73-2.64,2.59-3.96.38.1.75.19,1.13.29-.26,2.12-.51,4.25-.8,6.37-.61,4.46,1.95,7.87,6.39,8.12,1.12.06,2.47-.64,3.37-1.39.4-.33.26-1.91-.19-2.52-.97-1.33-1.86-.79-3.19.14Z"/>
    <path class="cls-2" d="M263.27,372.2c9.33-.29,18.57.29,27.66,2.55.79.2,1.82.51,2.42.19,1.04-.55,2.11-1.44,2.6-2.46.17-.36-1.17-1.99-2.05-2.22-2.71-.73-5.53-1.07-8.3-1.57-8.91-1.62-17.82-1.44-26.72-.15-.6,3.94,2.02,3.73,4.38,3.66Z"/>
    <path class="cls-2" d="M433.58,366.04c4.28-.01,8.56-.42,12.83-.65,2.02-.11,3.31-1.34,2.82-3.15-.23-.84-2.21-1.7-3.39-1.69-4.89.04-9.79.4-15,.66-.04,2.15-.95,4.84,2.74,4.82Z"/>
    <path class="cls-2" d="M275.61,634.98c0-7.4.1-14.19-.09-20.97-.04-1.26-1.48-2.42-1.89-3.74-.39-1.26-.8-2.94-.27-3.97,1.53-3.01,4.16-3.56,7.18-1.62,4.64,2.98,9.47,2.37,14.33.95.5-.15.73-1.25,1.51-2.73h-12.79c0-.43-.01-.86-.02-1.28,6.18-.59,12.35-1.18,18.58-1.77.14,4.51,1.4,6.97,3.52,6.71,1.4-.17,2.65-1.57,3.96-2.43-1-1.39-1.99-2.78-3.01-4.19,1.15-.83,2.78-2,4.4-3.17-.16-.51-.33-1.02-.49-1.53-3.55-.13-7.11-.58-10.63-.31-5.46.41-10.88,1.28-16.31,2-5.7.76-9.86,4.33-13.82,8.01-1.17,1.09-1.85,3.25-1.89,4.94-.19,8.26-.09,16.53-.09,25.5,2.93-.14,5.27-.26,7.82-.39Z"/>
    <path class="cls-2" d="M187.77,710.96c-10.26.78-20.52,1.66-30.77,2.62-3.69.35-7.35,1.02-11.02,1.55.01.55.02,1.11.03,1.66,1.86.5,3.7,1.18,5.6,1.47,12.78,1.99,25.57,1.04,38.34-.16,2.56-.24,4.22-1.76,4.8-4.33-1.59-2.83-4.33-3.01-6.98-2.81Z"/>
    <path class="cls-2" d="M175.53,680.93c-15.01-3.62-29.99-7.33-43.54-15.09-2.36-1.35-3.7-.47-5.43,2.37,2.49,1.6,4.64,3.52,7.15,4.5,10.01,3.9,20.09,7.65,30.25,11.16,4.69,1.62,9.57,2.76,14.45,3.71,2.53.49,5.61,1.33,7.46-2.05-2.78-3.35-6.73-3.74-10.34-4.6Z"/>
    <path class="cls-2" d="M413.54,798.39c-.53-2.38-1.61-4.71-2.85-6.83-2.05-3.51-8.31-5.83-12.19-4.84-3.55.9-7.33,5.05-7.42,9.12-.22,9.6-.07,19.22-.07,28.76,9.42,2.79,29.16,3.1,33.84.3-.51-1.18-.74-2.18-1.3-2.94-5.22-7.07-8.12-15.08-10.01-23.57Z"/>
    <path class="cls-2" d="M285.83,406.37c-10.4-.08-21.17,0-29,8.92-.32.36-.81.58-1.25.81-9.67,5.29-14.78,13.12-15.18,24.44-.41,11.56,1.53,22.06,9.96,30.53,6.02,6.04,12.73,11.23,20.99,13.87,5.73,1.83,7.24.97,9.45-4.62,2.64-.37,5.43-.72,8.21-1.16,8.68-1.39,16.77-4.31,23.5-10.11,10.61-9.14,15.28-20.64,11.28-34.32-5.36-18.29-18.03-28.21-37.96-28.37ZM272.73,435.59c-1.89-1.38-4.38-2.38-5.54-4.22-1.55-2.47.19-5.06,2.4-6.26,2.96-1.61,6.26-2.77,9.56-3.54,2.12-.49,4.27.58,5.3,2.82.98,2.12-.05,3.81-1.41,5.38-2.5,2.89-6.93,5.22-10.32,5.82ZM306.36,464.62c-7.49,5.47-16.08,7.66-25.17,8.29-.78.05-1.61-.26-2.38-.5-.22-.07-.33-.51-.49-.78,0,0,0,0,0,0,0,0,0,0,0,0,3.2-.5,6.45-.77,9.58-1.52,10.12-2.43,16.66-10.85,17.01-21.27.36-11.02-3.25-20.19-11.99-27.16-7.15-5.7-15.16-6.57-23.52-3.65-2.48.86-4.5,3.17-6.59,4.97-1.13.97-1.96,2.29-2.93,3.45.84-7.42,7.31-11.77,13.62-12.13,6.44-.37,12.96-.55,19.37,0,11.07.96,20.95,10.29,23.95,21.81,2.9,11.16-.86,21.51-10.44,28.5Z"/>
    <path class="cls-2" d="M401.9,397.39c-9.2.67-17.59,2.6-24.55,8.92-3.05,2.76-6.22,5.43-9.53,7.87-8.21,6.06-11.81,14.04-10.68,24.18.9,8.11,4.07,15.29,8.49,22.08,13.79,21.13,41.14,22.07,57.15,10.6,14.71-10.53,20.36-27.46,14.42-46.95-3.17-10.39-8.47-19.33-19.36-23.14-5.1-1.79-10.61-2.41-15.93-3.56ZM386.95,423.63c-1.11-1.75-.46-3.17.89-4.39,2.98-2.71,6.69-3.63,10.55-3.78,2.09-.08,3.06,1.59,2.97,4.3-.08,2.52-3.19,5.39-6.78,6.25-2.97.71-6.35-.35-7.63-2.37ZM413.98,454.12c-8.71-1.58-15.53-5.86-22.2-11.18,4.94-1.1,18.56,5.76,22.2,11.18ZM427.29,456.1c-7.95,12.05-21.87,16.18-34.94,13.67-.4-.08-.72-.58-1.71-1.44,4.56,0,8.39-.22,12.19.07,3.19.24,5.9-.58,8.43-2.33,7.15-4.94,11.13-11.67,11.61-20.42.35-6.37.09-12.6-3.44-18.54-2.71,2.98-4.77,5.79-1.49,9.87-4.17,1.35-7.8.62-11.09-1.35-1.05-.63-1.99-2.42-1.97-3.66.05-2.98-.21-5.59-2.92-7.42-.22-.15-.03-.92-.03-1.82,4.23,1.08,6.58-1.5,9-5-5.12-5.03-11.11-7.58-18.47-7.61-8.42-.03-11.74,6.53-16.83,11.48.45-1.27.69-2.66,1.37-3.79,4.09-6.77,9.98-11.18,17.88-12.33,6.64-.96,13.37-.88,19.67,1.76,2.99,1.25,6.09,2.96,8.29,5.26,9.93,10.35,12.58,31.26,4.43,43.62Z"/>
    <path class="cls-2" d="M392.21,635.78c7.68.22,14.69-4.18,16.57-10.37,2-6.59-1.03-13.39-7.64-17.93-8.82-6.06-20.67-2.93-27.09,1.94-5.12,3.88-5.67,11.27-1.69,16.59,4.93,6.57,11.75,9.51,19.85,9.77ZM381.69,613.03c1.51-.55,3.15-.74,5.25-1.22-.42,4.76-4.15,8.34-2.01,13.25,4.94-2.52,5.7-7.83,9.52-11.02-.53,1.84-1.12,3.66-1.57,5.51-.49,1.98-.84,4-1.4,6.71,5.19-2.01,6.55-6.07,8.47-9.7,3.78,5.45,2.85,9.27-3,10.85-6.4,1.73-12.57,1.04-17.59-3.94-3.99-3.96-2.98-8.52,2.33-10.45Z"/>
  </g>
</svg>