<?xml version="1.0" encoding="UTF-8"?>
<svg id="Layer_1" data-name="Layer 1" xmlns="http://www.w3.org/2000/svg" viewBox="0 0 729.64 854.48">
  <defs>
    <style>
      .cls-1 {
        fill: none;
        stroke: #000;
        stroke-linecap: round;
        stroke-linejoin: round;
        stroke-width: 2px;
      }

      .cls-2 {
        fill: #32325f;
      }

      .cls-2, .cls-3, .cls-4 {
        stroke-width: 0px;
      }

      .cls-3 {
        fill: #e9c700;
      }

      .cls-4 {
        fill: #fff;
      }
    </style>
  </defs>
  <g>
    <path class="cls-3" d="M361.84,251.75c-.35-14.24,1.33-27.87,4.75-41.3.92-3.6,3.08-7.11,3.08-10.65,0-4.99-3.25-6.05-7.52-3.29-1.13.73-2.53,1.67-3.73,1.56-4.69-.39-9.34-1.28-14.03-1.75-2.66-.27-5.43.22-8.04-.23-2.22-.38-4.49-1.32-6.39-2.55-2.65-1.72-5.65-3.01-7.41-.08-1.15,1.92-1.1,6.83.06,7.49,6.23,3.55,6.06,9.73,6.92,15.19,1.74,10.94,2.73,22.01,4.05,33.23-7.85-.61-10.46-3.64-11.24-9.79-.55-4.38-1.78-8.99-3.97-12.78-3.98-6.89-8.73-13.36-13.47-19.78-8.87-12-14.12-25.42-14.97-40.22-.56-9.67,3.42-18.33,9.08-26.1,15.63-21.47,43.01-29.32,67.6-18.95,23.71,10,40.17,26.46,43.8,52.99,1.96,14.3-2.97,26.97-12.01,37.91-4.96,6-10.62,11.43-16.11,16.97-4.2,4.24-7.51,8.59-8.08,15-.64,7.1-2.58,7.91-12.39,7.13Z"/>
    <path class="cls-2" d="M441.98,261.16c1.84.87,3.86,1.49,5.5,2.65,19.52,13.85,39,27.76,58.4,41.76.99.71,1.24,2.43,1.84,3.68-1.56,0-3.55.63-4.61-.1-7.58-5.17-15.04-10.53-22.41-16-10.35-7.69-20.64-15.47-30.87-23.32-3.02-2.32-5.75-5.01-8.61-7.53.25-.38.5-.76.76-1.15Z"/>
    <path class="cls-2" d="M439.38,127.75c2.83-2.47,5.49-5.18,8.52-7.36,14.54-10.48,29.21-20.78,43.78-31.23,3.43-2.46,6.62-5.26,10.27-8.18,1.93,6.55-2.48,9.48-6.5,12.28-12.14,8.48-24.43,16.74-36.63,25.13-3.53,2.43-6.92,5.08-10.51,7.4-2.35,1.52-4.97,2.62-7.47,3.91-.48-.65-.97-1.29-1.45-1.94Z"/>
    <path class="cls-2" d="M253.63,186.11c-29.73-1.72-59.47-3.43-89.2-5.15.04-.56.07-1.12.11-1.69,7.76-3.92,84.37.82,89.09,6.83Z"/>
    <path class="cls-2" d="M195.86,287.92c2.19-1.87,4.19-4.02,6.59-5.58,15.5-10.08,31.07-20.05,46.64-30.02,1.8-1.15,3.63-2.38,5.62-3.07.99-.34,2.8.12,3.44.88.47.56.05,2.85-.65,3.28-19.43,11.79-38.94,23.45-58.47,35.09-.75.45-1.81.38-2.73.55-.14-.37-.29-.75-.43-1.12Z"/>
    <path class="cls-2" d="M203.39,54.06c5.75,5.46,11.65,10.77,17.21,16.43,8.75,8.89,16.76,18.58,28.55,23.9,1.27.57,1.74,2.91,2.58,4.43-1.74.15-3.49.42-5.23.41-.71,0-1.45-.55-2.1-.97-17.42-11.07-30.38-26.51-42.86-42.43.62-.59,1.24-1.18,1.85-1.77Z"/>
    <path class="cls-2" d="M474.52,191c22.65-1.03,44.98-6.35,67.78-5.28.14.69.28,1.37.42,2.06-1.65.6-3.25,1.55-4.95,1.75-17.42,2.01-34.84,4.04-52.29,5.73-3.69.36-7.52-.66-11.28-1.04.11-1.07.21-2.15.32-3.22Z"/>
    <path class="cls-2" d="M345.08,69.63c-5.4-23.06-1.72-48.02-14.66-69.63,6.07,4.29,9.33,10.34,10.68,16.88,2.48,11.98,3.98,24.17,5.87,36.27.63,4.05,1.43,8.08,1.71,12.16.11,1.6-.99,3.29-1.54,4.94-.69-.21-1.37-.42-2.06-.63Z"/>
    <path class="cls-2" d="M409.7,171.63c-4.98-22.47-31.43-48.87-61.85-47.68-21.33-.76-36.96,9.91-47.53,28.9-7.88,14.16-5.68,28.65.78,42.25,4.89,10.29,12.07,19.48,17.93,29.33,1.62,2.72,2.16,6.08,3.22,9.14,1.31,3.78,2.91,7.49,3.89,11.35.96,3.75,2.21,7.78,1.68,11.45-.72,4.98-.12,8.7,3.54,12.28,2.38,2.33,4.78,4.96,6.13,7.93,2.68,5.87,7.38,7.7,13.15,7.84,5.65.14,9.28-2.83,11.52-7.9.62-1.41,1.63-2.99,2.9-3.71,7.55-4.28,9.79-8.39,7.7-16.94-.78-3.2.54-4.34,2.31-6.42,2.31-2.72,3.59-6.34,5.2-9.63,1.39-2.86,2.04-6.27,4-8.61,4.76-5.66,10.44-10.56,15.13-16.27,10.43-12.68,13.85-27.26,10.29-43.33ZM394.12,211.15c-4.22,5.11-9.05,9.74-13.73,14.46-3.58,3.61-6.4,7.32-6.89,12.79-.55,6.05-2.19,6.74-10.56,6.08-.3-12.14,1.13-23.76,4.05-35.2.78-3.07,2.63-6.06,2.62-9.08,0-4.25-2.77-5.16-6.41-2.8-.96.62-2.16,1.42-3.18,1.33-4-.34-7.96-1.09-11.96-1.49-2.27-.23-4.63.18-6.85-.2-1.89-.33-3.83-1.12-5.44-2.17-2.26-1.47-4.81-2.57-6.32-.06-.98,1.64-.94,5.82.05,6.38,5.31,3.02,5.16,8.3,5.9,12.95,1.48,9.33,2.32,18.76,3.45,28.32-6.69-.52-8.92-3.1-9.58-8.35-.47-3.73-1.52-7.67-3.38-10.89-3.39-5.87-7.44-11.39-11.48-16.86-7.56-10.23-12.03-21.67-12.76-34.28-.47-8.24,2.92-15.62,7.74-22.25,13.32-18.3,36.66-24.99,57.62-16.15,20.21,8.52,34.24,22.55,37.34,45.17,1.67,12.19-2.53,22.99-10.23,32.31Z"/>
    <path class="cls-4" d="M355.42,243.85c-2.51,0-5.05.02-7.59-.01-.59,0-1.17-.18-1.97-.32-1.75-12.97-3.5-25.88-5.43-40.18,6.93.82,13.41,1.59,19.9,2.36-1.72,13.41-3.29,25.63-4.9,38.15Z"/>
    <path class="cls-4" d="M363.13,253.73c-4.27.56-8.57.96-12.79,1.77-1.29.25-2.36,1.62-3.53,2.48,1.1.74,2.14,1.99,3.3,2.12,3.87.44,7.8.37,11.68.73,1.27.12,2.47.94,3.71,1.43-1.19,1.1-2.31,3.04-3.59,3.14-4.34.36-8.74.17-13.11,0-3.31-.14-6.67-.29-9.87-1.03-1.68-.39-3.06-2.05-4.58-3.14.9-1.09,1.69-2.31,2.72-3.25,2.42-2.21.39-3.23-.98-4.62-.86-.87-1.41-2.04-2.1-3.07,1.33-.28,2.68-.87,3.99-.79,6.61.42,13.22.98,19.82,1.55,1.79.16,3.57.54,5.35.82-.01.62-.02,1.23-.04,1.85Z"/>
    <path class="cls-2" d="M388.56,199.17c-.39-3.11-1.19-5.6-.93-7.97,1.51-13.7-2.96-24.43-14.56-32.33-7.9-5.38-15.66-10.77-25.06-13.29-1.22-.33-2.09-1.99-3.12-3.03,1.35-.8,2.66-2.16,4.06-2.27,1.87-.15,3.91.42,5.71,1.13,12.15,4.77,22.77,11.92,31.5,21.59,7.86,8.71,9.2,27.22,2.41,36.18Z"/>
    <path class="cls-2" d="M338.38,145.74c-2.19,1.7-3.42,3.36-4.76,3.46-1.03.08-2.22-1.79-3.34-2.79,1.09-1.18,2.01-2.98,3.33-3.35.97-.27,2.47,1.31,4.76,2.68Z"/>
    <path class="cls-1" d="M389.93,196.9c.15-5.45.3-10.9.45-16.35"/>
  </g>
  <g>
    <g>
      <path class="cls-4" d="M426.75,606.56c7.44,3.08,14.89,6.16,22.12,9.16-2.32,4.88-4.27,8.99-6.11,12.85,6,1.39,11.47,2.65,16.93,3.92l-.17,1.29c-2.16,0-4.34.22-6.47-.05-2.93-.38-5.81-1.16-8.72-1.72-3.49-.68-4.29-1.64-3.38-5.08.83-3.14,2.06-6.18,3.32-9.85-4.15-1.44-7.9-3.36-11.85-3.94-3.67-.54-4.93-2.75-6.45-5.19.25-.46.51-.92.76-1.37Z"/>
      <path class="cls-4" d="M599.11,552.13c2.39,1.95,1.77,3.93.83,6.03-2.94,6.54-8.19,10.38-14.89,12.18-5.02,1.35-9.87,2.8-13.65,6.63-.34.35-1.14.25-2.54-.4.92-1.31,1.56-3.07,2.81-3.85,2.92-1.82,6.07-3.31,9.24-4.67,2.57-1.11,5.39-1.65,7.95-2.79,5.63-2.51,9.31-6.73,10.25-13.13Z"/>
      <path class="cls-4" d="M480.09,610.21c-6.1,13.39-.48,21.82,9.51,28.67-4.99,1.56-9.92-2.02-13.35-9.51-3.93-8.59-3.03-14.76,3.84-19.16Z"/>
      <path class="cls-4" d="M588.58,592.14c.72-1.04,1.21-2.52,2.2-3.01,2.04-1.03,4.29-1.88,6.54-2.19,8.78-1.22,17.95-.2,26.05-5.13-2.51,3.74-7.97,6.43-13.96,7.12-3.79.44-7.66.43-11.4,1.12-2.86.53-5.58,1.83-8.36,2.79-.36-.23-.71-.47-1.07-.7Z"/>
      <path class="cls-4" d="M524.4,600.47c-2.7-1.35-3.04-2.81-1.37-5.21,2.53-3.64,5.25-6.85,9.8-7.83,4.1-.88,6.04,1.12,5.24,5.27-6.87-2.42-9-1.24-13.68,7.78Z"/>
      <polygon class="cls-4" points="425.99 715.07 393.15 726.02 265.81 698.98 260.1 620.21 267.76 594.81 343.05 587.02 416.05 591.18 425.99 630.88 425.99 715.07"/>
      <path class="cls-4" d="M463.75,546.77c-27.66,1.61-50.87,2.47-67.97,2.97-40.67,1.17-61.55,1.72-88.73-.25-25.84-1.87-46.99-5.23-61.3-7.91-3.25-7.24-8.12-19.23-11.86-34.6-4.3-17.68-6.34-36.67-3.1-102.23.62-12.49,1.58-29.88,3.1-50.76,3.23-1.78,8.21-4.23,14.58-6.18,21.95-6.7,41.08-1.48,50.38.65,3.59.82,32.31.83,89.76.85,17.11,0,41.7-.12,71.68-.76,2.19,3.1,5.18,7.85,7.66,14.09,5.77,14.5,4.94,27.26,4.45,34.85-2.22,34.63-3.33,51.95-3.46,61.3-.4,29.77-.61,44.66,1.48,51.9,1.03,3.58,3.87,12.43.99,22.49-1.76,6.13-5.06,10.66-7.66,13.59Z"/>
    </g>
    <path class="cls-2" d="M169.66,804.89c9.47-.08,18.96.49,28.43.79,1.02.03,2.04,0,3.06,0,.1-.41.19-.82.29-1.23-4.53-2.28-8.89-5.02-13.63-6.75-10.91-3.97-22.2-2.22-33.36-1.3-12.06.99-24.09,2.49-36.17,3.19-7.56.43-15.1-.58-22.69-1.45-14.9-1.71-29.55-3.96-43.88-8.35-.84-.26-1.63-.69-2.79-1.2,5.8-2.56,11.06-1.94,16.38-.25,2.53.8,5.12,1.5,7.74,1.88,6.4.93,12.82,1.75,19.25,2.4,2.53.26,4.9-.39,5.67-4.22-9.96-2.56-20.6-1.66-29.58-7.16,1.43-.31,2.83-.36,4.19-.14,4.24.71,8.44,1.7,12.7,2.23,2.94.36,5.99.38,8.92.02,1.02-.13,1.83-1.86,2.74-2.86-1.04-.56-2.03-1.43-3.13-1.61-2.45-.39-5.04-.08-7.42-.67-11.53-2.86-23.03-5.87-34.51-8.94-2.03-.54-3.83-1.24-5.18,1.46,1.13,1.75,2.28,3.54,3.44,5.33,3.32,5.16,2.31,8.57-3.41,10.74-3.52,1.34-7.17,2.31-11.04,3.54.75,1,1.39,1.95,2.12,2.81,8.15,9.56,14.57,20.13,18.97,31.92.92,2.47,1.94,4.98,3.41,7.15,1.04,1.54,2.86,3.49,4.42,3.58,6.06.33,12.07-.6,18.41-2.1-1.19-2.1-2.05-3.63-3.07-5.42h-18.84c-.07-.52-.14-1.03-.21-1.55,5.89-.82,12.18,1.2,18.05-1.12-.36-1.15-.42-1.97-.67-2.03-4.98-1.21-9.96-1.65-14.9.23-.07.03-.21-.14-.48-.33-1.2-8.25-3.75-16.16-9.67-24,34.78,10.92,82.6,5.38,103.61,5.82"/>
    <path class="cls-2" d="M160.78,805.84c.29-.17.59-.34.88-.5"/>
    <path class="cls-2" d="M46.46,752.89c-.57.46-.96,1.13-1.98,2.38,7.56,2.32,14.34,4.94,21.36,6.44,8.42,1.8,17.03,2.67,25.57,3.86,1.1.15,2.43.03,3.37-.47,1-.54,1.67-1.69,2.48-2.58-.88-.58-1.69-1.49-2.65-1.67-6.01-1.13-12.07-2.02-18.08-3.16-4.12-.78-8.19-1.86-12.29-2.8.07-.32.13-.64.2-.96.81.05,1.63.03,2.43.15,7.71,1.17,15.41,2.43,23.13,3.52,2.22.31,4.68.95,6.9-2.06-4.33-3.9-9.9-3.72-15.02-4.78-5.2-1.07-10.39-2.23-15.58-3.35.07-.39.13-.78.2-1.17,9.6-.27,19.17,2.86,29.85.9-3.69-4.29-7.78-4.78-11.87-5.33-10.26-1.4-20.51-2.86-31.47-4.4,1.1-.54,1.51-.91,1.92-.91,7.13-.04,14.26-.09,21.39-.01,6.65.07,13.31.33,19.96.42,2.4.03,4.57-1.22,4.73-3.49.08-1.11-2.18-2.42-3.44-3.58-.35-.32-.89-.56-1.36-.58-2.92-.12-3.23-2.11-2.66-5.09-8.78-.73-17.06-1.41-25.34-2.1.03-.41.05-.81.08-1.22h9.26v-5.75c-4.76-.33-9.22-.64-13.68-.95,9.12-3.71,18.84-.32,28.6-3.86-2.92-2.7-5.79-3.38-8.72-3.42-10.29-.15-20.58-.21-30.87-.11-4.49.04-5.9,1.72-5.73,6.17.06,1.48.32,2.99.7,4.43.94,3.53.05,6.92-1.13,10.1-2.19,5.86-1.81,7.03,4.65,9.09-4.2,1.58-3.75,4.3-2.58,7.41,1.29,3.43.67,6.53-2.33,8.96Z"/>
    <path class="cls-2" d="M507.5,806.98c9.27-.38,18.41-2.69,27.79-1.61,4.43.51,8.9.59,13.35.9,9.41.65,18.81,1.52,28.23,1.93,5.57.24,11.17-.22,17.13-.38-.2-2.38-.33-3.96-.48-5.88-28.61-.63-76.86,1.15-85.02-1.89-.58-.22-.28-1.43.17-1.86,3.57-3.4,9.84-.53,14.77-.62,9.95-.19,19.91-.51,29.86-.34,11.81.21,23.6.91,35.4,1.31,1.37.05,2.76-.47,4.17-.73-1.26-5.07-2.32-5.92-6.91-6.09-6.29-.23-12.59-.74-18.88-.68-21.14.2-42.27.46-63.4.99-6.19.16-17.64.08-19.18,2.05-1.82,2.34,5.12,6.47,7.53,9.52,4.39,0,10.79-3.86,13.66,0,.81,1.09-.67,2.23-1.02,3.38,1.21,0,2.02.03,2.83,0Z"/>
    <path class="cls-2" d="M59.35,805.61c.69,3.58,2.44,5.43,5.51,6,3.25.6,6.51,1.22,9.79,1.66,9.03,1.21,18.05,2.84,27.12,3.36,12.93.75,25.91.68,38.87.91,5.65.1,11.31.09,16.96.06.57,0,1.15-.5,1.85-.83-.09-1.4-.18-2.67-.3-4.47-33.63.43-66.77.7-99.79-6.69Z"/>
    <path class="cls-2" d="M723.52,824.24c-7.72.99-15.49,2.23-23.24,2.23-10.26,0-20.53-1.06-30.79-1.66-11.13-.65-22.26-1.19-33.38-1.97-7.62-.54-15.22-1.44-22.84-2.12-2.19-.2-4.91-.32-5.18,2.48-.28,2.93,2.74,3.04,4.7,3.29,2.79.35,5.65.11,8.48.1,17.16-.12,34.28.51,51.37,2.16,7.61.73,15.31.61,22.9,1.43,10.22,1.11,20.21-.49,30.23-1.78,1.23-.16,2.32-1.37,3.86-2.34-2.26-2.8-4.07-2.07-6.12-1.81Z"/>
    <path class="cls-2" d="M612.37,804.02c-.82-.04-1.8-.08-2.45.3-1.01.6-1.8,1.56-2.69,2.37.91.76,1.76,2.09,2.73,2.18,5.14.47,10.33.4,15.46.95,6.22.67,12.39,1.76,18.58,2.67-.04.54-.07,1.08-.11,1.62h-33.96c.38,3.97.38,4.08,2.4,4.21,10.84.73,21.64.4,32.37-1.42,2.68-.45,5.87-1.23,6.07-4.21.22-3.35-3.04-4.3-5.83-5.03-10.68-2.78-21.64-3.07-32.57-3.66Z"/>
    <path class="cls-2" d="M52.35,767.09c10.47,2.36,20.85,5.11,31.33,7.41,3.53.77,7.25.85,10.89.88,2.43.02,4.04-1.56,4.13-4.09.09-2.83-2.21-2.23-3.94-2.51-10.77-1.75-21.53-3.57-32.3-5.29-1.41-.22-2.9.05-4.67.1-3.87-5.12-10.97-4.22-16.48-6.97,1.68,5.92,5.36,9.18,11.04,10.46Z"/>
    <path class="cls-2" d="M189.9,749.02c2.41-.75,5.44-1.92,4.52-4.83-.87-2.76-4.07-1.56-6.19-1.06-6.78,1.61-13.46,3.6-20.23,5.21-7.24,1.72-14.55,3.17-21.83,4.73-.01.32-.03.65-.04.97,1.06.26,2.11.65,3.19.75,13.98,1.32,27.36-1.68,40.58-5.78Z"/>
    <path class="cls-2" d="M174.85,813.12c.73,1.87,1.29,3.31,2.07,5.33.46-1.39.67-2.06.81-2.49,1.48.94,2.74,2.28,4.21,2.56,3.56.68,7.2.89,10.82,1.25,6.26.62,12.52,1.25,18.79,1.78,1.89.16,3.8.02,5.88.02-1.87-4.06-5.24-6.46-9.19-6.85-1.98-.19-3.96-.34-5.93-.62-9.01-1.25-18.04-1.55-27.46-1Z"/>
    <path class="cls-2" d="M108.59,762.65c.75-2.99.69-6.18,1.04-10.13-.96-3.95-1.92-8.64-3.31-13.19-.54-1.75-1.57-3.94-4.21-3.4-1.77.36-3.71,4.15-3.28,6.19.17.8.64,1.53.92,2.31,1.83,5.11,2.46,10.3,1.34,15.68-.34,1.61-.48,3.32-.37,4.96.18,2.68,2.42,3.91,4.51,2.29,1.48-1.15,2.93-2.94,3.37-4.71Z"/>
    <path class="cls-2" d="M99.88,795.17c.6,1.26,1.37,3.05,2.42,3.32,1.01.27,3.13-.79,3.57-1.79,1.23-2.79,1.83-5.86,2.69-8.81-.44-5.08-1.16-9.75-4.56-13.6-2.26-2.55-4.44-2.12-5.32,1.14-.32,1.19-.41,2.72.07,3.8,1.95,4.41,2.1,8.87,1.14,13.49-.16.79-.32,1.78,0,2.44Z"/>
    <path class="cls-2" d="M352.06,742.51c-7-2.14-16.77-5.95-24.08-8.18v7.37c7.56,2.09,15.04,4.15,23.03,6.36,1.13-2.7,1.58-3.18,1.05-5.55Z"/>
    <path class="cls-2" d="M618.13,830.06c-5.36.52-10.71,1.25-16.06,1.91-.13.56-.26,1.12-.39,1.69,1.21.61,2.41,1.69,3.65,1.75,3.64.18,7.31.02,10.96-.15.95-.04,2.12-.33,2.77-.95.73-.7,1.3-1.9,1.3-2.88,0-.49-1.49-1.45-2.23-1.37Z"/>
    <path class="cls-2" d="M326.58,726.65c5.06,1.6,10,3.57,15,5.35,11.48,4.07,13.48,7.74,13.9,7.8,3.46.5,1.31-1.21-3.62,2.66-1.77,1.39-1.18,4.83-1.05,5.55,2.9,16.93,44.25,24.82,44,25.62-.04.14-1.49.29-9.1-2.14-14.86-4.73-28.42-9.05-40.3-15.75-1.7-.96-5.57-3.21-7.23-1.86-.93.76-1.1,2.6-.46,3.84.76,1.48,2.58,1.94,3.17,2.09,5.95,1.52,22.43,7.11,28.27,9.45,3.57,1.43,11.48,4.95,18.99,7.27.95.29,3.71,1.11,6.81.16,1.96-.6,5.03-2.2,4.97-3.99-.06-1.93-3.67-2.25-9.04-5.84-4.44-2.97-8.18-6.91-7.7-7.63.36-.53,3.03.7,4.04,1.16,7.87,3.61,8.4,8.13,13.43,10.31.55.24,2.5,1.04,2.64,2.35.07.72-.45,1.12-.26,1.83.26,1.02,1.64,1.48,2.04,1.62,2.46.83,4.99-.28,5.37-.44,8.51-3.69,18.14-4.53,26.47-8.6,16.14-7.89,32.05-10.2,52.43-13.16,3.13-.45,9.63-1.33,18-1.93,14.37-1.03,28.77-2.06,46.41.19,7.66.98,17.66,2.8,18.31.81.47-1.47-4.31-4.42-3.75-5.31.36-.58,2.44.65,5.74.19.99-.14,3.07-.43,3.37-1.51.38-1.36-2.3-3.09-2.51-3.22-2.53-1.61-5.29-1.48-5.71-1.46-7.87.32,12.17-5.27-42.64-2.92-27.9,1.2-41.85,1.8-48.26,3.31-7.58,1.79-31.87,8.22-48.91,13.35-1.34.4-4.57,1.38-4.67,1.12-.2-.53,13.07-6.2,23.44-9.92,17.67-6.34,31.71-8.73,44.36-10.83,26.25-4.35,39.38-6.53,51.1-4.17,10.73,2.16,22.22,1.01,32.49,4.8.6.22,2.71,1.05,3.43.25.65-.72.07-2.61-1.04-3.72-1.1-1.09-2.55-1.26-2.91-1.31-10.05-1.2-20.04-4.63-30.12-3.79-42.34,3.53-45.11,1.82-68.36,6.49-14.78,2.97-22.13,5.36-22.23,5-.19-.69,27.02-13.62,61.13-16.13,33.83-2.48,62.38,6.18,63.36,2.3.2-.79-.83-1.82-5.61-4.78-18.16-11.28-24.53-9.7-38.78-18.26-6.26-3.76-13.05-6.61-19.24-10.5-.5-.31-2.22-1.42-4.74-2,0,0-1.53-.35-3.17-.37-22.38-.28-43.37,5.76-43.37,5.76-24.5,7.04-27.88,10.6-31.67,7.74-4.74-3.58-.88-10.24-1.95-33.21-.79-16.96-3.55-27.11.47-29.06,1.06-.51,1.81-.08,9.76,3.43,14.84,6.56,15.99,6.72,17.53,6.6,2.43-.19,5.6-1.06,10.27-.05.88.19.83.24,2.78.78,6.41,1.79,9.61,2.68,11.46,2.35,2.38-.43,4.75-2.54,9.49-6.74,1.93-1.72,3.27-3.08,3.54-3.35,7.26-7.33,15.91-9.02,28.79-18.38,0,0,7.77-5.64,14.76-8.94.85-.4,1.81-.81,1.81-.81,2.32-1,3.78-1.63,4.83-1.83,1.33-.25,3.24.73,7.01,2.69,6.58,3.42,6.95,3.62,8.01,3.84,2.01.41,2.25.02,7,.38,1.63.13,2.99.28,5.39.59,11.3,1.48,15.11,2.55,19.36,1.24,3.02-.93,4.22-2.44,4.57-2.93.78-1.07.64-1.58,1.3-2.61,1.11-1.72,2.78-2.25,5.91-3.38,4.28-1.55,6.42-2.33,8.33-3.33,3.25-1.69,4.99-2.64,5.59-4.55.32-1.03.56-3.1.53-4.97-.01-.91-.08-1.34.11-1.99.52-1.79,2.23-2.74,2.84-3.09,5.91-3.39,12.49-9.9,13.52-10.91,2.62-2.59,4.21-4.2,3.81-5.85-.42-1.79-2.91-2.54-3.86-6.01-.13-.46-.19-.69-.22-1.03-.27-3.51,4.38-4.85,7.99-10.73.86-1.39,1.47-2.74,1.27-4.31-.2-1.55-1.11-2.63-1.47-3.04-.32-.37-1.56-1.79-3.48-2.07-1.65-.24-3,.48-3.71.87-4.71,2.58-7.06,3.88-8.88,5.53-6.75,6.14-17.65,10.88-19.78,8.72-.77-.78.26-1.81.32-5.98.03-1.84.05-5.49-1.58-9.08-.61-1.35-2.95-6.47-6.91-7.02-2.74-.39-4.85,1.61-8.59,4.83-4.38,3.78-9.14,7.12-13.47,10.96-11.89,10.57-11.53,8.25-17.24,14.19-7.97,8.27-11.02,15.22-14.3,14.32-2.24-.62-1.65-4.1-5.37-6.32-3.54-2.11-7.77-1.16-9.08-.86-2.47.56-3.63,1.48-7.45,3.74-3.07,1.82-6.29,3.38-9.39,5.15-15.39,8.8-25.44,13.72-34.73,17.33-2.86,1.11-5.25,1.94-8.47,2.24-5.09.48-7.37-.82-15.29-2.33-6.97-1.33-13.58-1.92-14.78-2.02-5.99-.52-10.14-.5-14.23-3.5-.88-.64-1.62-1.4-3.1-2.92-4.98-5.1-5.6-7.63-8.31-10.03-2.34-2.07-5.09-2.71-10.49-3.9-8.58-1.89-16.47-2.09-22.79-1.88-11.75.4-13.69,2.08-16.87-.06-6.16-4.15-7.32-16.2-3.25-19.27,2.06-1.55,4.8-.31,9.85.92,4.31,1.04,10.65,1.31,23.35,1.86,7.44.32,19.18.75,33.57-2.53,8.25-1.88,13.94-4.19,20.77-6.96,10.9-4.43,14.85-7.32,17.7-9.95,2.07-1.92,4.79-4.48,6.8-8.66,2.6-5.43,2.48-10.43,2.3-14.93-.44-10.88-.66-16.32-1.81-24.79-1.13-8.37-1.34-17.87-1.77-36.85-.25-11.14-.45-20.1.07-31.94.71-15.98,2.37-28.68,2.54-51.22.07-8.7-.13-13.64-3.07-19.07-5.88-10.85-17.88-14.68-21.88-15.89-12.85-3.9-22.62-.91-34.91,1.18-8.07,1.37-22.68,1.4-51.89,1.47,0,0-32.59.07-75.21-2.51-7.48-.45-14.99-.33-22.47-.75-7.45-.41-10.7-.75-15.78.25-4.54.9-10.96,2.16-15.9,7.3-2.86,2.97-5.93,7.99-7.24,11.47-.26.7-1,2.79-2.55,5.31-1.24,2.01-1.43,1.74-2.02,2.91-1.31,2.58-1.08,5.26-.72,9.2.3,3.23.8,4.82.52,4.91-.38.12-1.96-2.54-2.72-5.78-.91-3.84-.03-5.77-1.08-6.37-1.43-.82-5.44,1.33-5.81,4.02-.41,2.95,3.81,4.64,4.44,10.08.13,1.15.06,2.07-.18,2.12-.83.19-2.1-9.99-6.46-10.9-1.63-.34-3.93.56-4.58,2.15-2.09,5.1,13.71,14.68,11.65,18.37-.32.58-.95.77-1.3.88-5.45,1.7-17.53-13.05-14.42-19.07.23-.45.46-.67,4.77-3.1,4.73-2.67,8.98-4.95,12.27-8.47,1.09-1.17,2.21-2.61,1.77-3.68-.22-.56-.78-.82-.98-.9-1.78-.8-4.13.75-5.54,1.64-6.23,3.95-5.42,2.25-9.59,5.31-3.46,2.54-6.84,5.02-9.27,9.34-2.08,3.69-2.55,7.08-2.81,9.19-2.4,19.18-1.77,26.8-1.77,26.8,1,12.23-1.04-.12.3,59.69.87,39.08,1.6,37.7.81,42.79-.25,1.61-1.27,7.9.06,15.84.77,4.6,1.77,10.18,6.05,15.25,4.02,4.75,8.89,6.65,12.72,8.14,6.93,2.69,12.8,2.95,15.59,3.07,34.82,1.52,19.96,1.49,33.37,1.6,32.7.27,49.06.4,50,.11,1.03-.32,3.68-1.2,6.05,0,5.64,2.86,7.17,16.2,1.89,20.95-2.48,2.23-4.67.96-15.38,1.14-13.2.21-20.96,2.32-24.17,3.31-5.18,1.59-8.24,2.57-11.29,5.43-2.54,2.38-6.1,7.01-7.26,13.17-.8,4.25-.07,7.19-1.68,7.96-1.54.74-3.59-1.3-5.69-2.64-6.48-4.13-16.74-3.63-23.09.2-6.2,3.73-8.51,10.53-11.77,20.12-1.35,3.97-.56,2.83-2.31,8.57-2.74,8.98-4.4,10.86-12.27,29.42-.94,2.22-1.01,2.41-1.37,2.79-3.1,3.24-10.04,1.37-51.15-17.78-16.02-7.46-22.64-10.75-27.69-14.62-.82-.63-3.01-2.36-6.34-3.97-4.11-1.98-8.2-2.93-12.83-3.4-13.59-1.38-14.53,3.13-26.82,2.05-2.94-.26-6.25.31-12.87,1.45-.87.15-2.7.49-3.66,1.96-.77,1.18-.59,2.47-.56,2.64.38,2.45,3.26,3.92,5.46,4.12.55.05.84,0,2.16-.18,2.08-.28,4.17-.45,6.24-.77,13.93-2.14,11.99-.82,20.82-2.36,2.67-.46,6.12-1.16,7.09.33.3.46.39,1.16.1,1.65-.54.92-2.28.83-3.99.69-3.84-.3-5.76-.45-7.38-.82,0,0-9.17-2.08-18.83,2.06-1.47.63-2.72,1.36-2.74,2.27-.02,1.03,1.54,2,2.8,2.35,1.18.32,2.18.13,2.46.07,6.86-1.42,23.67-6.98,26.75-3.18.62.76.75,1.98.86,2.95.17,1.55.01,3.75-.78,4.82-1.96,2.67-8.37-.74-17.15-1.21-8.74-.47-16.74,2.14-16.69,3.28.05,1.13,8.08,2.39,16.04,1.83,9.89-.7,16.15-3.96,17.56-1.8.77,1.17-.19,3.51-1.5,4.99-7.52,8.48-32.88-3.79-35.09.93-.4.86-.2,2.62.72,3.59.96,1.02,2.52.98,3.16.97,11.84-.25,13.12,1.94,21.92-.14,4.11-.97,7.4-2.29,8.12-1.17.37.57,0,1.7-.59,2.37-.78.86-1.96.94-2.59.97-7.64.48-5.17.67-6.96.46-10.93-1.25-22.01.88-26.14-.39-.32-.1-1.38-.46-2.39,0-.84.38-.97,1.03-1.49,1.6-1.57,1.71-4.13-.09-7.3,1.23-.35.15-3.07,1.28-3.42,3.54-.28,1.8,1.08,3.52,2.26,4.38,2.07,1.51,3.6.38,5.05,1.63,2.19,1.87.09,5.57,1.77,7.02,1.68,1.44,4.6-1.51,11.62-3.4,7.23-1.94,10.31-.47,15.88-1.73.12-.03,2.07-.47,4.47-.05,1.57.27,2.16.71,2.5,1.06.72.74,1.21,1.99.86,3-.48,1.38-2.38,1.85-3.26,2.05-14.64,3.44-21.64,3.36-21.64,3.36-4.37-.05-11.65-.33-18.25,1.44-1.41.38-3.8,1.12-4.49,3.04-.73,2.03.87,4.16.96,4.27,1.11,1.43,2.79,2.03,5.12,2.37,5.65.83,10.34-.51,10.45-.54,12.69-3.63,32.3-4.41,37.17-3.76.27.04,1.77.25,3.47-.35,1.55-.55,3.51-1.86,3.68-3.59.06-.59-.13-.84-.44-1.79-.18-.55-1.34-4.33-.67-8.14.16-.92.41-1.72-.02-2.54-.4-.74-1.33-1.43-1.82-1.21-1.41.62,2.66,7.98,0,10.93-2.24,2.49-8.63,1.14-9.11-.72-.24-.9,1.09-1.32,2-3.66.28-.72,1.31-3.38.16-5.73-.97-1.97-3-2.74-4.74-3.4-2.8-1.06-5.27-.99-5.27-.96,0,.06,11.5-.32,26.79,2.04,21.75,3.35,20.6,7.53,40.05,10.05,11.05,1.43,23.59,1.66,24.23,5.58.1.6-.11,1.1-.17,1.22-1.4,3.03-9.77,1.67-31.36-1.72-10.34-1.62-21.04.02-31.33-1.86-.58-.11-3.42-.64-4.34.67-.97,1.37.65,4.1-.03,4.49-.47.27-1.26-1-2.33-.83-.29.05-1.04.27-1.77,1.92-1.35,3.05-.67,6.49-.54,7.15,1.5,7.78.63,16.77.44,18.79-.29,2.99-.74,5.06.59,6.92,1.51,2.1,4.28,2.52,5.5,2.69,24.04,3.28,35.76,2.07,35.76,2.07,14.28-1.47,21.42-2.21,25.75-2.74,11.56-1.43,23.57.58,34.89-2.18,1.03-.25,3.99-1.03,6.19.49,1.41.98,1.93,2.51,2.84,5.21,1.02,3.02,1.14,5.42,1.13,6.79-.02,2.04-.04,3.37-.93,4.53-1.27,1.64-3.5,1.87-4.25,1.96-9.4,1.1-18.19,5.42-27.53,6.94-19.8,3.24-15.84,3.34-22.53,4-11.38,1.13-30.51,1.6-38.9,1-2.74-.2-5.47.15-10.94.84-.42.05-1.58.21-2.92.85-2.19,1.05-4.6,3.27-4.23,4.68.44,1.67,4.75,1.88,7.41,1.98,16.24.6,32.05-.61,39.48-1.09,8.32-.54,7.74-.27,12.15-.73,4.2-.43,13.45-1.43,24.73-4.71,8.74-2.54,17.87-3.66,26.54-6.43.58-.19,2.42-.8,3.92.08.92.53,1.34,1.41,1.54,1.84,3.78,8.17,5.64,12.29,4.62,14.21-1.49,2.79-5.07,3.66-5.75,3.83-2.19.53-4.29.19-5.77-.05-2.12-.34-2.74-.8-4.9-.92-1.83-.1-3.05-.16-4.05.62-1.34,1.05-2.01,3.41-1.17,4.64,1.58,2.3,8.36.37,11.71-.59,7.26-2.08,9.46-4.54,11.38-3.3,2.73,1.76,1.86,9.03,0,9.57-1.56.45-3.66-3.89-4.85-3.37-1.17.51,1.08,4.61-.73,7.12-1.56,2.17-4.6,1-16.77-.08-.67-.06-2.13-.19-3.06-1.26-1.16-1.33-.85-3.37-.76-3.91.29-1.9,1.17-2.25,1.51-3.63.61-2.47-1.25-5.25-2.68-6.56-2.6-2.4-5.77-1.76-12.08-1.83-7.5-.09-5.45-1.03-15.77-1.51-6.86-.32-5.05.22-16.88.13-6.96-.05-9.9-.26-13.78,1.52-1.17.54-6.18,2.83-6.1,5.82.06,2.28,3.07,4,6,5.32,8.94,4.04,16.12,3.9,25.29,4.93,4.79.54,18.69,2.11,33.48,7.55,3.71,1.36,4.94,2.04,7.95,2.64,7.58,1.51,18.06.86,21.88.62,1.13-.07,3.3-.22,5.65.84,2.57,1.16,4.02,3.17,4.78,4.25,1.2,1.71,2.6,3.7,2.12,5.68-.54,2.24-3.22,3.37-4.6,3.93-29.67,12.04-34.74,11.31-37.12,8.74-.85-.92-1.44-2.17-3.26-3.21-2.72-1.55-5.51-1.11-8.41-.88-3.86.3-7.73-.28-11.6-.3-7.63-.05-12.05-.92-17.69-1.54-9.76-1.07-8.78.22-30.5-.07-19.12-.25-28.68-.38-34.24-2.12-1.39-.44-4.22-1.41-4.7-.64-.58.95,2.37,4.58,6.28,5.96,1.86.66,3.57.68,4.96.69,4.05.05,6.63-1.13,7.36-.03.25.38.26.98,0,1.41-.67,1.12-3.08.9-10.77.61-.94-.04-2.64-.08-3.48.98-.49.62-.24,1.05-.58,1.47-1.38,1.66-7.5-2.9-9.38-1.26-1.14.99-.65,4.19,1.06,5.43,1.22.89,2.81.58,3.82.4,3.76-.69,7.7-.41,11.36-1.5,13.48-4,35.92-4.08,39.65-4.07.9,0,9.34.04,9.36.62.03.57-8.14,1.19-16.93,2.24-36.41,4.32-54.62,6.48-60.82,7.94-1.62.38-5.85,1.43-9.73-.6-2.58-1.35-3.88-3.46-5.81-6.58-3.8-6.16-6.12-13.02-6.12-13.02-.59-1.73-1.52-4.74-3-4.81-.49-.02-.88.29-.97.37-1.54,1.27-.5,5.37.98,9.65,3.08,8.91,4.62,13.37,8.03,16.4,5.01,4.46,10.81,5.35,13.34,5.71,5.5.77,9.82-.31,11.84-.81,2.44-.6,25.23-6.23,38.47-8.02,3.61-.49,11.59-.51,27.57-.56,18.42-.06,20.37.49,28.6-.11,8.76-.65,15.65-2.13,29.42-5.11,13.59-2.93,27.36-5,41.03-7.57.03,0,.17-.03.35-.04.52-.01,1.13.17,1.21.34.21.49-3.12,2.53-5.42,3.66-9.66,4.76-21.82,4.78-21.82,4.78-15.47.02-13.17,3.75-47.7,7.6-14.73,1.64-19.01,1.39-23.68-.18-3.16-1.06-8.43-3.39-9.35-2.04-.6.89.95,2.95,1.14,3.21,1.69,2.24,4.2,3.02,5.3,3.3,12.02,3.11,21.71.73,21.71.73,21.22-5.22,18.49-.51,37.86-5.96,0,0,26.79-7.54,37.81-6.34,2.84.31,4.36,1.08,4.36,1.08,1.5.76,2.02,1.54,3.66,2.08,1.45.47,2.65.4,3.15.38.78-.03,48.63-1.93,52.38-1.94.47,0,2.14.02,2.75-.96.36-.57.21-1.24.17-1.4-.36-1.6-2.46-2.14-2.71-2.2-.76-.18-1.37-.11-1.48-.1-5.02.57-17.65-1.75-35.89,1.27,0,0-7.59,1.26-16.92-.26-1.41-.23-3.02-.68-3.4-1.8-.24-.71.09-1.4.17-1.56,1.21-2.51,7.49-2.23,8.81-2.18,7.64.32,15.32-.32,22.95.26,32.09,2.41,34.81-1.04,39.45-.7.3.02,1,.09,1.66-.31,1.58-.98,1.25-3.75,1.76-3.8.53-.05.44,3,2.31,4.5,1.86,1.5,5.45,1.29,6.8-.51,1.12-1.49.57-3.89,0-5-2.59-5.01-15.77-2.85-40.76.51-26.77,3.6-37.58,4.61-40.39-.38-1.1-1.96-1.52-5.83,0-6.94,1.4-1.02,4.13.54,4.9.95,8.63,4.64,29.58,4.23,57.79,3.67,11-.22,9.95-.57,21.93-.77,0,0,13.66-.22,32.44.95.11,0,.03,0,.73.06,1.67.14,2,.15,2.18.39.29.4-.07,1.13-.14,1.26-1.5,2.99-31.55-6.47-35.26,0-.86,1.51-1.09,5.26,0,5.81.17.08.27.04.64.08,1.42.13,2.42.92,2.77,1.15,2.17,1.43,8.62.74,8.62.66,0-.05-2.64-.23-5.46.64-2.79.86-3.12,1.94-3.18,2.2-.02.06-.19.82.24,1.37.68.87,2.38.57,2.95.48,3.95-.62,8.05.3,11.99-.41,7.93-1.43,25.89-1.08,39.35.81,2,.28,11.62,1.68,23.26,2.48,3.6.25,8.94.54,13.01-2.76,2.52-2.05,2.04-3.44,4.12-5.02,3.88-2.95,8.75-.52,20.76,1.78,18.72,3.58,20.39.24,20.48-.15,0-.01,0-.02.36-1.82.09-.47.18-.93.19-.94.44-2.21,76.1-15.44,80.71,0,.33,1.09.32,2.43,1.5,3.69,2.85,3.07,8.13.87,21.67-.02,3.38-.22,3.02-.08,7.78-.38,10.95-.68,16.59-1.65,16.73-3.13.07-.74-1.29-1.09-1.28-2.37,0-.87.64-1.18,1.82-2.83,1.09-1.52,1.72-2.4,1.72-3.4,0-1.21-.91-2.08-2.26-3.31-3.11-2.86-6.55-3.66-7.52-3.87-1.59-.33-2.83-.35-3.4-.35-8.76-.08-13.14-.12-13.99-.06-8,.56-11.22-.48-25.46-.66-9.93-.13-15.45.29-24.44.66-41.11,1.68-48.75-1.99-67.97.35-9.58,1.16-19.48-.68-28.91,1.36-.26.06-1.55.36-3-.12-1.26-.42-2.85-1.5-2.74-2.25.22-1.55,7.55-1.14,18.55-2.23,7.12-.71,18.12-2.28,18.08-3.55-.02-.7-3.4-1.29-5.78-1.39-2.11-.09-3.69.21-4.23.3-4.85.87-5.2.23-11.68,1.09-8.17,1.09-11.04,2.58-15.88,1.34-.65-.17-3.45-.88-3.42-1.69.02-.56,1.38-.94,2.23-1.14,11.76-2.84,29.28-2.83,29.28-2.83,9.4,0,14.8-.33,22.27,1.8,2.53.72,5.59,1.81,5.49,2.31-.09.44-2.56.11-7.19.32-3.54.16-6.92.57-6.91.79,0,.24,3.96-.84,8.77.66,2.68.84,4.54,2.14,6.86,1.34.58-.2,1.46-.5,1.83-1.28,1.01-2.13-2.56-6.4-6.44-8.54-.8-.44-3.07-1.6-8.77-2.01-4.54-.33-7.7.08-11.09.43,0,0-6.51.67-31.24,1.58-.91.03-.76,0-1.36.04-2.62.13-3.64.53-4.07-.03-.22-.29-.24-.76-.05-.99.07-.09.19-.16,1.27-.35.19-.03.35-.06.43-.07,20.4-2.94,39.14-4.28,39.14-4.28,8.07-.58,1.34-.24,33.81-3.25,25.26-2.34,37.89-3.51,40.8-3.43,25.85.68,38.78,1.02,44.33,2.19,1.04.22,5.23,1.15,5.74.03.06-.14.28-.76-1.66-2.61-4.59-4.36-13.37-8.06-17.23-4.95-.73.59-1.38,1.5-2.68,1.67-1.86.24-3.46-1.27-3.77-1.55-5.06-4.45-25.97.06-25.97.06-14.47,3.12-29.53,2.03-44.29,3.12-17.34,1.29-16.7,1.14-20.41,1.56-11.52,1.28-16.99,2.58-33.55,4.65-7.16.9-16.32,2.04-16.42,1.49-.11-.64,11.83-3.19,13.41-3.52,21.57-4.61,40.94-6.33,60.63-7.47,20.83-1.21,16.04-.26,38.9-1.54,29.12-1.63,37.13-3.17,45.6-1.69,1.37.24,7.38,1.37,7.87.04.12-.33-.09-.79-1.42-2.07-2.62-2.53-4.77-3.57-8.09-5.82-3.31-2.24-4.08-3.16-4.22-4.19-.03-.25-.13-1.18-.34-2.73-.19-1.36-.23-1.5-.28-1.6-.68-1.56-3.53-1.78-4.3-1.83-29.41-1.92-32.33-1.36-32.33-1.36-18.07,3.49-15.12-1.57-50.27,2.11-48.33,5.05-66.45,15.91-71.23,16.54-.5.07-2.14.19-3.04,1.37-.54.7-.44,1.29-1.02,1.75-.99.78-2.68.17-3.07.04-4-1.31-11.23,2.95-18.05,2.47-9.39-.66-15.98-10.17-19.7-8.42-.24.11-.84.39-1.2,1.03-1.14,2.01,1.79,4.7,1.46,5.74-1.05,3.43-37.54-8.34-70.03-11.11-37.3-3.19-69.63,5.45-71.26-1.04-.2-.78.13-1.46.3-1.83,7.45-15.72,134.02,18.68,136.52,11.21.04-.13.7-2.21-.32-3.85-.95-1.53-2.88-1.92-3.53-2.05-10.52-2.13-20.79-6.18-31.51-6.61-17.06-.69-12.76-3.02-34.97-4.71-21.28-1.62-32.99-2.51-45.46-1.48,0,0-8.63.71-21.77-2.37-5.51-1.29-6.38-2.2-6.36-2.74.03-.76,1.79-1.26,2.38-1.43,18.54-5.31,44.5-.22,44.51-.22,42.7,8.37,46.21,4.7,47.01,3.09.89-1.79-.13-3.89-.31-4.28-2.58-5.35-12.89-6.2-45.93-3.68-28.15,2.15-38.73,4.15-45.56-2.97-3.22-3.35-6.88-10.06-4.92-12.63,1.32-1.72,4.8-1.1,5.95-.91,12.6,2.16,25.76.22,38.22,3.04,41.17,9.31,50.07,11.04,52.79,6.97,1.49-2.24,1.07-5.77-.37-7.82-2.89-4.11-10.33-3.02-16.89-2.56-25.34,1.76-33.08-6.23-52.51-5.8,0,0-2.24.05-15.63-2.93-.65-.14-2.1-.49-3.21-1.68-1.12-1.19-1.34-2.63-1.48-3.42-1.21-7.12-3.2-10.16-1.95-11.02.67-.46,1.35.33,4.4.82,1.6.26,2.68.24,4.06.26,6.36.08,7.8.75,14.48.87,0,0,4.48.08,7.33.65.05,0,.31.06.67.12.92.14,1.64.17,2.07.17.08,0,.14,0,.14,0,13.24-.04,46.55,11.51,46.55,11.51,2.07.72,4.89,1.7,8.25,2.88M571.64,769.04c-2.12,2.62-4.34,2.72-6.55,2.86-7.59.47-15.18,1.04-22.78,1.39-14.1.64-28.3,2.39-42.3,1.41-19.97-1.39-39.45-.24-58.8,4.64-4.96,1.25-10.07,1.88-15.11,2.79,46.94-18.74,95.74-17.17,145.55-13.09ZM623.17,583c-2.51,3.74-7.97,6.43-13.96,7.12-3.79.44-7.66.43-11.4,1.12-2.86.53-5.58,1.83-8.36,2.79-.36-.23-.71-.47-1.07-.7.72-1.04,1.21-2.52,2.2-3.01,2.04-1.03,4.29-1.88,6.54-2.19,8.78-1.22,17.95-.2,26.05-5.13ZM571.47,573.91c2.92-1.82,6.07-3.31,9.24-4.67,2.57-1.11,5.39-1.65,7.95-2.79,5.63-2.51,9.31-6.73,10.25-13.13,2.39,1.95,1.77,3.93.83,6.03-2.94,6.54-8.19,10.38-14.89,12.18-5.02,1.35-9.87,2.8-13.65,6.63-.34.35-1.14.25-2.54-.4.92-1.31,1.56-3.07,2.81-3.85ZM522.84,596.44c2.53-3.64,5.25-6.85,9.8-7.83,4.1-.88,6.04,1.12,5.24,5.27-6.87-2.42-9-1.24-13.68,7.78-2.7-1.35-3.04-2.81-1.37-5.21ZM479.9,611.4c-6.1,13.39-.48,21.82,9.51,28.67-4.99,1.56-9.92-2.02-13.35-9.51-3.93-8.59-3.03-14.76,3.84-19.16ZM564.74,747.65c-4.02,0-9.35.29-14.65-.05-31.28-1.99-62.23-.03-92.46,8.53-13.38,3.79-26.36,8.97-39.56,13.41-4.15,1.39-8.42,2.42-12.72,3.29,50.64-27.07,104.46-33.91,159.39-25.19ZM426.56,607.75c7.44,3.08,14.89,6.16,22.12,9.16-2.32,4.88-4.27,8.99-6.11,12.85,6,1.39,11.47,2.65,16.93,3.92-.06.43-.11.86-.17,1.29-2.16,0-4.34.22-6.47-.05-2.93-.38-5.81-1.16-8.72-1.72-3.49-.68-4.29-1.64-3.38-5.08.83-3.14,2.06-6.18,3.32-9.85-4.15-1.44-7.9-3.36-11.85-3.94-3.67-.54-4.93-2.75-6.45-5.19.25-.46.51-.92.76-1.37ZM232.74,377.05c.14-3.45.98-6.89,1.69-10.3,2.01-9.69,8.68-14.29,17.92-15.33,4.9-.55,9.93-.14,14.9.06,9.97.41,19.95.74,29.89,1.52,24.42,1.93,48.87,2.08,73.33,1.82,18.65-.2,37.29-.97,55.93-1.56,7.97-.25,15.96-.35,23.88-1.14,6.57-.65,13.75,4.75,15.27,10.56,1.41,5.41,2.5,11.02,2.8,16.59.73,13.63-.69,27.19-2.28,40.73-1.84,15.71-1.81,31.44-.66,47.23.83,11.43.86,22.91,1.36,34.36.37,8.48.84,16.95,1.43,25.41.69,9.89-4.97,17.81-14.88,19.1-8.2,1.07-16.57,1.56-24.84,1.3-27.33-.86-54.63-.23-81.94.76-14.14.51-28.31,1.36-42.42.88-12.05-.41-24.12-2.07-36.04-3.99-7.56-1.22-14.74-4.54-20.44-9.76-3.05-2.79-5.34-6.79-6.96-10.66-3.11-7.43-3.73-15.45-4.05-23.45-.55-13.96-1.12-27.92-1.71-41.88-.07-1.75.17-3.75-2.3-4.14-.02-12.78,0-25.55-.08-38.33-.02-2.63-.6-5.25-.56-7.87.16-10.64.33-21.28.76-31.91ZM286.49,556.31c-13.53-.19-26.76-2.81-39.44-7.65-10.51-4.02-14.92-12.36-16.31-23.05-2.74-21.23-1.52-42.49-.81-63.75.07-2.13,1.6-4.21,2.55-6.32-.23,16.47-.79,32.94-.53,49.4.13,8.72,1.33,17.48,2.75,26.11,1.24,7.54,5.96,12.49,13.21,15.54,13.45,5.65,27.54,7.46,41.88,7.66,17.97.25,35.96.08,53.94-.11,12.78-.14,25.56-.62,38.34-.9,1.9-.04,3.8.19,5.71.29.01.37.03.73.04,1.1-.84.12-1.68.33-2.52.36-12.14.43-24.27,1.07-36.41,1.21-20.8.23-41.6.4-62.39.11ZM286.44,595.3c13.26-1.04,26.54-2.02,39.82-2.35,20.63-.51,41.27-.52,61.91-.58,4.46-.01,8.97.37,13.38,1.08,10.89,1.74,16.69,8.04,18.11,19.95.98,8.21,1.63,16.48,1.96,24.74.83,20.91,1.4,41.83,2.06,62.75.06,1.98,0,3.96,0,5.4-8.12,3.74-15.76,7.21-23.34,10.81-1.13.54-2.31,1.48-2.91,2.55-1.75,3.09-4.41,3.39-7.6,3.49-5.83.17-11.15-1.27-16.34-3.71-13.36-6.29-26.68-12.69-40.17-18.72-9.24-4.14-18.81-7.54-28.87-9.16-4.38-.71-8.85-.93-13.52-1.39v-8.69h-8.62q-.87,4.01,5.09,5.25c-.24,1.06-.48,2.11-.72,3.14h-8.54c-.36-9-.71-17.88-1.06-26.82.05,0,.37-.1.52.02,1.89,1.4,3.79,1.21,5.49-.18.45-.36.6-1.64.32-2.24-.96-2.04-2.74-2.74-4.96-2.41-.47.07-.95.01-1.47.01-.45-6.31-.9-12.57-1.37-19.01-1.9-.35-3.48-.65-5.8-1.08-.06,17.5,2.21,34.54,1.59,51.6-.4.06-.8.12-1.19.18-.27-.93-.73-1.85-.78-2.79-.64-12.1-1.17-24.2-1.82-36.3-.59-11.09-1.28-22.17-1.95-33.26-.86-14.2,8.47-21.31,20.77-22.28ZM254.73,653.67c2.14,3.09,3.42,26.65,2.1,35.54h-14.67c-.28-5.73,7.76-28.59,12.57-35.54ZM107.6,673.29c3.61-9.07,4.83-18.35,4.29-28.49,1.74.85,3,1.22,3.98,1.98,16.26,12.47,35.37,18.79,54.42,25.27,8.48,2.89,16.93,5.87,25.27,9.14,4.11,1.62,7.93,4,11.87,6.03-.58,3.55-1.04,6.42-1.52,9.34-3.02-.16-5.78-.36-8.55-.45-2.31-.08-3.74-.88-3.95-3.46-.15-1.85-.76-3.67-1.17-5.5-.43.07-.85.13-1.28.2.1,1.66.2,3.33.35,5.79-28.28-5.18-55.84-12.51-83.72-19.84ZM214.06,725.98c-10.09.45-20.23.65-30.32,1.41-12.23.92-24.41,2.63-36.65,3.41-11.59.74-23.22.86-35.04-1.08.31-9.73,2.5-19.6-3.52-28.34,12.47.98,24.97,1.62,37.38,3.03,15.26,1.73,30.5,1.98,45.79,1.24,6.42-.31,12.83-.9,19.25-1.12,1.01-.03,2.55.97,3.02,1.91,3.84,7.61,5.07,11.5.07,19.54ZM237.65,791.97c-1.98,0-4.38.36-5.6-3.12,1.96-.33,3.48-.73,5.01-.82,14.81-.83,29.58-.21,44.32,1.31,11.67,1.2,23.37,2.24,35,3.75,11.08,1.44,22.09,3.41,33.13,5.15-.03.28-.06.56-.09.84-6.71-.49-13.44-.84-20.13-1.51-20.77-2.08-41.38-5.77-62.33-5.84-9.77-.03-19.54.23-29.31.25ZM319.57,812.62c-7.19-.38-14.41-.44-21.55-1.2-13.78-1.47-27.57-1.87-41.39-1.09-1.92.11-3.81.69-6.33,1.17-.8-1.2-1.69-2.54-2.82-4.24,24.77-4.06,48.33,2.03,72.15,4.3-.02.36-.04.71-.06,1.07ZM364.35,809.83c-8.91-1.02-17.86-1.74-26.76-2.87-12.32-1.57-24.61-3.38-36.9-5.15-11-1.59-21.88-4.56-33.15-2.86-6.4.96-12.75,2.19-19.17,3.01-4.79.61-4.81.4-7.89-4.44,19.99-2.17,39.86-1.17,59.77,1.86,14.91,2.27,30.02,3.36,45.05,4.74,12.23,1.13,24.49,1.91,37.1,2.88.11,1.58.22,3.16.38,5.29-6.39-.86-12.4-1.76-18.43-2.45ZM308.8,785.18c-25.19-1.72-50.48-2.08-75.95-3.05-.67-3.14-1.45-6.77-2.26-10.56,45.12-1.45,89.34,3.49,133.23,11.91,5.55,1.06,10.93,2.98,16.3,4.86-5.96-1.14-11.91-2.23-17.87-3.28s-11.93-2.04-17.9-2.96c-2.99-.46-5.97-.91-8.96-1.34-32.87-4.71-65.92-7.22-99.38-5.28-.05,3.16.04,3.78,1.89,3.93.43.04.95.05,1.58.06,16.97.28,33.98.05,50.9,1.14,15.04.97,30.04,3.05,44.94,5.35,14.21,2.19,28.28,5.23,42.38,8.09,2.16.44,5.11.3,6.09,4.39-25.22-5.28-49.79-11.53-75-13.25ZM419.9,830.22c-2.47.21-4.99.16-7.47-.04-6.8-.53-13.59-1.16-20.38-1.85-1.68-.17-3.32-.77-4.64-1.08.57-3.38,1.23-5.57,1.27-7.77.11-6.32-.06-12.65-.06-18.97,0-1.99-.13-4.04.31-5.95,1.25-5.5,5-9.13,9.54-9.58,5.79-.58,12.52,2.85,15.05,7.89,1.1,2.2,2.07,4.55,2.61,6.94,1.7,7.51,4.85,14.36,8.73,20.97,3.57,6.09,2.06,8.86-4.95,9.45ZM593.67,818.76c-5.66.21-11.32.29-16.98.39-22.42.39-44.84.91-67.27,1.12-13.96.13-27.93-.39-41.89-.29-10.64.07-21.27.62-31.91,1-2.7.1-4.89-.45-5.75-3.45,15.69-3.1,162.91-3.23,170.22.28-2.71.42-4.56.89-6.42.96Z"/>
    <path class="cls-2" d="M241.63,410.39c.34-9.95.75-19.91,1.21-29.86.38-8.44,5.66-16.33,16.63-15.7,17.62,1.01,35.27,1.55,52.91,1.79,18.65.25,37.31-.06,55.96-.16,17.66-.09,35.32-.22,52.98-.34,1.77-.01,3.55,0,5.44,0v-5.27c-8.26,0-16.07-.11-23.87.02-17.47.29-34.94.89-52.41,1-12.8.08-25.61-.36-38.42-.71-8.3-.23-16.59-.89-24.89-1.03-10.49-.18-20.99-.16-31.48.03-6.12.11-11,3.04-13.7,8.53-1.87,3.82-3.74,7.99-4.09,12.13-.89,10.41-.93,20.89-1.25,31.35-.03.91.43,1.83.66,2.7,4.03.66,4.23-1.73,4.32-4.48Z"/>
    <path class="cls-2" d="M265.06,535.32c-1.57,1.1-4.12-1.29-3.03-2.73,3.35-4.45-.91-7.78-1.37-11.61-.09-.74-2.01-1.76-3.06-1.72-.96.03-2.15,1.15-2.74,2.09-.91,1.46-1.4,3.19-2.25,5.24-4.94-4.69-5.43-10.96-8.62-17.43-.8,2.41-1.93,3.98-1.57,5.04,1.64,4.81,3.34,9.66,5.7,14.14,2.1,3.97,4.96,3.73,7.63-.07.91-1.29,1.73-2.64,2.59-3.96.38.1.75.19,1.13.29-.26,2.12-.51,4.25-.8,6.37-.61,4.46,1.95,7.87,6.39,8.12,1.12.06,2.47-.64,3.37-1.39.4-.33.26-1.91-.19-2.52-.97-1.33-1.86-.79-3.19.14Z"/>
    <path class="cls-2" d="M263.27,372.2c9.33-.29,18.57.29,27.66,2.55.79.2,1.82.51,2.42.19,1.04-.55,2.11-1.44,2.6-2.46.17-.36-1.17-1.99-2.05-2.22-2.71-.73-5.53-1.07-8.3-1.57-8.91-1.62-17.82-1.44-26.72-.15-.6,3.94,2.02,3.73,4.38,3.66Z"/>
    <path class="cls-2" d="M433.58,366.04c4.28-.01,8.56-.42,12.83-.65,2.02-.11,3.31-1.34,2.82-3.15-.23-.84-2.21-1.7-3.39-1.69-4.89.04-9.79.4-15,.66-.04,2.15-.95,4.84,2.74,4.82Z"/>
    <path class="cls-2" d="M275.61,634.98c0-7.4.1-14.19-.09-20.97-.04-1.26-1.48-2.42-1.89-3.74-.39-1.26-.8-2.94-.27-3.97,1.53-3.01,4.16-3.56,7.18-1.62,4.64,2.98,9.47,2.37,14.33.95.5-.15.73-1.25,1.51-2.73h-12.79c0-.43-.01-.86-.02-1.28,6.18-.59,12.35-1.18,18.58-1.77.14,4.51,1.4,6.97,3.52,6.71,1.4-.17,2.65-1.57,3.96-2.43-1-1.39-1.99-2.78-3.01-4.19,1.15-.83,2.78-2,4.4-3.17-.16-.51-.33-1.02-.49-1.53-3.55-.13-7.11-.58-10.63-.31-5.46.41-10.88,1.28-16.31,2-5.7.76-9.86,4.33-13.82,8.01-1.17,1.09-1.85,3.25-1.89,4.94-.19,8.26-.09,16.53-.09,25.5,2.93-.14,5.27-.26,7.82-.39Z"/>
    <path class="cls-2" d="M187.77,710.96c-10.26.78-20.52,1.66-30.77,2.62-3.69.35-7.35,1.02-11.02,1.55.01.55.02,1.11.03,1.66,1.86.5,3.7,1.18,5.6,1.47,12.78,1.99,25.57,1.04,38.34-.16,2.56-.24,4.22-1.76,4.8-4.33-1.59-2.83-4.33-3.01-6.98-2.81Z"/>
    <path class="cls-2" d="M175.53,680.93c-15.01-3.62-29.99-7.33-43.54-15.09-2.36-1.35-3.7-.47-5.43,2.37,2.49,1.6,4.64,3.52,7.15,4.5,10.01,3.9,20.09,7.65,30.25,11.16,4.69,1.62,9.57,2.76,14.45,3.71,2.53.49,5.61,1.33,7.46-2.05-2.78-3.35-6.73-3.74-10.34-4.6Z"/>
    <path class="cls-2" d="M413.54,798.39c-.53-2.38-1.61-4.71-2.85-6.83-2.05-3.51-8.31-5.83-12.19-4.84-3.55.9-7.33,5.05-7.42,9.12-.22,9.6-.07,19.22-.07,28.76,9.42,2.79,29.16,3.1,33.84.3-.51-1.18-.74-2.18-1.3-2.94-5.22-7.07-8.12-15.08-10.01-23.57Z"/>
    <path class="cls-2" d="M304.66,404.91c-10.4-.08-21.17,0-29,8.92-.32.36-.81.58-1.25.81-9.67,5.29-14.78,13.12-15.18,24.44-.41,11.56,1.53,22.06,9.96,30.53,6.02,6.04,7.27,5.78,15.62,8.13,5.81,1.64,6.37,1.64,14.82,1.12,2.64-.37,5.43-.72,8.21-1.16,8.68-1.39,16.77-4.31,23.5-10.11,10.61-9.14,15.28-20.64,11.28-34.32-5.36-18.29-18.03-28.21-37.96-28.37ZM291.56,434.13c-1.89-1.38-4.38-2.38-5.54-4.22-1.55-2.47.19-5.06,2.4-6.26,2.96-1.61,6.26-2.77,9.56-3.54,2.12-.49,4.27.58,5.3,2.82.98,2.12-.05,3.81-1.41,5.38-2.5,2.89-6.93,5.22-10.32,5.82ZM325.2,463.16c-7.49,5.47-16.08,7.66-25.17,8.29-.78.05-1.61-.26-2.38-.5-.22-.07-.33-.51-.49-.78,0,0,0,0,0,0,0,0,0,0,0,0,3.2-.5,6.45-.77,9.58-1.52,10.12-2.43,16.66-10.85,17.01-21.27.36-11.02-3.25-20.19-11.99-27.16-7.15-5.7-15.16-6.57-23.52-3.65-2.48.86-4.5,3.17-6.59,4.97-1.13.97-1.96,2.29-2.93,3.45.84-7.42,7.31-11.77,13.62-12.13,6.44-.37,12.96-.55,19.37,0,11.07.96,20.95,10.29,23.95,21.81,2.9,11.16-.86,21.51-10.44,28.5Z"/>
    <path class="cls-2" d="M407.77,401.85c-10.4-.08-21.17,0-29,8.92-.32.36-.81.58-1.25.81-9.67,5.29-14.78,13.12-15.18,24.44-.41,11.56,1.53,22.06,9.96,30.53,6.02,6.04,7.27,5.78,15.62,8.13,5.81,1.64,6.37,1.64,14.82,1.12,2.64-.37,5.43-.72,8.21-1.16,8.68-1.39,16.77-4.31,23.5-10.11,10.61-9.14,15.28-20.64,11.28-34.32-5.36-18.29-18.03-28.21-37.96-28.37ZM394.67,431.07c-1.89-1.38-4.38-2.38-5.54-4.22-1.55-2.47.19-5.06,2.4-6.26,2.96-1.61,6.26-2.77,9.56-3.54,2.12-.49,4.27.58,5.3,2.82.98,2.12-.05,3.81-1.41,5.38-2.5,2.89-6.93,5.22-10.32,5.82ZM428.3,460.1c-7.49,5.47-16.08,7.66-25.17,8.29-.78.05-1.61-.26-2.38-.5-.22-.07-.33-.51-.49-.78,0,0,0,0,0,0,0,0,0,0,0,0,3.2-.5,6.45-.77,9.58-1.52,10.12-2.43,16.66-10.85,17.01-21.27.36-11.02-3.25-20.19-11.99-27.16-7.15-5.7-15.16-6.57-23.52-3.65-2.48.86-4.5,3.17-6.59,4.97-1.13.97-1.96,2.29-2.93,3.45.84-7.42,7.31-11.77,13.62-12.13,6.44-.37,12.96-.55,19.37,0,11.07.96,20.95,10.29,23.95,21.81,2.9,11.16-.86,21.51-10.44,28.5Z"/>
    <path class="cls-2" d="M392.21,635.78c7.68.22,14.69-4.18,16.57-10.37,2-6.59-1.03-13.39-7.64-17.93-8.82-6.06-20.67-2.93-27.09,1.94-5.12,3.88-5.67,11.27-1.69,16.59,4.93,6.57,11.75,9.51,19.85,9.77ZM381.69,613.03c1.51-.55,3.15-.74,5.25-1.22-.42,4.76-4.15,8.34-2.01,13.25,4.94-2.52,5.7-7.83,9.52-11.02-.53,1.84-1.12,3.66-1.57,5.51-.49,1.98-.84,4-1.4,6.71,5.19-2.01,6.55-6.07,8.47-9.7,3.78,5.45,2.85,9.27-3,10.85-6.4,1.73-12.57,1.04-17.59-3.94-3.99-3.96-2.98-8.52,2.33-10.45Z"/>
  </g>
</svg>