<?xml version="1.0" encoding="utf-8"?>
<!-- Generator: Adobe Illustrator 28.2.0, SVG Export Plug-In . SVG Version: 6.00 Build 0)  -->
<svg version="1.1" id="Layer_1" xmlns="http://www.w3.org/2000/svg" xmlns:xlink="http://www.w3.org/1999/xlink" x="0px" y="0px"
	 viewBox="0 0 145 145" style="enable-background:new 0 0 145 145;" xml:space="preserve">
<style type="text/css">
	.st0{fill:#F9F9F9;}
	.st1{fill:#EDEDED;}
	.st2{fill:#E2205C;}
	.st3{fill:#F22F66;}
</style>
<g id="Warning">
	<circle class="st0" cx="72.5" cy="26.7" r="12"/>
	<circle class="st0" cx="22.8" cy="112.3" r="12"/>
	<circle class="st1" cx="122.2" cy="112.3" r="12"/>
	<polygon class="st0" points="12.1,107 61.7,21.5 83.3,21.5 132.9,107 	"/>
	<polygon class="st1" points="64.3,107 107.7,63.5 132.9,107 	"/>
	<rect x="22.8" y="101.5" class="st0" width="99.4" height="22.8"/>
	<circle class="st2" cx="68.6" cy="82.7" r="2.1"/>
	<circle class="st2" cx="76.4" cy="82.7" r="2.1"/>
	<circle class="st3" cx="65.6" cy="48" r="2.1"/>
	<circle class="st3" cx="79.4" cy="48" r="2.1"/>
	<rect x="68.6" y="80.7" class="st2" width="7.8" height="4.1"/>
	<rect x="65.6" y="46" class="st3" width="13.8" height="4.1"/>
	<polygon class="st3" points="63.5,48 66.5,82.7 78.5,82.7 81.5,48 	"/>
	<polygon class="st2" points="65.7,72.8 66.5,82.7 78.5,82.7 80.6,57.8 	"/>
	<polygon class="st1" points="122.2,101.5 69.8,101.5 46.9,124.3 122.2,124.3 	"/>
	<circle class="st3" cx="72.5" cy="98.8" r="8.2"/>
	<path class="st2" d="M66.7,104.6c3.2,3.2,8.4,3.2,11.7,0c3.2-3.2,3.2-8.4,0-11.7L66.7,104.6z"/>
</g>
</svg>
