<?xml version="1.0" encoding="utf-8"?>
<!-- Generator: Adobe Illustrator 28.2.0, SVG Export Plug-In . SVG Version: 6.00 Build 0)  -->
<svg version="1.1" id="Layer_1" xmlns="http://www.w3.org/2000/svg" xmlns:xlink="http://www.w3.org/1999/xlink" x="0px" y="0px"
	 viewBox="0 0 695.7 131.6" style="enable-background:new 0 0 695.7 131.6;" xml:space="preserve">
<style type="text/css">
	.st0{fill:#CE1E55;}
	.st1{fill:#E2215B;}
	.st2{fill:#079B7F;}
	.st3{fill:#00C9A2;}
	.st4{fill:#F2B700;}
	.st5{fill:#DAA727;}
	.st6{fill:#0FA3CF;}
	.st7{fill:#13B3E2;}
	.st8{fill:#FFFFFF;}
</style>
<g>
	<g>
		<path class="st0" d="M19.3,27.2C19.3,12.2,31.5,0,46.5,0c7.5,0,14.3,3,19.2,8L27.3,46.5C22.4,41.5,19.3,34.7,19.3,27.2"/>
		<path class="st1" d="M46.5,27.2c4.9,4.9,8,11.7,8,19.2c0,15-12.2,27.2-27.2,27.2c-7.5,0-14.3-3-19.2-8L46.5,27.2z"/>
	</g>
	<g>
		<path class="st2" d="M27.2,112.1C12.2,112.1,0,99.9,0,84.9c0-7.5,3-14.3,8-19.2l38.5,38.5C41.5,109.1,34.7,112.1,27.2,112.1"/>
		<path class="st3" d="M27.5,85.2c4.9-4.9,11.7-8,19.2-8c15,0,27.2,12.2,27.2,27.2c0,7.5-3.1,14.3-8,19.2L27.5,85.2L27.5,85.2z"/>
	</g>
	<path class="st4" d="M77.3,85.2c0-15,12.2-27.2,27.2-27.2c7.5,0,14.3,3,19.2,8l-38.5,38.5C80.3,99.5,77.3,92.7,77.3,85.2"/>
	<path class="st5" d="M104.4,85.2c4.9,4.9,8,11.7,8,19.2c0,15-12.2,27.2-27.2,27.2c-7.5,0-14.3-3.1-19.2-8L104.4,85.2L104.4,85.2z"
		/>
	<g>
		<path class="st6" d="M104.4,19.5c15,0,27.2,12.2,27.2,27.2c0,7.5-3.1,14.3-8,19.2L85.2,27.5C90.1,22.5,96.9,19.5,104.4,19.5"/>
		<path class="st7" d="M104.2,46.5c-4.9,4.9-11.7,8-19.2,8c-15,0-27.2-12.2-27.2-27.2c0-7.5,3-14.3,8-19.2L104.2,46.5L104.2,46.5z"
			/>
	</g>
</g>
<g>
	<path class="st8" d="M156.6,80.1c0,1.4-1.2,2.6-2.6,2.6c-1.5,0-2.6-1.2-2.6-2.6V52.7c-0.1-0.8,0.3-1.7,1-2.2
		c1.2-0.8,2.8-0.6,3.6,0.6l15.2,21.1V52.7c0-1.4,1.1-2.5,2.6-2.5s2.6,1.2,2.6,2.5v27.4c0,1.4-1.2,2.6-2.6,2.6
		c-0.8,0-1.5-0.4-1.9-0.9c-0.1-0.1-0.2-0.2-0.2-0.3l-15.1-20.9L156.6,80.1L156.6,80.1z"/>
	<path class="st8" d="M198.5,70.9c0.1-6.4,5-11.8,11.5-11.8s11,4.6,11.4,10.9v0.2c0,0.1,0,0.3-0.1,0.4c-0.1,1.1-1.1,1.9-2.4,1.9h-15
		c0.2,1.1,0.8,2.3,1.6,3.1c1,1.1,2.9,2,4.5,2.1c1.7,0.1,3.7-0.3,4.9-1.2c1-1,2.9-0.9,3.5-0.1c0.6,0.7,1.1,2.1,0,3.1
		c-2.3,2.1-5.1,3.1-8.4,3.1C203.5,82.7,198.5,77.3,198.5,70.9L198.5,70.9z M203.6,68.6H217c-0.5-1.9-2.9-4.7-7-5
		C206,63.8,204,66.7,203.6,68.6z"/>
	<path class="st8" d="M250.6,61.7c0,1.4-1.2,2.6-2.6,2.6h-1.2v13.2c1.5,0,2.6,1.2,2.6,2.6s-1.1,2.6-2.6,2.6c-2.9,0-5.2-2.4-5.2-5.2
		V64.3h-1.4c-1.5,0-2.6-1.2-2.6-2.6s1.1-2.6,2.6-2.6h1.4v-6.8c0-1.5,1.2-2.6,2.6-2.6s2.6,1.1,2.6,2.6v6.8h1.2
		C249.3,59.1,250.6,60.3,250.6,61.7z"/>
	<path class="st8" d="M302.1,62.9l-7.8,18.3c0,0.1-0.1,0.2-0.2,0.4c0,0.1,0,0.1,0,0.1c0,0.1-0.1,0.2-0.2,0.3c0,0.1-0.1,0.1-0.1,0.1
		c-0.1,0.1-0.2,0.2-0.3,0.2c0,0.1,0,0.1,0,0.1c-0.1,0.1-0.2,0.2-0.4,0.2c0,0,0,0,0,0.1c-0.1,0-0.2,0.1-0.4,0.1h-0.1
		c-0.1,0.1-0.3,0.1-0.5,0.1c-0.1,0-0.3,0-0.4-0.1h-0.1c-0.1-0.1-0.2-0.1-0.3-0.1l0-0.1h0c-0.1-0.1-0.3-0.1-0.4-0.3v-0.1
		c-0.1-0.1-0.2-0.1-0.3-0.2c0,0-0.1,0-0.1-0.1c-0.1-0.1-0.2-0.2-0.2-0.3c0,0,0,0,0-0.1c-0.1-0.1-0.1-0.3-0.2-0.4l-3.4-8.2l-3.4,8.2
		c0,0.1-0.1,0.2-0.2,0.4v0.1c-0.1,0.1-0.2,0.2-0.3,0.3c0,0.1,0,0.1,0,0.1c-0.1,0.1-0.2,0.2-0.3,0.3c-0.2,0.1-0.3,0.2-0.4,0.3h-0.1
		c0,0,0,0,0,0.1c-0.1,0-0.2,0.1-0.3,0.1h-0.1c-0.2,0.1-0.3,0.1-0.5,0.1c-0.2,0-0.3,0-0.5-0.1h-0.1c-0.1-0.1-0.2-0.1-0.3-0.1
		c-0.1,0-0.1,0-0.1-0.1c-0.1-0.1-0.3-0.1-0.4-0.3c-0.1-0.1-0.1-0.1,0-0.1c0,0.1-0.1-0.1-0.3-0.2l-0.1-0.1c0-0.1-0.1-0.2-0.2-0.3
		c0-0.1,0-0.1,0-0.1c-0.1-0.1-0.1-0.3-0.2-0.4l-7.7-18.3c-0.6-1.3,0-2.7,1.4-3.2c1.1-0.5,2.6,0.1,3.1,1.4l5.6,12.7l3.3-7.9
		c0.4-0.9,1.3-1.5,2.3-1.5s1.9,0.6,2.3,1.5l3.4,7.9l5.6-12.7c0.5-1.4,2-1.9,3.2-1.4C302,60.2,302.6,61.6,302.1,62.9L302.1,62.9z"/>
	<path class="st8" d="M326.3,79.3c-2-2.1-3.2-5-3.2-8.3s1.2-6,3.2-8.2c2.1-2.2,4.9-3.6,8.1-3.6s5.9,1.4,7.9,3.6
		c2.1,2.3,3.3,5,3.3,8.2s-1.2,6.2-3.3,8.3c-1.9,2.2-4.8,3.6-7.9,3.6S328.4,81.5,326.3,79.3z M328.2,71c0,2,0.6,3.7,1.7,5
		c1.2,1.1,2.7,1.8,4.5,1.8c1.6,0,3.2-0.6,4.3-1.8c1.2-1.3,1.8-3,1.8-5s-0.7-3.6-1.8-4.9c-1.2-1-2.7-1.8-4.3-1.8
		c-1.8,0-3.4,0.8-4.5,1.8C328.8,67.3,328.2,69,328.2,71z"/>
	<path class="st8" d="M380.1,61.6c0,1.3-1.1,2.5-2.5,2.5c-1.1,0-2,0.3-2.8,0.9c-0.9,0.6-1.6,1.4-2.2,2.3c-1.1,1.5-1.7,3.3-1.9,4v9
		c0,1.4-1.2,2.5-2.6,2.5s-2.5-1.1-2.5-2.5V61.6c0-1.4,1.1-2.4,2.5-2.4s2.6,1.1,2.6,2.4V62c0.3-0.3,0.7-0.7,1-0.9
		c1.6-1,3.6-1.9,5.9-1.8C379.1,59.2,380.1,60.3,380.1,61.6L380.1,61.6z"/>
	<path class="st8" d="M399.3,80.1V52.3c0-1.4,1.1-2.6,2.6-2.6s2.6,1.2,2.6,2.6v16.3l9.7-9.7c1-1,2.7-1,3.7,0c1,1,1,2.7,0,3.7
		l-7.1,7.1l7.3,8.7c0.9,1.1,0.8,2.8-0.4,3.7c-0.5,0.4-1.1,0.6-1.6,0.6c-0.8,0-1.5-0.3-2-0.9l-6.9-8.4l-2.6,2.6v4.2
		c0,1.4-1.2,2.6-2.6,2.6S399.3,81.5,399.3,80.1z"/>
	<path class="st8" d="M464.8,65.7c0-9.3,7.9-16.9,17.3-17c4.1,0,7.9,1.4,10.9,3.7c1.1,1,1.3,2.6,0.5,3.8c-0.9,1.2-2.7,1.4-3.8,0.5
		c-2.1-1.7-4.7-2.6-7.6-2.6c-3.2,0-6.3,1.3-8.5,3.4c-2.1,2.2-3.4,5-3.4,8.2s1.3,6.1,3.4,8.2c2.2,2.1,5.2,3.4,8.5,3.4
		c2.9,0,5.5-0.9,7.6-2.6c1.1-0.8,2.8-0.6,3.8,0.5c0.9,1.2,0.7,2.9-0.5,3.8c-3,2.3-6.7,3.7-10.9,3.7
		C472.7,82.7,464.9,75.1,464.8,65.7L464.8,65.7z"/>
	<path class="st8" d="M535,71v9.2c0,1.4-1.1,2.5-2.5,2.5c-1.2,0-2.2-0.9-2.5-2c-1.8,1.3-3.9,2-6.3,2c-3.2,0-6-1.3-8-3.4
		c-2-2.2-3.2-5.1-3.2-8.3s1.2-6.2,3.2-8.3c2-2.2,4.8-3.5,8-3.5c2.4,0,4.5,0.8,6.3,2.1c0.3-1.2,1.2-2.1,2.5-2.1
		c1.4,0,2.5,1.1,2.5,2.6C535,61.7,535,71,535,71z M530,71c0-2-0.7-3.7-1.8-4.8c-1.1-1.3-2.7-1.9-4.4-1.9s-3.3,0.7-4.4,1.9
		c-1.1,1.2-1.8,2.9-1.8,4.8s0.7,3.6,1.8,4.8c1.1,1.2,2.7,1.8,4.4,1.8s3.2-0.7,4.4-1.8C529.3,74.6,530,72.9,530,71z"/>
	<path class="st8" d="M576.4,68.9v11.3c0,1.4-1.1,2.5-2.5,2.5s-2.5-1.1-2.5-2.5V68.9c0-2.6-2.2-4.8-4.9-4.8s-4.7,2.1-4.7,4.8v11.3
		c0,0.1,0,0.3-0.1,0.5c-0.2,1.1-1.3,2-2.5,2c-1.4,0-2.5-1.1-2.5-2.5V61.6c0-1.4,1.1-2.5,2.5-2.5c1,0,1.9,0.6,2.3,1.5
		c1.4-0.9,3.2-1.5,5-1.5C572,59.1,576.4,63.6,576.4,68.9L576.4,68.9z"/>
	<path class="st8" d="M616.3,62.9l-7.7,18.3c0,0.1-0.1,0.3-0.2,0.3c0,0.1,0,0.1,0,0.1c-0.1,0.1-0.2,0.2-0.3,0.3c0,0.1,0,0.1,0,0.1
		c-0.1,0.1-0.2,0.2-0.3,0.3c0,0,0,0,0,0.1c-0.1,0.1-0.2,0.2-0.3,0.2h-0.1v0.1c-0.1,0-0.3,0.1-0.4,0.1h-0.1c-0.2,0.1-0.3,0.1-0.5,0.1
		c-0.1,0-0.2,0-0.4-0.1h-0.1c-0.1-0.1-0.2-0.1-0.4-0.1v-0.1h-0.1c-0.1-0.1-0.2-0.1-0.4-0.2c0-0.1,0-0.1,0-0.1
		c-0.1-0.1-0.2-0.1-0.3-0.3c-0.1-0.1-0.1-0.1-0.1-0.1c0-0.1-0.1-0.2-0.2-0.3c-0.1-0.1-0.1-0.1,0-0.1c-0.1-0.1-0.1-0.2-0.2-0.3
		l-7.6-18.3c-0.6-1.3,0-2.6,1.4-3.2c1.1-0.6,2.6,0.1,3.2,1.4l5.4,12.8l5.5-12.8c0.5-1.3,1.9-1.9,3.2-1.4
		C616.2,60.3,616.8,61.6,616.3,62.9L616.3,62.9z"/>
	<path class="st8" d="M656.8,71v9.2c0,1.4-1.1,2.5-2.5,2.5c-1.2,0-2.2-0.9-2.5-2c-1.8,1.3-3.9,2-6.3,2c-3.2,0-6-1.3-8-3.4
		c-2-2.2-3.2-5.1-3.2-8.3s1.2-6.2,3.2-8.3c2-2.2,4.8-3.5,8-3.5c2.4,0,4.5,0.8,6.3,2.1c0.3-1.2,1.2-2.1,2.5-2.1
		c1.4,0,2.5,1.1,2.5,2.6C656.8,61.7,656.8,71,656.8,71z M651.8,71c0-2-0.7-3.7-1.8-4.8c-1.1-1.3-2.7-1.9-4.4-1.9s-3.3,0.7-4.4,1.9
		c-1.1,1.2-1.8,2.9-1.8,4.8s0.7,3.6,1.8,4.8c1.1,1.2,2.7,1.8,4.4,1.8s3.2-0.7,4.4-1.8C651.1,74.6,651.8,72.9,651.8,71z"/>
	<path class="st8" d="M677.9,76c0.8-1.1,2.5-1.3,3.5-0.4c1.2,1,3.3,2.1,5.2,2.1c1.3,0,2.5-0.4,3.2-0.9c0.7-0.6,0.8-1,0.8-1.4
		c0-0.2,0-0.3-0.1-0.5c0-0.1-0.2-0.3-0.6-0.6c-0.7-0.5-2.1-1-3.8-1.3h0c-1.5-0.3-2.9-0.7-4.1-1.2c-1.3-0.6-2.4-1.5-3.2-2.7
		c-0.5-0.8-0.8-1.9-0.8-3c0-2.2,1.2-4,2.8-5.2c1.7-1.1,3.6-1.7,5.8-1.7c3.2,0,5.6,1.6,7.1,2.6c1.1,0.8,1.5,2.3,0.8,3.5
		c-0.8,1.1-2.3,1.5-3.5,0.7c-1.5-1-2.8-1.7-4.3-1.7c-1.2,0-2.2,0.4-2.8,0.8c-0.6,0.4-0.8,0.8-0.8,1.1c0,0.2,0,0.2,0.1,0.4
		c0,0.1,0.2,0.3,0.5,0.5c0.6,0.4,1.8,0.8,3.4,1.1l0,0.1h0c1.6,0.3,3,0.7,4.4,1.4c1.3,0.6,2.5,1.5,3.3,2.8c0.6,0.9,0.9,2,0.9,3.1
		c0,2.3-1.3,4.2-3,5.5c-1.7,1.2-3.8,1.9-6.1,1.9c-3.7-0.1-6.5-1.8-8.4-3.2C677.2,78.6,677,77,677.9,76L677.9,76z"/>
</g>
</svg>
