<?xml version="1.0" encoding="utf-8"?>
<!-- Generator: Adobe Illustrator 28.3.0, SVG Export Plug-In . SVG Version: 6.00 Build 0)  -->
<svg version="1.1" id="Layer_1" xmlns="http://www.w3.org/2000/svg" xmlns:xlink="http://www.w3.org/1999/xlink" x="0px" y="0px"
	 viewBox="0 0 80 94" style="enable-background:new 0 0 80 94;" xml:space="preserve">
<style type="text/css">
	.st0{fill:#00C9A2;}
	.st1{fill:#00B18F;}
	.st2{fill:#E2205C;}
	.st3{fill:#F22F66;}
	.st4{fill:#F34274;}
	.st5{fill:#F7F7F7;}
	.st6{fill:#E8E8E8;}
</style>
<g id="Edit_-_Green">
	<rect x="-3.3" y="34.3" transform="matrix(0.7071 -0.7071 0.7071 0.7071 -18.4013 34.196)" className="st0" width="70.7" height="10"/>
	<rect x="3.8" y="41.4" transform="matrix(0.7071 -0.7071 0.7071 0.7071 -21.3287 41.2656)" className="st1" width="70.7" height="10"/>
	<circle className="st2" cx="73.5" cy="13.5" r="5"/>
	<circle className="st3" cx="65" cy="5" r="5"/>
	<rect x="62.6" y="12" transform="matrix(0.7071 -0.7071 0.7071 0.7071 7.7898 53.7481)" className="st2" width="12.3" height="11"/>
	<rect x="54.9" y="4.2" transform="matrix(0.7071 -0.7071 0.7071 0.7071 11.0142 45.9673)" className="st3" width="12.3" height="11"/>
	<rect x="62.7" y="9.9" transform="matrix(0.7071 -0.7071 0.7071 0.7071 11.3417 53.1509)" className="st2" width="14.3" height="6"/>
	<rect x="58.4" y="5.6" transform="matrix(0.7071 -0.7071 0.7071 0.7071 13.1124 48.905)" className="st3" width="14.3" height="6"/>
	<circle className="st4" cx="53.5" cy="10.9" r="3"/>
	<circle className="st4" cx="67.6" cy="25" r="3"/>
	<rect x="57.5" y="7.9" transform="matrix(0.7071 -0.7071 0.7071 0.7071 5.0515 48.0546)" className="st4" width="6" height="20"/>
	<rect x="3.4" y="60.8" transform="matrix(0.7071 -0.7071 0.7071 0.7071 -44.9151 23.2132)" className="st5" width="4.3" height="10"/>
	<rect x="10.5" y="67.9" transform="matrix(0.7071 -0.7071 0.7071 0.7071 -47.8396 30.2898)" className="st6" width="4.3" height="10"/>
	<polygon className="st6" points="0,78.5 14.7,77.9 7.6,70.9 	"/>
	<polygon className="st5" points="0,78.5 0.5,63.8 7.6,70.9 	"/>
	<circle className="st6" cx="1.6" cy="85.2" r="1.6"/>
	<circle className="st6" cx="60.5" cy="85.2" r="1.6"/>
	<circle className="st6" cx="78.4" cy="85.2" r="1.6"/>
	<circle className="st6" cx="70.7" cy="85.2" r="1.6"/>
	<rect x="70.7" y="83.6" className="st6" width="7.7" height="3.2"/>
	<rect x="1.6" y="83.6" className="st6" width="58.9" height="3.2"/>
	<circle className="st6" cx="11.6" cy="92.4" r="1.6"/>
	<circle className="st6" cx="50.5" cy="92.4" r="1.6"/>
	<rect x="11.6" y="90.8" className="st6" width="38.9" height="3.2"/>
</g>
</svg>
