<svg xmlns="http://www.w3.org/2000/svg" data-name="Layer 1" viewBox="0 0 459 415"><defs><filter id="a" filterUnits="userSpaceOnUse"><feOffset dx="50" dy="7"/><feGaussianBlur result="blur" stdDeviation="55"/><feFlood flood-color="#000" flood-opacity=".55"/><feComposite in2="blur" operator="in"/><feComposite in="SourceGraphic"/></filter><filter id="b" filterUnits="userSpaceOnUse"><feOffset dx="50" dy="7"/><feGaussianBlur result="blur-2" stdDeviation="55"/><feFlood flood-color="#000" flood-opacity=".55"/><feComposite in2="blur-2" operator="in"/><feComposite in="SourceGraphic"/></filter></defs><path fill="#eab93f" d="M-185.85 195.76c-.07-6.11-.06-12.22-.23-18.32-.15-5.44-.1-11.86-3.72-15.98-3.88-4.42-10.32-3.25-15.44-3.25-5.5 0-11.12-.4-16.55.93-4.85 1.19-9.21 4.19-12.81 7.99-3.63 3.83-6.21 9.1-5.87 14.73.31 5.18 2.79 10.05 6.59 12.96 1.86 1.43 3.93 2.26 6.11 2.95.55.17 1.14.31 1.74.46.91.92 1.54 2.11 1.56 3.44.01 1.45-.32 2.97-.89 4.36a27.305 27.305 0 0 1-4.69 5.23c-1.91.95-4.06 1.38-6.06 2.19-2.68 1.1-5.27 3.13-6.78 5.88-1.44 1.03-2.65 2.45-3.51 4.5-2.68 6.44 1.45 13.11 6.39 16.09 4.87 2.93 10.9 2.97 16.15 1.04 5.46-2 10.09-5.98 14.33-10.22 1.71-1.71 3.34-3.5 4.88-5.38 1.11-.63 2.21-1.27 3.31-1.92 4.43-2.6 9.59-5.05 12.66-9.67 3.52-5.3 2.88-11.86 2.81-18.01z" filter="url(#a)"/><path fill="#d1395d" d="M292.12 180.95c-2.1-5.03-6.49-9.07-11.53-11.44-7.07-3.32-14.99-3.51-22.7-3.14-7.92.38-15.83.85-23.75 1.28-2.55.14-5.1.28-7.65.45-3.04-.55-6.07-1.09-9.11-1.62-4.86-.84-9.67-1.52-14.6-.75-5.1.79-9.5 3.49-12.13 7.28-4.08 2.68-8.17 5.36-12.18 8.13-4.93 3.4-9.49 7.45-11.69 13.02-2.11 5.33-1.63 11.64 2.13 16.19 3.54 4.28 9.35 5.86 14.85 5.41 5.62-.46 10.42-2.62 15.68-4.31 3.48-1.12 9.46-3.12 12.34.16 2.77 3.16 1.64 8.95 1.79 12.74.22 5.64 1.67 10.71 5.2 15.29 6.93 9 19.19 12.33 29.99 8.18 5.16-1.98 9.76-5.68 12.6-10.28 3.23-5.22 2.85-11.39 5.59-16.68 2.35-4.53 7.06-7.66 11.12-10.68 4.67-3.46 9.31-7.2 12.3-12.18 3.16-5.26 4.11-11.36 1.73-17.07z" filter="url(#b)"/></svg>