<svg xmlns="http://www.w3.org/2000/svg" data-name="Layer 1" viewBox="0 0 2730 2330"><defs><filter id="a" filterUnits="userSpaceOnUse"><feOffset dx="50" dy="7"/><feGaussianBlur result="blur" stdDeviation="55"/><feFlood flood-color="#000" flood-opacity=".55"/><feComposite in2="blur" operator="in"/><feComposite in="SourceGraphic"/></filter><filter id="b" filterUnits="userSpaceOnUse"><feOffset dx="50" dy="7"/><feGaussianBlur result="blur-2" stdDeviation="55"/><feFlood flood-color="#000" flood-opacity=".55"/><feComposite in2="blur-2" operator="in"/><feComposite in="SourceGraphic"/></filter><filter id="c" filterUnits="userSpaceOnUse"><feOffset dx="50" dy="7"/><feGaussianBlur result="blur-3" stdDeviation="55"/><feFlood flood-color="#000" flood-opacity=".55"/><feComposite in2="blur-3" operator="in"/><feComposite in="SourceGraphic"/></filter><filter id="d" filterUnits="userSpaceOnUse"><feOffset dx="50" dy="7"/><feGaussianBlur result="blur-4" stdDeviation="55"/><feFlood flood-color="#000" flood-opacity=".55"/><feComposite in2="blur-4" operator="in"/><feComposite in="SourceGraphic"/></filter><filter id="e" filterUnits="userSpaceOnUse"><feOffset dx="50" dy="7"/><feGaussianBlur result="blur-5" stdDeviation="55"/><feFlood flood-color="#000" flood-opacity=".55"/><feComposite in2="blur-5" operator="in"/><feComposite in="SourceGraphic"/></filter><filter id="f" filterUnits="userSpaceOnUse"><feOffset dx="50" dy="7"/><feGaussianBlur result="blur-6" stdDeviation="55"/><feFlood flood-color="#000" flood-opacity=".55"/><feComposite in2="blur-6" operator="in"/><feComposite in="SourceGraphic"/></filter><filter id="g" filterUnits="userSpaceOnUse"><feOffset dx="50" dy="7"/><feGaussianBlur result="blur-7" stdDeviation="55"/><feFlood flood-color="#000" flood-opacity=".55"/><feComposite in2="blur-7" operator="in"/><feComposite in="SourceGraphic"/></filter></defs><path fill="#d1395d" d="M264.47 722.56c-83.37 172.88 148 228 148 228 26.78 24.72 258.57-169.52 310-92 69 104-244.56 221-199 273 62.37 71.19 389.66-139.98 428-99 102 109 338.83 157.72 385.94-9.84 18.68-66.44 96.19-52.08 155.77 5.84 76.55 74.43 118.19-25.58 174.05-17.96 102.79 14.01 149.1 113.82 200.59 94.4 33.7-12.71-89.55-280.76-149.18-310-178.63-87.59-20.56-130.35-264.99-179.62-97.24-19.6-45.18-19.81-96.18-114.81-35.54-66.2-183.66-112.79-249-83-125 57-164.01 7.2-201 0-69.46-13.51-186.33-112.88-236-118-97-10-293.1-127.28-199 162 54 166 188.72-11.07 163 135-28 159-303-15-371 126z" filter="url(#a)"/><path fill="#d1395d" d="M1699.93 1072.56c-2.1-5.03-6.49-9.07-11.53-11.44-7.07-3.32-14.99-3.51-22.7-3.14-7.92.38-15.83.85-23.75 1.28-2.55.14-5.1.28-7.65.45-3.04-.55-6.07-1.09-9.11-1.62-4.86-.84-9.67-1.52-14.6-.75-5.1.79-9.5 3.49-12.13 7.28-4.08 2.68-8.17 5.36-12.18 8.13-4.93 3.4-9.49 7.45-11.69 13.02-2.11 5.33-1.63 11.64 2.13 16.19 3.54 4.28 9.35 5.86 14.85 5.41 5.62-.46 10.42-2.62 15.68-4.31 3.48-1.12 9.46-3.12 12.34.16 2.77 3.16 1.64 8.95 1.79 12.74.22 5.64 1.67 10.71 5.2 15.29 6.93 9 19.19 12.33 29.99 8.18 5.16-1.98 9.76-5.68 12.6-10.28 3.23-5.22 2.85-11.39 5.59-16.68 2.35-4.53 7.06-7.66 11.12-10.68 4.67-3.46 9.31-7.2 12.3-12.18 3.16-5.26 4.11-11.36 1.73-17.07z" filter="url(#b)"/><path fill="#eab93f" d="M1925.76 912.11c4.22-22.15 8.18-41.78 25.74-74.41 26.94-50.08 73.29-107.43 93.53-132.32 47.41-58.3 78.34-88.02 71.77-97.17-5.87-8.17-33.51 11.38-51.52 8.52-26.12-4.15-6.15-51.33 33.29-96.63 33.71-38.72 55.81-46.41 92.05-86.5 36.76-40.67 32.88-53.63 58.72-103.77 13.98-27.12 60.59-117.57 111.97-151.61 45.03-29.83 97.24-37.57 115.17-15.65 8.74 10.68 27.69 79.05-77.5 271.67-89.97 164.76-142.41 190.98-178.44 291.17-29.73 82.67-10.08 109.42-75.66 173.82-51.18 50.26-132.48 102.04-179.06 115.08-62.87 17.6-52.24-38.25-40.07-102.19z" filter="url(#c)"/><path fill="#eab93f" d="M2083.39 636.78c.7-3 .12-5.78-1.27-7.6-1.35-1.76-3.75-2.18-5.83-1.01-.17.1-.33.2-.49.3-.13.02-.26.05-.38.08l-32.19 8.6c-9.77 2.61-19.7 5.86-29.37 6.66-4.68.39-9.18.1-13.46-1.32-4.17-1.38-8.09-3.49-12.32-4.69-8.56-2.44-18.15-.05-25.9 9.98-7.24 9.37-10.92 22.14-9.94 33.71.97 11.42 6.05 20.28 13.43 24.64 7.61 4.49 16.56 4.87 25.69 2.17 9.37-2.78 18.63-8.67 27.53-14.94 10.98-7.74 21.87-15.82 32.8-23.76 9.85-7.16 19.49-14.81 27.43-26.11 2-1.49 3.59-3.77 4.28-6.72z" filter="url(#d)"/><path fill="#eab93f" d="M1981.4 759.77c-.07-6.11-.06-12.22-.23-18.32-.15-5.44-.1-11.86-3.72-15.98-3.88-4.42-10.32-3.25-15.44-3.25-5.5 0-11.12-.4-16.55.93-4.85 1.19-9.21 4.19-12.81 7.99-3.63 3.83-6.21 9.1-5.87 14.73.31 5.18 2.79 10.05 6.59 12.96 1.86 1.43 3.93 2.26 6.11 2.95.55.17 1.14.31 1.74.46.91.92 1.54 2.11 1.56 3.44.01 1.45-.32 2.97-.89 4.36a27.305 27.305 0 0 1-4.69 5.23c-1.91.95-4.06 1.38-6.06 2.19-2.68 1.1-5.27 3.13-6.78 5.88-1.44 1.03-2.65 2.45-3.51 4.5-2.68 6.44 1.45 13.11 6.39 16.09 4.87 2.93 10.9 2.97 16.15 1.04 5.46-2 10.09-5.98 14.33-10.22 1.71-1.71 3.34-3.5 4.88-5.38 1.11-.63 2.21-1.27 3.31-1.92 4.43-2.6 9.59-5.05 12.66-9.67 3.52-5.3 2.88-11.86 2.81-18.01z" filter="url(#e)"/><path fill="#57c6a4" d="M1803.01 1182.86c138.69-18.73 143.13 37.03 73.89 73.23-24.82 12.98-58.82 23.06-70.06 34.01-16.5 16.08 45.97 4.95 51.53 19.42 6.87 17.87-77.07 64.35-163.44 95.47-51.3 18.48-68.07 18.79-103.83 34.37-55.32 24.09-78.01 50.7-62.31 62.1 15.52 11.27 56.51-1.06 83.86 6.43 40.18 11 9.94 53.55-72.92 92.33-67.82 31.75-43.95 30.55-96.25 64.35-31.16 20.14-143-5-162 29-29.35 52.51 79 81 56 134-39.61 91.28-144.27-15.27-204-2-63 14-65.9 114.64-149 119-191.95 10.06-339 320-383 213-84.36-205.15-236.89-79.96-269-110-62-58 172-207 139.96-415.42-14.18-92.24-200.79-101.37-163.96-170.58 24.3-45.67 157.89-62.67 280-157 155.13-119.84 303.35-86.62 323.22 40.14 23.88 152.35 121.78 176.86 167.78 140.86 38.07-29.79 151.24-32.57 166-38 68-25 14-29 67.19-80.93 61.12-59.67 328.9-161.97 490.34-183.78z" filter="url(#f)"/><path fill="#57c6a4" d="M1905.83 1294.39c-1.45-1.43-4.32-2.39-5.53-3.85-.82-.98.14-2.4.43-3.45.55-1.98.78-4.03-.18-5.98-1.87-3.82-7.41-6.12-13.38-7-12.75-1.87-25.13 3.42-24.33 11.92.7 7.33 9.39 11.33 19.08 13.91 2.4 3.23 6.32 6.03 12.27 6.56 6.37.56 12.65-1.81 13.96-5.87.69-2.15-.49-4.44-2.32-6.25z" filter="url(#g)"/></svg>