<svg xmlns="http://www.w3.org/2000/svg" data-name="Layer 1" viewBox="0 0 127.9 84.19"><path fill="#d1395d" d="M126.57 15.54c-2.1-5.03-6.49-9.07-11.53-11.44C107.97.78 100.05.59 92.34.96c-7.92.38-15.83.85-23.75 1.28-2.55.14-5.1.28-7.65.45-3.04-.55-6.07-1.09-9.11-1.62-4.86-.84-9.67-1.52-14.6-.75-5.1.79-9.5 3.49-12.13 7.28-4.08 2.68-8.17 5.36-12.18 8.13-4.93 3.4-9.49 7.45-11.69 13.02C-.88 34.08-.4 40.39 3.36 44.94c3.54 4.28 9.35 5.86 14.85 5.41 5.62-.46 10.42-2.62 15.68-4.31 3.48-1.12 9.46-3.12 12.34.16 2.77 3.16 1.64 8.95 1.79 12.74.22 5.64 1.67 10.71 5.2 15.29 6.93 9 19.19 12.33 29.99 8.18 5.16-1.98 9.76-5.68 12.6-10.28 3.23-5.22 2.85-11.39 5.59-16.68 2.35-4.53 7.06-7.66 11.12-10.68 4.67-3.46 9.31-7.2 12.3-12.18 3.16-5.26 4.11-11.36 1.73-17.07z"/></svg>