<svg xmlns="http://www.w3.org/2000/svg" data-name="Layer 1" viewBox="0 0 131.61 82.5"><path fill="#eab93f" d="M131.31 9.26c.7-3 .12-5.78-1.27-7.6-1.35-1.76-3.75-2.18-5.83-1.01-.17.1-.33.2-.49.3-.13.02-.26.05-.38.08l-32.19 8.6c-9.77 2.61-19.7 5.86-29.37 6.66-4.68.39-9.18.1-13.46-1.32-4.17-1.38-8.09-3.49-12.32-4.69-8.56-2.44-18.15-.05-25.9 9.98C2.85 29.65-.83 42.42.16 53.99c.97 11.42 6.05 20.28 13.43 24.64 7.61 4.49 16.56 4.87 25.69 2.17 9.37-2.78 18.63-8.67 27.53-14.94 10.98-7.74 21.87-15.82 32.8-23.76 9.85-7.16 19.49-14.81 27.43-26.11 2-1.49 3.59-3.77 4.28-6.72z"/></svg>