<svg xmlns="http://www.w3.org/2000/svg" data-name="Layer 1" viewBox="0 0 61.47 84.2"><path fill="#eab93f" d="M61.39 37.69c-.07-6.11-.06-12.22-.23-18.32-.15-5.44-.1-11.86-3.72-15.98C53.56-1.03 47.12.14 42 .14c-5.5 0-11.12-.4-16.55.93-4.85 1.19-9.21 4.19-12.81 7.99-3.63 3.83-6.21 9.1-5.87 14.73.31 5.18 2.79 10.05 6.59 12.96 1.86 1.43 3.93 2.26 6.11 2.95.55.17 1.14.31 1.74.46.91.92 1.54 2.11 1.56 3.44.01 1.45-.32 2.97-.89 4.36a27.305 27.305 0 0 1-4.69 5.23c-1.91.95-4.06 1.38-6.06 2.19-2.68 1.1-5.27 3.13-6.78 5.88-1.44 1.03-2.65 2.45-3.51 4.5-2.68 6.44 1.45 13.11 6.39 16.09 4.87 2.93 10.9 2.97 16.15 1.04 5.46-2 10.09-5.98 14.33-10.22 1.71-1.71 3.34-3.5 4.88-5.38 1.11-.63 2.21-1.27 3.31-1.92 4.43-2.6 9.59-5.05 12.66-9.67 3.52-5.3 2.88-11.86 2.81-18.01z"/></svg>