<svg xmlns="http://www.w3.org/2000/svg" data-name="Layer 1" viewBox="0 0 898 1198"><defs><filter id="a" filterUnits="userSpaceOnUse"><feOffset dx="50" dy="7"/><feGaussianBlur result="blur" stdDeviation="55"/><feFlood flood-color="#000" flood-opacity=".55"/><feComposite in2="blur" operator="in"/><feComposite in="SourceGraphic"/></filter><filter id="b" filterUnits="userSpaceOnUse"><feOffset dx="50" dy="7"/><feGaussianBlur result="blur-2" stdDeviation="55"/><feFlood flood-color="#000" flood-opacity=".55"/><feComposite in2="blur-2" operator="in"/><feComposite in="SourceGraphic"/></filter><filter id="c" filterUnits="userSpaceOnUse"><feOffset dx="50" dy="7"/><feGaussianBlur result="blur-3" stdDeviation="55"/><feFlood flood-color="#000" flood-opacity=".55"/><feComposite in2="blur-3" operator="in"/><feComposite in="SourceGraphic"/></filter></defs><path fill="#eab93f" d="M124.27 920.1c4.22-22.15 8.18-41.78 25.74-74.41 26.94-50.08 73.29-107.43 93.53-132.32 47.41-58.3 78.34-88.02 71.77-97.17-5.87-8.17-33.51 11.38-51.52 8.52-26.12-4.15-6.15-51.33 33.29-96.63 33.71-38.72 55.81-46.41 92.05-86.5 36.76-40.67 32.88-53.63 58.72-103.77 13.98-27.12 60.59-117.57 111.97-151.61 45.03-29.83 97.24-37.57 115.17-15.65 8.74 10.68 27.69 79.05-77.5 271.67-89.97 164.76-142.41 190.98-178.44 291.17-29.73 82.67-10.08 109.42-75.66 173.82-51.18 50.26-132.48 102.04-179.06 115.08-62.87 17.6-52.24-38.25-40.07-102.19z" filter="url(#a)"/><path fill="#eab93f" d="M281.91 644.77c.7-3 .12-5.78-1.27-7.6-1.35-1.76-3.75-2.18-5.83-1.01-.17.1-.33.2-.49.3-.13.02-.26.05-.38.08l-32.19 8.6c-9.77 2.61-19.7 5.86-29.37 6.66-4.68.39-9.18.1-13.46-1.32-4.17-1.38-8.09-3.49-12.32-4.69-8.56-2.44-18.15-.05-25.9 9.98-7.24 9.37-10.92 22.14-9.94 33.71.97 11.42 6.05 20.28 13.43 24.64 7.61 4.49 16.56 4.87 25.69 2.17 9.37-2.78 18.63-8.67 27.53-14.94 10.98-7.74 21.87-15.82 32.8-23.76 9.85-7.16 19.49-14.81 27.43-26.11 2-1.49 3.59-3.77 4.28-6.72z" filter="url(#b)"/><path fill="#eab93f" d="M179.91 767.77c-.07-6.11-.06-12.22-.23-18.32-.15-5.44-.1-11.86-3.72-15.98-3.88-4.42-10.32-3.25-15.44-3.25-5.5 0-11.12-.4-16.55.93-4.85 1.19-9.21 4.19-12.81 7.99-3.63 3.83-6.21 9.1-5.87 14.73.31 5.18 2.79 10.05 6.59 12.96 1.86 1.43 3.93 2.26 6.11 2.95.55.17 1.14.31 1.74.46.91.92 1.54 2.11 1.56 3.44.01 1.45-.32 2.97-.89 4.36a27.305 27.305 0 0 1-4.69 5.23c-1.91.95-4.06 1.38-6.06 2.19-2.68 1.1-5.27 3.13-6.78 5.88-1.44 1.03-2.65 2.45-3.51 4.5-2.68 6.44 1.45 13.11 6.39 16.09 4.87 2.93 10.9 2.97 16.15 1.04 5.46-2 10.09-5.98 14.33-10.22 1.71-1.71 3.34-3.5 4.88-5.38 1.11-.63 2.21-1.27 3.31-1.92 4.43-2.6 9.59-5.05 12.66-9.67 3.52-5.3 2.88-11.86 2.81-18.01z" filter="url(#c)"/></svg>